<?xml version="1.0" encoding="UTF-8"?>
<svg version="1.1" viewBox="0 0 1296 2016" width="324" height="504" xmlns="http://www.w3.org/2000/svg">
<path transform="translate(0)" d="m0 0h1296v2016h-1296z" fill="#FEFFFE"/>
<path transform="translate(0)" d="m0 0h1296v352l-5-5-7-11-7-12-7-11-5-9-9-11-4-6-11-12-11-10-9-6-8-6-14-9-14-8-8-4-19-8-13-5-10-3-27-7-20-3-16-2-15-1-5-2-50-1-9-1-3-2h-57l-2 2-12 1-27 1-5 2-23 2-6 2-21 2-20 5-32 9-13 3-21 7-49 20-15 6-16 8-17 9-8 5-31 16-27 18-9 8-6 3-20 14-6 4-12 11-6 3-8 8-8 7-10 7-16 15-7 4-15 15h-2v2h-2v2h-2l-2 4-39 39-5 8-15 16-5 8-6 7h-2l-2 4-9 9-5 8-14 15-7 11-7 10-8 10-4 6-8 10-7 11-8 11-6 8-10 15-5 7-6 11-9 14-10 15-6 10-12 19-5 7-8 16-18 32-9 17-8 13-57 114-11 26-6 14-8 18-7 15-7 17-6 14-8 19-4 10-8 21-11 27-6 18-14 34-10 30-4 9-14 41-10 29-1 2h-2z" fill="#1E1ED6"/>
<path transform="translate(1293,768)" d="m0 0h3v1248h-1296v-320l4 2 4 8 24 39 10 11 6 9 13 13 8 5 10 9 17 10 8 5 16 8 23 10 19 6 25 6 27 4 3 1 37 2 9 1 4 2h52l2-2 10-1 44-1 16-1 2-1 26-3 12-2 16-2 12-2 18-2 34-8 30-7 25-6 14-4 24-9 21-7 19-7 15-6 14-5 34-17 17-9 16-8 19-10 18-12 14-8 10-7 11-7 9-6 10-7 8-6 11-10 8-5 11-11 9-6 8-7 10-8 6-4 44-44 6-10 26-26 6-10 14-14 6-10 10-10 6-10 7-8 6-9 7-11 12-18 7-10 6-9 7-11 4-5 12-21 8-16 10-19 6-10 8-15 9-19 10-19 8-18 6-15 6-13 16-36 9-23 13-38 9-23 14-43 3-9 5-19 3-9 5-19 3-9 5-19 3-9 5-19 3-9 2-14 2-5 2-11 2-6 2-14 2-5 2-11 2-6 2-14 2-5 2-11 2-6 2-13 2-7 2-18 2-5 2-15 2-4z" fill="#1E1ED6"/>
<path transform="translate(654,684)" d="m0 0h53l10 3 10 2 17 5 21 8 21 10 10 6 10 9 7 7 6 3 12 11 9 11 12 16 20 40 1 23 3 4v48l-2 2-2 14-6 10-5 7-3 5-9 11-3 5-11 12-9 9-8 6-27 14-10 5v4l11 5 7 2 18 9v2l10 5 12 11 4 3 5 3 10 9 6 7 3 6 8 9 11 18 14 29 2 11 2 4v51l-3 4-1 17-3 10-2 10-4 12-24 48-7 7-7 8-8 8h-2v2l-10 8-8 6-13 12-27 14-18 8-11 4-16 1-5 2-9 1-28 1-5 3h-36l-10-3-22-2-5-2-15-2-5-2-11-2-2-2-7-3-40-20-10-7-11-9-6-5-8-6-15-15-9-16-6-9-9-19-10-25-1-24-3-5v-62l3-8 1-12 6-13 15-30 9-10 3-7h2l2-4 8-8 9-6 11-7 50-25 1-5-13-1-10-5-10-9-9-6-6-5v-2h-2v-2h-2l-7-8-5-5-3-6-9-11-10-21-2-5-2-11-2-4v-64l3-9 4-16 6-15 10-18 24-24 2-6h2l2-4 13-8 17-9 10-7 10-6 12-6 10-3 17-5 25-2z" fill="#1E1ED6"/>
<path transform="translate(658,1028)" d="m0 0h26l5 2 19 2 9 3 10 2 17 8 15 8 10 7 11 9 4 5 2 5 9 10 9 17 5 14 3 6 1 16 3 3v27l-3 9-2 15-2 5-2 10-8 16-5 9-9 11-3 5-11 11-8 5-8 7-17 9-10 4-11 2-6 2-14 2-3 2h-27l-7-1-4-2-15-2-5-2-11-2-16-8-11-6-8-8-6-3-19-19-9-17-8-18-4-12-1-12-3-8v-27l3-3 1-15 3-5 1-12 3-4 2-9 5-10 6-10 7-10 4-5 9-7 15-9 12-6 11-4 18-8 15-2z" fill="#FEFFFE"/>
<path transform="translate(665,756)" d="m0 0h23l5 2 15 2 17 6 14 7 8 6 5 3 15 14 5 6 4 10 1 9 3 6 1 15 3 3v22l-2 6-1 2-1 13-2 5-1 1-1 11-5 10-21 21-6 3-9 6-14 7-8 2-6 2-19 1v2l-2 1h-24l-4-3-18-1-21-10-10-6-3-3-6-3-6-5-6-7-3-6-6-9-3-6-2-8-2-5-1-17-2-3-1-5v-33l12-23 6-11 6-8 2-4 14-7 8-6 5-3 6-4 12-2 6-2 18-2z" fill="#FEFFFE"/>
<path transform="translate(134,76)" d="m0 0h13l14 4 11 5 11 7 7 7 8 14 2 7 1 15-3 9-7 11-8 7-11 6 13 7 10 8 9 12 4 11v20l-3 13-7 13-8 9-11 8-10 5-12 3-9 1-4 2h-7l-10-3-14-4-16-8-10-8-7-10-5-12-3-13v-13l5-13 6-10 5-6 11-7 10-3-3-3-10-6-9-10-4-9-1-4v-21l4-11 8-10 9-8 16-8z" fill="#FEFFFE"/>
<path transform="translate(1158,1752)" d="m0 0h13l14 4 11 5 11 7 9 10 7 14 2 13-1 11-6 11-8 9-14 8 13 7 10 8 9 12 4 11v20l-3 13-7 13-8 9-11 8-10 5-12 3-9 1-4 2h-7l-10-3-14-4-16-8-10-8-7-10-5-12-3-13v-13l5-13 6-10 5-6 11-7 10-3-3-3-10-6-8-9-5-10-1-4v-21l4-11 8-10 9-8 16-8z" fill="#FEFFFE"/>
<path transform="translate(1157,1855)" d="m0 0h14l13 4 9 5 7 8 5 10 2 9-1 11-3 10-8 11-10 7-13 4h-13l-11-3-9-5-7-7-5-8-3-10v-13l5-16 7-8 14-7z" fill="#1E1ED6"/>
<path transform="translate(133,179)" d="m0 0h14l13 4 10 6 7 9 4 8 2 8v7l-4 15-8 11-10 7-13 4h-13l-11-3-9-5-7-7-5-8-3-10v-13l5-16 7-8 14-7z" fill="#1E1ED6"/>
<path transform="translate(132,99)" d="m0 0h17l12 5 5 4 4 6 3 9v12l-4 11-9 8-10 4-5 1h-9l-9-2-8-5-7-7-4-12v-12l4-9 6-7 10-5z" fill="#1E1ED6"/>
<path transform="translate(1156,1775)" d="m0 0h17l12 5 5 4 4 6 3 9v12l-4 11-9 8-10 4-6 1h-8l-9-2-8-5-7-7-4-12v-12l4-9 6-7 10-5z" fill="#1E1ED6"/>
</svg>
