<?xml version="1.0" encoding="UTF-8"?>
<svg version="1.1" viewBox="0 0 1296 2016" width="324" height="504" xmlns="http://www.w3.org/2000/svg">
<path transform="translate(0)" d="m0 0h1296v2016h-1296z" fill="#FEFFFE"/>
<path transform="translate(0)" d="m0 0h1296v352l-5-5-7-11-7-12-6-9-6-11-9-11-4-6-11-12-11-10-9-6-8-6-14-9-14-8-8-4-19-8-13-5-10-3-27-7-20-3-15-2-16-1-5-2-49-1-10-1-3-2h-57l-2 2-12 1-27 1-5 2-23 2-6 2-21 2-24 6-28 8-13 3-21 7-49 20-15 6-16 8-17 9-4 3-14 7-19 10-16 10-10 7-10 8-11 7-11 8-11 7-13 12-6 3-8 8-8 7-10 7-16 15-7 4-13 13h-2v2h-2v2l-45 45-5 8-15 16-5 8-6 7h-2l-2 4-9 9-5 8-14 15-7 11-7 10-8 10-4 6-8 10-12 18-8 10-7 11-9 13-6 11-9 14-10 15-6 10-10 16-7 10-8 16-9 16-6 10-12 23-8 13-57 114-5 12-8 19-5 12-11 24-5 12-7 16-4 9-8 19-4 10-8 21-11 27-6 18-14 34-10 30-4 9-14 41-10 29-1 2h-2z" fill="#1E1ED6"/>
<path transform="translate(1293,768)" d="m0 0h3v1248h-1296v-320l4 2 4 8 24 39 10 11 6 9 13 13 8 5 10 9 17 10 8 5 15 8 27 11 20 6 26 6 22 3 3 1 37 2 9 1 4 2h52l2-2 10-1 44-1 16-1 2-1 26-3 12-2 16-2 12-2 18-2 34-8 30-7 25-6 14-4 24-9 21-7 19-7 15-6 14-5 34-17 17-9 16-8 19-10 18-12 14-8 10-7 11-7 9-6 10-7 8-6 4-2 2-4 9-6 8-7 7-7 9-6 8-7 10-8 6-4 44-44 6-10 26-26 6-10 14-14 6-10 10-10 6-10 7-8 6-9 7-11 12-18 7-10 6-9 7-11 4-5 4-7 3-4 16-32 9-16 8-14 9-19 10-19 11-23 7-18 6-13 16-36 9-23 13-38 9-23 14-43 3-9 5-19 3-9 5-19 3-9 5-19 3-9 5-19 3-9 2-14 2-5 2-11 2-6 2-14 2-5 2-11 2-6 2-14 2-5 2-11 2-6 2-13 2-7 2-18 2-5 2-15 2-4z" fill="#1E1ED6"/>
<path transform="translate(666,692)" d="m0 0h20l3 3 38 1 18 6 16 4 10 3 16 8 11 6 10 7 10 9 28 28 6 8 7 14 9 14 11 23 13 38 7 26 5 25 2 12 2 9 1 20 3 7 1 43 3 4v88l-3 3-1 31-3 6-1 24-5 17-6 18-2 10-5 10-4 12-21 42-11 17-11 12-6 6h-2v2l-10 8-11 8-3 3-9 5-8 5-28 14-36 12-14 3-1 1-9 1-25 1-2 2h-6l-2-2-34-1-9-3-15-2-8-3-16-5-10-5-11-4-7-5-11-6-15-10-16-15-12-13-7-8-6-9-7-11-7-7-2-9-12-25-3-8-5-16-2-5-3-12-3-11-2-5-1-14-2-6-1-2-1-20-2-6-1-1-1-61-3-3v-24l3-4 1-76 3-5 1-29 3-8 2-15 2-5 2-15 2-6 2-10 3-9 7-16 6-19 6-11 4-5 6-9 10-18 35-35 9-7 16-9 8-5 12-6 10-3 24-8 18-3 2-1 22-2h9v-2z" fill="#1E1ED6"/>
<path transform="translate(646,768)" d="m0 0h42l5 2 19 2 12 5 19 10 5 3 12 8 8 8 3 6 9 9 8 13 8 18 5 15 3 8 2 12 2 6 1 21 3 4 1 44 3 2v139l-3 3-1 34-3 9-1 18-3 11-2 10-2 6-2 10-3 8-6 12-3 4h-2l-2 4-5 8-3 4h-2l-2 4-5 8-11 11-8 5-10 6-16 8-5 2-11 2-5 2-15 2-4 2h-17l-8-3-16-2-3-2-10-3-12-4-17-9-6-7-3-6-9-11-8-15-11-23-12-24-4-16-5-22-2-20-1-1-1-7v-156l3-3 1-37 3-3 1-28 3-4 1-12 3-4 1-11 8-17 11-20 3-6 28-28 6-3 8-7 14-7 13-5z" fill="#FEFFFE"/>
<path transform="translate(1161,1752)" d="m0 0 12 1 14 3 16 8 9 9 7 11 7 16 5 22 3 22 2 7v17l-5 26-5 16-8 16-7 8-9 8-16 8-16 4h-13l-12-2-14-5-10-7-9-8-8-13-6-16-4-20-2-22 1-27 3-22 5-18 7-13 9-11 10-8 13-6 14-3z" fill="#FEFFFE"/>
<path transform="translate(137,76)" d="m0 0 12 1 14 3 16 8 10 10 8 14 5 12 5 22 4 25 1 5v15l-5 27-5 16-8 16-9 10-7 6-16 8-16 4h-13l-12-2-11-4-11-6-11-10-8-13-6-16-4-20-2-22 1-27 3-22 5-18 7-13 11-13 10-7 11-5z" fill="#FEFFFE"/>
<path transform="translate(131,99)" d="m0 0h14l12 4 8 6 5 6 6 12 3 13 2 21v34l-3 24-3 11-4 8-9 10-9 5-9 3h-11l-13-4-7-6-8-14-5-13-3-17v-40l3-25 4-15 7-11 10-8 6-3z" fill="#1E1ED6"/>
<path transform="translate(1155,1775)" d="m0 0h14l12 4 8 6 5 6 6 12 3 13 2 21v34l-3 24-3 12-7 11-7 7-10 5-7 2h-11l-13-4-7-6-8-14-5-13-2-9-1-9v-34l2-24 4-18 5-10 6-7 10-7z" fill="#1E1ED6"/>
</svg>
