<?xml version="1.0" encoding="UTF-8"?>
<svg version="1.1" viewBox="0 0 1296 2016" width="324" height="504" xmlns="http://www.w3.org/2000/svg">
<path transform="translate(0)" d="m0 0h1296v2016h-1296z" fill="#FDFDFD"/>
<path transform="translate(0)" d="m0 0h1296v352l-3-1-5-8-18-30-7-11-7-8-4-7-20-20-10-7-12-9-6-4-18-10-7-4-12-5-20-8-13-4-21-5-7-2-17-2-2-1-26-2-6-2-20-1-39-1-5-2-15-1h-40l-7 3-36 1-11 3-17 1-6 2-21 2-24 6-12 4-16 4-19 5-20 7-15 6-49 20-20 10-11 7-19 10-21 11-10 7-15 10-8 7-8 5-12 8-13 9-8 8-11 7-13 13-9 6-10 9-8 7-9 6-58 58-7 11-12 12-9 13-15 15-9 13-11 11-16 24-7 8-6 9-6 7-7 11-8 11-6 8-10 15-7 11-7 12-16 24-6 10-14 22-6 10-12 23-7 11-13 25-7 11-56 112-7 15-5 13-6 12-5 13-12 26-5 12-7 16-5 12-7 16-7 20-6 15-7 17-7 20-6 15-7 17-10 30-6 14-12 36-10 29-3 2z" fill="#1E1ED5"/>
<path transform="translate(1295,767)" d="m0 0h1v1249h-1296v-321l5 5 27 45 8 8 4 5 4 7 12 12 10 6 9 9 19 11 8 5 23 11 17 7 28 8 26 5 20 3 42 2 2 1v2h54l4-3 43-1 26-1 8-2 19-2 18-3 39-5 31-7 24-6 32-7 18-5 16-6 14-5 31-11 18-7 13-5 78-39 22-14 8-5 10-6 11-7 9-6 20-14 9-6 7-7 13-9 12-12 11-7 8-8 13-9 40-40 4-5 3-6 25-25 4-5 3-6 13-13 4-5 3-6 10-10 6-10 8-9 6-9 7-11 7-10 7-11 6-9 7-10 10-15 8-13 17-34 11-18 31-62 10-24 12-28 10-21 12-32 10-30 6-15 12-35 8-25 5-19 3-9 5-19 3-9 5-19 3-8 2-10 4-12 2-7 1-11 2-3 3-15 2-7 1-11 2-3 3-15 2-7 2-13 2-6 2-10 2-8 2-12 2-8 2-16 2-7 1-12 2-2 1-5 1-17z" fill="#1E1ED5"/>
<path transform="translate(521,731)" d="m0 0h388l3 1 1 61-7 8-8 9-6 9-11 11-8 12-7 8-6 9-6 7-6 9-6 7-7 11-8 14-18 27-30 50-10 18-6 10-10 19-7 18-5 12-5 13-6 15-8 17-4 11-4 9-3 13-4 12-5 10-2 9-3 7-2 6-3 11-2 3-2 13-3 6-2 8-2 6-1 12-2 3-1 7-1 22-3 4-1 29-3 1-1 34-3 4-1 17-1 1h-82l-2-3 1-24 3-1 1-47 3-1 1-35 3-1 1-18 2-2 3-15 5-18 3-10 6-18 2-10 10-30 2-10 8-24 12-25 8-17 5-12 11-23 40-80 5-9 4-5 10-16 6-7 4-8 7-7 5-9 4-5 6-9 6-10 4-5 5-8 13-13 6-10 7-7h2l1-4-110 1h-159l-46-1-1-1v-75z" fill="#1E1ED5"/>
<path transform="translate(69,80)" d="m0 0h146l1 1v14l-3 7-9 10-9 11-9 12-13 19-12 20-12 26-10 27-4 15-4 26-2 11h-28v-9l3-25 6-23 8-23 10-21 12-22 10-16 12-16 9-11 7-8-109-1-1-1v-22z" fill="#FDFDFD"/>
<path transform="translate(1093,1756)" d="m0 0h146l1 1v14l-3 7-9 10-9 11-9 12-13 19-12 20-12 26-10 27-4 15-4 26-2 11h-28v-9l3-25 6-23 8-23 10-21 12-22 10-16 12-16 9-11 7-7 1-2h-110l-1-1v-22z" fill="#FDFDFD"/>
</svg>
