<?xml version="1.0" encoding="UTF-8"?>
<svg version="1.1" viewBox="0 0 1296 2016" width="324" height="504" xmlns="http://www.w3.org/2000/svg">
<path transform="translate(0)" d="m0 0h1296v2016h-1296z" fill="#FEFEFE"/>
<path transform="translate(0)" d="m0 0h1296v352l-5-5-7-11-7-12-7-11-6-10-8-10-4-6-11-12-10-9-14-10-10-7-13-8-14-8-17-7-11-4-9-4-24-6-11-3-20-3-16-2-15-1-6-2-49-1-9-1-3-2h-57l-2 2-12 1-27 1-5 2-23 2-6 2-21 2-20 5-16 5-22 5-22 7-31 12-12 5-20 8-20 9-20 11-8 5-31 16-27 18-9 8-6 3-20 14-6 4-12 11-7 4-7 7h-2v2l-10 8-6 4-6 6h-2v2l-8 7-7 4-15 15h-2l-2 4-43 43-5 8-15 16-5 8-15 16-5 6-4 6-14 15-7 11-7 10-8 10-4 6-8 10-7 11-8 11-6 8-10 15-5 7-6 11-9 14-10 15-6 10-11 18-6 8-8 16-18 32-9 17-8 13-57 114-11 26-6 14-8 18-7 15-7 17-6 14-8 19-4 10-8 21-7 17-5 14-6 16-6 15-7 17-10 30-4 9-14 41-10 29-3 3z" fill="#1E1ED6"/>
<path transform="translate(1293,768)" d="m0 0h3v1248h-1296v-320l4 2 4 8 8 13 7 11 8 14 11 12 6 9 13 13 8 5 10 9 17 10 8 5 16 8 23 10 19 6 25 6 19 3 9 1 2 1 38 2 8 1 4 2h52l2-2 10-1 44-1 16-1 2-1 26-3 12-2 16-2 12-2 18-2 34-8 30-7 29-7 16-5 18-7 21-7 19-7 15-6 14-5 26-13 17-9 23-11 20-11 18-12 14-8 10-7 15-10 11-7 11-8 7-7 9-6 8-7 7-7 9-6 8-7 10-8 8-6 42-42 6-10 26-26 6-10 14-14 6-10 10-10 6-10 7-8 6-9 7-11 12-18 7-10 6-9 7-11 4-5 12-21 9-19 11-19 8-14 9-19 10-19 11-23 7-18 6-13 16-36 9-23 13-38 9-23 14-43 3-9 5-19 3-9 5-19 3-9 2-10 6-18 5-19 3-9 2-14 2-5 2-11 2-6 2-14 2-5 2-11 2-6 2-14 2-5 2-11 2-6 2-13 2-7 2-18 2-6 2-14 2-4z" fill="#1E1ED6"/>
<path transform="translate(521,720)" d="m0 0h350l1 9v70l-1 1-278 1-2 6-2 5-1 14-3 4-1 12-3 7-1 11-3 9-2 14-2 5-1 10-3 6-1 12-3 8-1 12-3 7-1 11-3 4-1 6 12-7 19-9 9-3 19-9 14-4 10-2 8-2h86l11 4 17 7 18 6 19 7 13 8 9 6 10 9 5 4 5 3 10 9 9 10 6 9 9 12 8 13 10 21 4 13 1 11 3 7 1 27 3 4v53l-3 10-2 10-4 12-7 19-10 19-11 18-7 7-7 8-11 11-5 8-4 5h-2l-2 4-8 8h-2l-1 3-9 7-13 8-12 5-22 10-15 5-10 2-13 4-5 2-11 2-1 1-8 1h-69l-9-1-5-2-26-6-27-9-16-6-19-10-17-16-6-5-8-6-20-20-6-10-7-10-4-6-4-9-5-15-5-17-2-5-3-12-1-3v-11l2-1 20-1 2-2 4-1 40-1v-2l3-1h20l5 12 4 13 3 12 10 21 10 18 7 8 8 7 5 4 16 8 18 8 10 2 7 2 13 2 1 1 7 1h39l5-3 10-1 16-8 19-10 7-6 5-5 5-3 8-7 7-11 3-4 4-7 5-5 4-6 3-7 2-7 2-5 2-15 2-6 1-15 3-7v-35l-3-4-1-22-3-7-7-13-5-7-6-12-9-10-3-6-6-7-6-5-21-10-10-5-10-3-5-2-11-2-6-2h-77l-7 3-13 5-18 10-13 12-6 3-4 4h-2l-2 4-4 5-4 6-4 5-3 2h-14l-7-3-27-1-9-1-3-2-21-2-1-1 1-9 2-6 2-14 2-6 2-14 2-5 2-15 2-6 1-14 3-9 2-15 2-5 2-15 2-5 2-15 2-5 2-15 2-5 2-15 2-5 2-15 2-5 2-15 2-6 2-18 2-5 2-15 2-5 2-15 2-6 2-14 2-6z" fill="#1E1ED6"/>
<path transform="translate(1116,1752)" d="m0 0h107l1 2v20l-1 1-84 1-3 9-7 35-2 7 18-8 7-2h30l21 8 9 7 5 4 8 11 5 10 2 15v24l-3 14-6 11-11 13-8 8-14 7-16 3h-28l-16-3-12-6-12-10-6-8-5-10-3-12v-5l1-1 19-2 6-1 4 9 5 12 6 8 9 5 9 3 6 1h12l13-5 10-8 7-10 3-9 2-14-1-14-4-11-8-11-5-4-8-4-8-2h-24l-8 3-9 7-7 8-17-1-7-1-1-1v-8l12-63 5-25z" fill="#FEFEFE"/>
<path transform="translate(91,76)" d="m0 0h108l1 1v20h-87l-4 20-7 31 18-8 8-2h29l18 6 9 5 10 9 6 7 6 11 2 14v26l-3 14-9 14-12 13-9 6-13 6-6 2-7 1h-27l-14-3-17-9-10-9-7-8-4-9-2-10v-8l3-1 15-1 6-1 2 1 6 16 6 9 6 5 9 4 14 3h8l12-4 10-7 8-9 4-8 2-8 1-9v-9l-3-12-6-10-6-7-10-5-13-3h-19l-11 4-10 8-5 6h-9l-16-2-1-4 17-88z" fill="#FEFEFE"/>
</svg>
