<?xml version="1.0" encoding="UTF-8"?>
<svg version="1.1" viewBox="0 0 1296 2016" width="324" height="504" xmlns="http://www.w3.org/2000/svg">
<path transform="translate(0)" d="m0 0h1296v2016h-1296z" fill="#FDFEFD"/>
<path transform="translate(0)" d="m0 0h1296v352l-5-5-9-14-7-12-5-8-6-10-8-9-3-6-9-9-5-6-10-8-16-12-12-8-11-6-10-6-8-3-15-6-14-6-19-5-17-4-17-2-8-2-25-2-2-1-12-1-46-1-9-3h-54l-3 2-8 1-30 1-6 2-23 2-5 2-22 2-31 8-5 2-13 3-18 5-21 7-29 12-35 14-26 13-11 7-27 14-12 7-10 7-12 8-10 8-9 6-11 7-11 8-11 10-8 5-10 10-16 12-8 8-16 12-58 58-6 9-9 10-7 8-4 6-9 10-8 8-7 10-9 10-6 7-6 9-7 10-7 9-6 9-6 7-6 9-7 11h-2l-2 4-7 10-13 20-7 12-10 15-11 17-9 15-11 17-13 25-8 13-12 23-8 13-14 27-41 82-8 17-5 13-7 16-5 12-11 23-5 13-7 15-5 13-7 16-7 20-5 11-5 14-4 10-8 22-3 6-5 14-3 7-11 32-5 12-10 30-10 29-3 7-2 1z" fill="#1E1ED5"/>
<path transform="translate(1293,768)" d="m0 0h3v1248h-1296v-321l5 5 4 7 6 10 9 14 6 11 7 8 8 11 7 8 8 8 9 6 10 9 17 10 13 8 22 10 18 7 21 6 22 5 23 3 2 1 15 1 29 1 7 3h50l3-2 8-1 42-1 20-1 2-1 25-3 19-3 30-4 19-3 44-11 20-4 27-7 15-6 21-7 23-8 16-6 18-7 21-10 19-10 46-23 10-7 11-7 12-7 33-22 10-7 6-4 7-7 10-7 8-7 11-10 9-6 11-10 9-6 42-42 4-8h2l2-4 24-24 6-10 14-14 7-11 10-10 6-10 7-8 6-9 7-11 12-18 7-10 6-9 7-11 6-9 6-10 8-16 12-23 8-13 10-19 11-23 8-16 6-13 6-15 6-13 6-15 8-16 8-20 7-20 11-32 5-12 19-57 4-16 4-12 4-16 4-12 3-12 5-16 3-12 3-10 2-6 1-11 3-8 2-11 2-6 1-11 3-9 2-10 2-6 2-14 2-6 4-17 2-13 2-7 2-17 2-6 1-12 3-7 1-17z" fill="#1E1ED5"/>
<path transform="translate(653,680)" d="m0 0h270l1 1v474l-1 1h-271v-475z" fill="#1E1ED5"/>
<path transform="translate(449,1040)" d="m0 0h186l1 1 1 130h60l18 1 1 1v342l-1 1h-265l-2-2v-473z" fill="#1E1ED5"/>
<path transform="translate(1202,1784)" d="m0 0h17l9 3 13 7 7 8 3 8 1 5v17l-2 11-7 12-11 12-8 6-12 13-11 12-8 10h58l1 1v11l-2 4h-75l-6-1 1-8 6-12 11-15 7-8 11-9 7-7 8-7 7-8 5-9 4-9v-19l-5-7-8-4-7-2h-6l-13 7-4 5-2 6v7l-1 3h-9l-5-2-2-3 1-6 5-12 7-10 8-7z" fill="#FDFEFD"/>
<path transform="translate(179,100)" d="m0 0h16l12 4 11 7 6 7 3 8 1 5v17l-2 10-5 10-11 13-11 9-11 12-14 15-5 7h58l1 1v11l-2 4h-75l-6-1 1-8 6-12 11-15 6-7 11-9 17-16 8-10 6-12 2-16-2-8-4-5-8-4-6-2h-7l-13 7-4 5-2 6-1 9-1 1h-8l-5-2-2-5 4-12 7-12 10-9z" fill="#FDFEFD"/>
<path transform="translate(1107,1809)" d="m0 0h13l1 7v32h32l1 1v13l-1 1-32 1v35l-1 3h-12l-1-1v-38h-34l-1-1v-13l1-1h34z" fill="#FDFEFD"/>
<path transform="translate(83,125)" d="m0 0h13l1 8v31h32l1 1v13l-1 1-32 1v35l-1 3h-12l-1-1v-38h-34l-1-1v-13l1-1h34z" fill="#FDFEFD"/>
</svg>
