<?xml version="1.0" encoding="UTF-8"?>
<svg version="1.1" viewBox="0 0 1296 2016" width="324" height="504" xmlns="http://www.w3.org/2000/svg">
<path transform="translate(0)" d="m0 0h1296v2016h-1296z" fill="#FEFEFE"/>
<path transform="translate(0)" d="m0 0h1296v352l-5-5-7-11-7-12-7-11-6-10-8-10-4-6-11-12-10-9-14-10-10-7-13-8-14-8-17-7-11-4-9-4-24-6-11-3-20-3-16-2-15-1-6-2-49-1-9-1-3-2h-57l-2 2-12 1-27 1-5 2-23 2-6 2-21 2-20 5-16 5-22 5-22 7-31 12-12 5-20 8-20 9-20 11-8 5-31 16-27 18-9 8-6 3-20 14-6 4-12 11-7 4-7 7h-2v2l-10 8-6 4-6 6h-2v2l-8 7-7 4-62 62-5 8-15 16-5 8-15 16-5 6-4 6-14 15-7 11-7 10-8 10-4 6-8 10-7 11-8 11-6 8-10 15-5 7-6 11-9 14-10 15-6 10-11 18-6 8-8 16-18 32-9 17-8 13-57 114-11 26-6 14-8 18-7 15-7 17-6 14-8 19-4 10-8 21-7 17-5 14-6 16-6 15-7 17-10 30-4 9-14 41-10 29-3 3z" fill="#1E1ED6"/>
<path transform="translate(1293,768)" d="m0 0h3v1248h-1296v-320l4 2 4 8 8 13 7 11 8 14 11 12 6 9 13 13 8 5 10 9 17 10 8 5 16 8 23 10 19 6 25 6 19 3 9 1 2 1 38 2 8 1 4 2h52l2-2 10-1 44-1 16-1 2-1 26-3 12-2 16-2 12-2 18-2 34-8 30-7 29-7 16-5 18-7 21-7 19-7 15-6 14-5 26-13 17-9 23-11 20-11 18-12 14-8 10-7 11-7 9-6 13-9 8-7 10-8 6-4 11-11 9-6 8-7 10-8 8-6 42-42 6-10 26-26 6-10 14-14 6-10 10-10 6-10 7-8 6-9 7-11 12-18 7-10 6-9 7-11 4-5 12-21 9-19 11-19 8-14 9-19 10-19 11-23 7-18 6-13 16-36 9-23 13-38 9-23 14-43 3-9 5-19 3-9 5-19 3-9 2-10 6-18 5-19 3-9 2-14 2-5 2-11 2-6 2-14 2-5 2-11 2-6 2-14 2-5 2-11 2-6 2-13 2-7 2-18 2-6 2-14 2-4z" fill="#1E1ED6"/>
<path transform="translate(663,688)" d="m0 0h31l7 3 15 1 12 5 9 3 8 3 10 2 12 6 19 9 17 9 9 6 11 6 10 9 7 8 3 6 7 7 6 8 4 6 8 10 9 14 11 23 5 18 7 28 2 13 2 5 1 25 3 5 1 50 2 5 1 1v73l-3 2-1 61-3 4-1 22-3 8-2 15-2 4-1 7-3 7-2 10-4 12-16 32-9 17-16 24-9 11-3 5-9 11-3 5-5 6-8 6-11 6-10 8-11 7-14 7-24 8-10 2-6 2-11 2-5 2-14 2-6 2h-47l-9-2-16-4-23-6-9-3-11-3-12-4-16-8-12-11-10-7-20-20-12-23-8-17-3-8-3-9-2-11-3-7-6-18-1-6 2-1 16-1 3-2 5-1 33-2 5-2h19l1 1 2 10 2 5 2 15 16 32 7 7 7 3 5 5 1 3 5 2 5 3 5 4 11 5 7 2 5 2 7 2 4 2h52l6-2 1-1 10-2 3-2 10-3 22-11 6-6h2l2-4 17-17 7-14 6-8 7-14 3-10 7-15 3-6 2-7 2-5 2-11 2-5 2-11 2-5 1-9 3-7 1-10 2-2 1-4 1-56-4 2-7 8-24 24-8 6-11 8-5 4-9 6-12 6-9 3-12 5-6 2-5 2-26 1-6 3h-55l-10-3-14-2-2-2-30-10-16-8-10-6-10-8-8-6-13-13-3-6-13-14-3-6-9-11-12-24-5-12-5-13-2-5-3-12-3-15-2-4v-49l3-7 1-24 3-9 1-19 3-8 2-11 7-14 6-11 3-4h2l2-4 7-11 7-8 6-9 13-13 6-10 13-13 11-7 16-8 20-9 14-4 11-3 22-3 10-2 14-2z" fill="#1E1ED6"/>
<path transform="translate(656,760)" d="m0 0h56l17 6 22 11 12 10 6 4 7 6 4 5 2 5 9 10 8 16 3 10 2 4 2 12 2 5 1 9 3 7 1 14 3 4v22l-3 10-1 17-4 16-5 17-3 8-6 12-6 9-7 8-6 7-7 6-5 5-6 5-17 8-7 2-4 2-12 2-6 2-14 2-5 2h-23l-9-3-15-2-5-2-11-2-16-8-11-6-4-4-6-3-6-5-6-3-7-7-6-10-5-8-6-13-5-13-3-7-1-16-2-4-1-6v-61l3-3 1-11 8-17 7-12 5-9 3-3 3-6 9-11 4-6 10-10 11-7 20-11 18-8z" fill="#FEFEFE"/>
<path transform="translate(1153,1752)" d="m0 0h18l13 3 19 9 12 11 8 11 5 11 3 12 3 28v25l-1 18-4 19-7 16-6 10-10 13-11 8-12 5-14 3h-19l-19-5-10-5-9-8-6-10-6-18v-3l3-1 20-2 2 2 4 12 6 8 10 6 7 2 9 1 13-2 10-5 7-7 6-10 5-13 5-21 1-15-8 7-10 8-12 6-12 2h-18l-12-3-16-8-10-10-8-13-5-15-1-5v-15l3-19 7-14 13-15 9-7 14-5z" fill="#FEFEFE"/>
<path transform="translate(130,80)" d="m0 0h16l14 3 19 9 12 11 8 11 5 11 3 12 3 27v26l-1 18-4 19-7 16-6 10-10 13-11 8-12 5-14 3h-17l-15-3-13-5-9-7-7-9-6-15-2-10 3-1 20-2 2 2 4 12 6 8 10 6 7 2 12 1 12-3 9-5 8-9 7-14 6-21 2-21-8 7-10 8-12 6-12 2h-18l-12-3-16-8-10-10-8-13-5-15-1-5v-15l3-19 6-12 8-10 9-10 8-5 16-5z" fill="#FEFEFE"/>
<path transform="translate(446,1384)" d="m0 0h473l4 5 1 2v6l-5 6-3 1h-467l-5-2-4-5 1-9z" fill="#1E1ED6"/>
<path transform="translate(136,100)" d="m0 0h10l12 3 9 6 7 9 4 8 3 12v16l-3 12-4 8-7 8-12 6-9 2h-11l-13-4-10-6-7-8-5-13-1-6v-14l3-12 6-10 6-7 11-7 5-2z" fill="#1E1ED6"/>
<path transform="translate(1160,1772)" d="m0 0h10l12 3 9 6 7 9 4 8 3 12v16l-3 12-4 8-7 8-12 6-9 2h-10l-12-3-11-6-8-9-4-10-2-9v-14l3-12 6-10 6-7 11-7 5-2z" fill="#1E1ED6"/>
<path transform="translate(69,286)" d="m0 0h142l1 5-1 1h-141l-2-1z" fill="#FEFEFE"/>
<path transform="translate(1093,1958)" d="m0 0h142l1 5-1 1h-141l-2-1z" fill="#FEFEFE"/>
</svg>
