<?xml version="1.0" encoding="UTF-8"?>
<svg version="1.1" viewBox="0 0 1296 2016" width="324" height="504" xmlns="http://www.w3.org/2000/svg">
<path transform="translate(0)" d="m0 0h1296v2016h-1296z" fill="#FEFFFE"/>
<path transform="translate(0)" d="m0 0h1296v352l-5-5-7-11-7-12-7-11-6-10-8-10-4-6-11-12-10-9-14-10-10-7-13-8-14-8-17-7-11-4-12-5-32-8-20-3-16-2-15-1-6-2-49-1-9-1-3-2h-57l-2 2-12 1-27 1-5 2-23 2-6 2-21 2-20 5-32 9-13 3-21 7-49 20-15 6-16 8-17 9-8 5-31 16-27 18-9 8-6 3-20 14-6 4-12 11-6 3-8 8-8 7-10 7-16 15-7 4-15 15h-2v2h-2v2h-2l-2 4-39 39-5 8-15 16-5 8-6 7h-2l-2 4-9 9-5 8-14 15-7 11-7 10-8 10-4 6-8 10-7 11-8 11-6 8-10 15-5 7-6 11-9 14-10 15-6 10-12 19-5 7-8 16-18 32-9 17-8 13-57 114-11 26-6 14-8 18-7 15-7 17-6 14-8 19-4 10-8 21-11 27-6 18-14 34-10 30-4 9-14 41-10 29-3 3z" fill="#1D1ED6"/>
<path transform="translate(1293,768)" d="m0 0h3v1248h-1296v-320l4 2 4 8 8 13 7 11 8 14 11 12 6 9 13 13 8 5 10 9 17 10 8 5 16 8 23 10 19 6 25 6 27 4 3 1 38 2 8 1 4 2h52l2-2 10-1 44-1 16-1 2-1 26-3 12-2 16-2 12-2 18-2 34-8 30-7 25-6 14-4 24-9 21-7 19-7 15-6 14-5 26-13 17-9 23-11 20-11 18-12 14-8 10-7 11-7 9-6 10-7 8-6 11-10 8-5 11-11 9-6 8-7 10-8 6-4 44-44 6-10 26-26 6-10 14-14 6-10 10-10 6-10 7-8 6-9 7-11 12-18 7-10 6-9 7-11 4-5 12-21 9-19 11-19 8-14 9-19 10-19 11-23 7-18 6-13 16-36 9-23 13-38 9-23 14-43 3-9 5-19 3-9 5-19 3-9 2-10 6-18 5-19 3-9 2-14 2-5 2-11 2-6 2-14 2-5 2-11 2-6 2-14 2-5 2-11 2-6 2-13 2-7 2-18 2-5 2-15 2-4z" fill="#1D1ED6"/>
<path transform="translate(643,688)" d="m0 0h71l37 9 19 7 17 9 9 6 10 8 20 20 7 10 11 22 5 13 3 9 3 13 4 15 1 3 1 16 3 7v31l-3 4-1 21-5 16-5 10-3 10-9 17-8 13-11 18-9 10-3 6-12 13-6 9-9 10-7 8-4 6-4 5h-2l-2 4-75 75-9 7-8 6-83 83-7 14-3 5h287l1 45v30l-1 1-198 1-3 3h-186l-8-1v-9l3-11 1-14 3-10 2-14 3-9 6-13 7-14 6-8 6-9 7-11 7-8 6-9 7-11 3-4 4-7 70-70 11-9 6-4 35-35 10-8 8-6 28-28 4-8 16-16 2-6h2l2-4 22-22 4-9 10-21 3-8 7-16 2-7 2-5v-57l-6-12-4-12-7-14-7-8-8-7-9-6-8-7-18-8-12-4h-58l-3 2-13 4-16 9-11 8-21 21-9 17-4 9-1 10-3 6-1 22-3 5-1 13-1 1h-13l-11-3-30-2-3-2-17-2-1-1v-16l3-12 1-13 5-13 3-8 6-17 4-8 4-12 6-10 6-9 7-8 27-27 9-6 19-10 11-5 15-5 7-3 18-2 1-1z" fill="#1D1ED6"/>
<path transform="translate(1152,1752)" d="m0 0h31l12 4 9 5 10 9 7 14 3 16v18l-3 12-9 16-13 16-9 10-22 22-8 7-18 18-4 5-1 3h86l1 1v21l-1 1-75 2h-43l-1-1v-8l4-15 10-16 9-11 9-10 17-16 8-7 14-13 9-11 8-10 6-12 2-7v-18l-4-9-6-8-9-5-11-2-14 1-9 5-8 7-4 8-4 18-15-1-7-2-1-5 5-18 5-10 9-10 8-7 10-5z" fill="#FEFFFE"/>
<path transform="translate(124,72)" d="m0 0h30l13 4 9 5 10 9 7 14 3 15v19l-3 12-9 16-13 16-9 10-22 22-8 7-19 19-4 7h86l1 1v21l-1 1-75 2h-44v-9l4-15 6-10 12-16 11-12 15-14 10-9 12-11 7-8 11-14 7-15 1-4v-18l-4-9-6-8-9-5-11-2-14 1-9 5-8 7-4 8-4 18-15-1-7-2-1-5 5-18 5-10 9-10 8-7 13-6z" fill="#FEFFFE"/>
</svg>
