<?xml version="1.0" encoding="UTF-8"?>
<svg version="1.1" viewBox="0 0 1296 2016" width="324" height="504" xmlns="http://www.w3.org/2000/svg">
<path transform="translate(0)" d="m0 0h1296v2016h-1296z" fill="#FEFEFD"/>
<path transform="translate(0)" d="m0 0h1296v352l-4-4-9-14-18-30-9-11-3-5-9-10-9-9-14-10-9-7-10-7-12-6-9-6-9-3-11-5-17-7-35-9-35-5-16-1-4-2-61-2-2-2h-58l-2 2-40 2-5 2-23 2-5 2-22 2-31 8-5 2-21 5-22 7-16 6-27 11-25 10-25 12-20 12-22 11-13 8-11 7-10 7-10 8-9 6-11 7-10 7-12 11-8 5-12 11-6 5-6 4-12 11-6 5-6 4-3 3h-2v2l-8 7-45 45-12 16-13 14-4 7-13 13-8 10-6 8-8 8-7 10-10 15-8 10-12 16-10 15-10 13-10 15-8 13-12 19-15 23-9 15-8 12-6 10-8 16-12 20-8 16-12 20-11 23-9 17-11 23-9 17-11 23-8 16-6 16-6 12-5 13-11 23-6 16-6 12-5 13-8 18-7 20-5 11-5 14-12 32-12 30-6 18-6 16-4 11-16 46-6 17h-2z" fill="#1E1ED6"/>
<path transform="translate(1294,768)" d="m0 0h2v1248h-1296v-320l3 1 7 12 10 17 6 10 6 9 10 11 5 8 7 8 9 7 6 4 11 10 10 6 7 4 10 6 21 10 20 8 17 5 24 6 25 3 2 1 11 1 36 2 2 2h54l2-2 14-1 44-1 13-1 2-1 25-3 20-3 30-4 13-2 46-11 31-7 22-6 13-5 22-8 21-7 12-5 17-6 25-12 56-28 12-7 18-12 14-8 18-12 10-7 18-12 12-11 8-5 6-5 5-5 7-6 6-4 12-11 8-5 46-46 3-6 7-8 22-22 3-6 7-8 5-5 6-7 3-5 6-7h2l2-4 3-5 9-11 3-4 4-7 7-10 34-51 7-10 12-23 14-27 6-9 28-56 8-18 18-42 9-19 9-23 12-36 11-29 14-43 7-24 3-10 3-11 5-16 3-12 5-16 3-12 3-11 2-5 2-15 2-3 2-12 3-12 1-9 2-4 2-11 3-12 1-9 2-4 2-11 3-13 3-14 2-17 2-6 2-15h2l2-24z" fill="#1E1ED6"/>
<path transform="translate(750,692)" d="m0 0h85v668h-103l-23-1-1-2-1-510-13 4-50 25-24 10-27 13-36 12-13 3-28 9-22 6-18 6-15 4-4 1-1-1v-86l10-4 26-6 29-10 12-5 20-7 11-5 11-4 48-24 11-7 10-7 11-7 18-12 10-7 18-12 12-11 8-5 14-14 5-4 5-5z" fill="#1E1ED6"/>
<path transform="translate(1171,1743)" d="m0 0 20 1 1 1v190l-1 1h-38l-1-22v-57l1-68-30 13-33 11-9 2-1-1v-22l8-3 22-8 25-12 12-8 13-10 8-7z" fill="#FEFEFD"/>
<path transform="translate(156,72)" d="m0 0h23l1 1v190l-1 1h-37l-1-1-1-22v-54l1-70-25 11-22 8-23 7-3-1v-22l8-3 22-8 25-12 12-8 13-10z" fill="#FEFEFD"/>
</svg>
