<?xml version="1.0" encoding="UTF-8"?>
<svg version="1.1" viewBox="0 0 1296 2016" width="324" height="504" xmlns="http://www.w3.org/2000/svg">
<path transform="translate(0)" d="m0 0h1296v2016h-1296z" fill="#FEFFFE"/>
<path transform="translate(0)" d="m0 0h1296v352l-4-3-4-7-16-26-7-12-9-11-3-5-9-10-9-9-14-10-9-7-10-7-12-6-7-5-11-4-11-5-17-7-35-9-35-5-16-1-4-2-61-2-2-2h-58l-2 2-40 2-5 2-23 2-5 2-22 2-31 8-5 2-21 5-22 7-16 6-27 11-25 10-25 12-20 12-22 11-13 8-11 7-11 8-9 7-9 6-11 7-11 8-10 9-9 6-12 11-6 5-6 4-3 3h-2v2l-8 7-5 4-6 4-3 3h-2v2l-8 7-39 39-7 8-4 4-4 7-9 9-7 9-6 8-11 11-7 8-4 7-9 9-7 9-10 15-10 13-12 16-12 18-8 10-10 15-8 13-12 19-15 23-9 15-11 17-13 25-8 13-12 23-8 13-62 124-5 14-6 12-5 13-12 26-7 17-5 11-7 17-5 11-7 20-5 11-5 14-4 10-6 17-5 11-5 14-6 16-7 21-6 14-12 36-10 29-1 2h-2z" fill="#1E1ED5"/>
<path transform="translate(1294,768)" d="m0 0h2v1248h-1296v-320l3 1 7 12 10 17 8 13 4 6 10 11 5 8 7 8 9 7 6 4 11 10 10 6 7 4 10 6 21 10 20 8 17 5 24 6 25 3 2 1 11 1 36 2 2 2h54l2-2 14-1 44-1 13-1 2-1 25-3 20-3 43-6 46-11 31-7 22-6 13-5 22-8 21-7 12-5 17-6 25-12 56-28 12-7 18-12 14-8 18-12 10-7 18-12 12-11 8-5 4-4h2l2-4 10-8 6-4 12-11 8-5 46-46 3-6 5-5 9-10 15-15 3-6 11-12 6-6 3-6 5-5 2-3h2l2-4 3-5 9-11 7-11 7-10 40-60 6-10 16-32 9-15 10-19 20-40 8-18 18-42 9-19 9-23 12-36 11-29 14-43 7-24 3-10 4-15 4-12 3-12 5-16 3-12 3-11 2-5 2-15 2-3 2-12 3-12 1-9 2-4 2-11 2-6 2-15 2-5 5-23 3-14 2-17 2-6 2-15h2l2-24z" fill="#1E1ED5"/>
<path transform="translate(904,636)" d="m0 0h4v65l-2 7-1 1-1 141-4 2v71h-3l-19-19-10-8-8-6-12-11-7-8-4-2-4 5-8 7-8 10-4 6-13 13-3 4h-2l-2 4h-2l-2 4h-2l-2 4-20 20-3 6-10 10-7 8h-2l-1 3-5 5h-2l-2 4-20 20-3 6-10 10-3 4h-2l-2 4-4 4h-2l-2 4h-2l-2 4-12 12h-2l-2 4-4 4-3 6-9 10h-2l-2 4h-2l-2 4h-2l-2 4h-2l-1 3-6 5-3 4h-2l-2 4-4 4h-2l-2 4-4 4-3 6-23 23-4-1-9-17-6-8-7-14-3-11-2-5-2-7-2-5-1-22-3-4v-27l3-10 1-14 5-17 7-7 4-7 5-7 6-5 7-8 5-8 6-7 10-10 3-6 7-8 4-4h2l2-4 6-6 3-6 8-9h2l2-4 5-5 3-6 7-8 14-14 3-6 3-4h2l2-4 10-10 3-6 8-9h2l2-4 5-5 3-7 9-8-1-3-11-7-11-9-11-8-5-4-13-10-11-8-4-3 1-3 20-7 21-8 41-14 24-9 47-16 15-6 30-10 21-8z" fill="#1E1ED5"/>
<path transform="translate(786,956)" d="m0 0h5l9 11 10 21 6 12 2 12 2 3 2 9 2 5 1 17 3 5v20l-2 5-1 1-1 13-3 4-1 11-3 5-2 9-6 10-8 10-4 6-9 9-1 2h-2v2h-2l-2 4-4 4-4 7-17 17-3 4h-2l-2 4-4 4-4 7-13 13-3 4h-2l-2 4-4 4-4 7-17 17-3 4h-2l-2 4-4 4-4 7-25 25-4 7-7 9 1 6 7 6 8 5 10 8 6 4 8 7 8 5 8 7 10 6 1 3-20 7-11 5-36 12-35 13-20 7-21 8-23 8-21 8-30 10-28 11-3-1v-69l3-2 1-142 3-2 1-72 4 2 10 10 8 7 4 4 5 2 15 15 7 6 7 8 3 1 9-10 39-39 3-6 6-7 7-6 2-3h2l2-4 14-14 3-6 7-8 22-22 3-6 7-8 4-4h2l2-4 18-18 3-6 7-8 22-22 3-6 7-8 6-5 7-8 9-9 3-6 9-9 6-7 7-6 5-6z" fill="#1E1ED5"/>
<path transform="translate(1228,1719)" d="m0 0 4 1v24l-1 44v20h-3l-16-14-4-1-2 4-9 10-12 13-7 8-15 16-9 10-7 8-8 8-7 8h-4l-7-15-3-15v-8l2-10 7-10 12-14 8-10 12-14 7-9 8-10-5-4-14-10 1-4 41-15 28-10z" fill="#FEFFFE"/>
<path transform="translate(204,47)" d="m0 0 4 1v25l-1 43v20l-5-1-5-5-9-8-4-1-2 4-9 10-12 13-7 8-15 16-9 10-7 8-8 8-7 8h-4l-7-15-3-15v-8l2-10 7-10 12-14 8-10 12-14 7-9 8-10-5-4-14-10 1-4 41-15z" fill="#FEFFFE"/>
<path transform="translate(171,147)" d="m0 0 4 4 5 12 3 11 1 9-4 15-6 9-9 11-9 10-9 11-12 13-7 8-1 5 18 13v4l-38 14-30 11-9 1v-18l1-4 1-17 2-50 4 2 13 12 5-1 11-11 9-11 12-13 7-8 9-10 12-14 11-12 4-5z" fill="#FEFFFE"/>
<path transform="translate(1195,1819)" d="m0 0 4 4 5 12 3 11 1 9-4 15-6 9-9 11-9 10-9 11-12 13-7 9h-2l2 5 17 12v4l-38 14-30 11-9 1v-19l1-3 1-13 1-35 1-19 4 2 13 12 5-1 11-11 9-11 12-13 7-8 10-11 9-11 8-8 9-11z" fill="#FEFFFE"/>
</svg>
