<?xml version="1.0" encoding="UTF-8"?>
<svg version="1.1" viewBox="0 0 1296 2016" width="324" height="504" xmlns="http://www.w3.org/2000/svg">
<path transform="translate(0)" d="m0 0h1296v2016h-1296z" fill="#FEFEFE"/>
<path transform="translate(0)" d="m0 0h1296v352l-5-5-7-11-7-12-6-9-6-11-9-11-4-6-11-12-11-10-9-6-8-6-14-9-14-8-8-4-19-8-13-5-10-3-27-7-20-3-15-2-16-1-5-2-49-1-10-1-3-2h-57l-2 2-12 1-27 1-5 2-23 2-6 2-21 2-24 6-28 8-13 3-21 7-49 20-15 6-16 8-17 9-4 3-14 7-19 10-16 10-10 7-10 8-11 7-11 8-11 7-13 12-6 3-8 8-8 7-10 7-16 15-7 4-13 13h-2v2h-2v2h-2v2h-2l-2 4-39 39-5 8-15 16-5 8-6 7h-2l-2 4-9 9-5 8-14 15-7 11-7 10-8 10-4 6-8 10-12 18-8 10-7 11-9 13-6 11-9 14-10 15-6 10-10 16-7 10-8 16-9 16-6 10-12 23-8 13-57 114-5 12-8 19-5 12-11 24-5 12-7 16-4 9-8 19-4 10-8 21-11 27-6 18-14 34-10 30-4 9-14 41-10 29-1 2h-2z" fill="#1E1ED6"/>
<path transform="translate(1293,768)" d="m0 0h3v1248h-1296v-320l4 2 4 8 24 39 10 11 6 9 13 13 8 5 10 9 17 10 8 5 15 8 27 11 20 6 26 6 22 3 3 1 37 2 9 1 4 2h52l2-2 10-1 44-1 16-1 2-1 26-3 12-2 16-2 12-2 18-2 34-8 30-7 25-6 14-4 24-9 21-7 19-7 15-6 14-5 34-17 17-9 16-8 19-10 18-12 14-8 10-7 11-7 9-6 10-7 8-6 4-2 2-4 9-6 8-7 7-7 9-6 8-7 10-8 6-4 44-44 6-10 26-26 6-10 14-14 6-10 10-10 6-10 7-8 6-9 7-11 12-18 7-10 6-9 7-11 4-5 4-7 3-4 16-32 9-16 8-14 9-19 10-19 11-23 7-18 6-13 16-36 9-23 13-38 9-23 14-43 3-9 5-19 3-9 5-19 3-9 5-19 3-9 5-19 3-9 2-14 2-5 2-11 2-6 2-14 2-5 2-11 2-6 2-14 2-5 2-11 2-6 2-13 2-7 2-18 2-5 2-15 2-4z" fill="#1E1ED6"/>
<path transform="translate(659,688)" d="m0 0h48l1 3 25 1 14 7 10 4 30 10 8 4 12 11 9 9 8 5 6 5 6 8 4 6 10 11 10 19 5 13 7 20 2 11 2 4v36l-3 9-1 10-3 6-2 7-4 12-8 16-7 10-8 10-7 8-3 5-4 5-9 7-11 6-9 6-4 2v4l17 9 13 6 32 16 10 9 4 7 7 10 9 16 6 10 5 11 4 12 2 11 2 5 1 17 3 6v55l-3 7-2 14-16 32-9 17-10 15-7 10-4 5h-2l-2 4-16 16h-2l-2 4-8 6-11 8-3 3-16 8-28 13-11 2-5 2-11 2-1 1-27 2-9 3h-34l-10-3-26-1-8-3-16-2-2-2-6-2-10-5-10-3-17-9-16-15-10-7-22-22-3-6-9-11-6-9-10-19-7-14-5-16-2-11-2-5-2-15-2-4v-7l3-1 16-1 11-3 33-2 5-2h19l4 10 5 19 6 26 8 17 6 9 17 17 6 3 8 8 8 6 9 4 7 2 6 2 16 1 7 3h32l5-2 19-3 5-2 10-2 17-9 9-8 8-5 6-6 4-8 6-6h2l2-4 3-5 7-10 8-17 4-12 2-11 2-5v-39l-3-3-1-18-5-12-9-16-9-10-4-4-2-5-2-4-4-2-6-6-7-4-9-8-18-8-11-2-5-2-19-2-5-2h-31l-2 2-5 1h-28l-2-1v-10l3-9 1-23 3-10 1-14 3-1 17-2 1-1 26-3 16-4 4-2 9-2 6-2 9-2 17-9 3-1 2-4h2l2-4 6-6 3-6 3-4h2l8-16 2-7 2-4 2-8 2-5v-23l-3-3-1-29-3-5-4-11-6-9-5-8-5-6-6-5-7-4-5-4-13-5-21-7-15-2-5-2h-19l-2 2-15 2-14 6-11 4-8 5-8 7-6 3-4 4h-2l-2 4-4 5-3 5-5 7-4 8-3 9-4 13-2 9-3 5-1 10-3 5-2 5-1 1h-8l-11-3-22-2-5-2-19-2-3-2-13-2-1-1v-8l3-11 1-14 5-13 6-13 6-15 10-18 4-5 6-9 8-8 12-8 19-19 9-6 22-11 10-3 12-4 8-4 4-1 31-1v-2z" fill="#1E1ED6"/>
<path transform="translate(119,76)" d="m0 0h32l13 4 11 7 9 9 8 16 2 8v10l-4 13-6 11-6 7-8 5-1 2 5 2 14 7 6 8 6 12 4 17v11l-4 13-8 15-11 12-9 7-11 5-8 2-9 1h-13l-17-3-14-7-11-10-9-14-4-10-3-9v-4l20-3h6l7 21 4 5v2h2l5 5 6 3 9 2h11l13-4 8-6 7-9 4-8 2-13-2-12-6-12-5-6-8-5-12-3h-21v-10l1-8 2-2 18-4 9-3 8-7 6-12v-11l-3-12-6-8-8-5-13-3-11 2-10 5-7 8-4 10-3 10-3 1-20-4-2-2 2-10 6-14 8-10 8-7 8-5z" fill="#FEFEFE"/>
<path transform="translate(1147,1756)" d="m0 0h32l13 4 11 7 9 9 8 16 2 8v10l-4 13-6 11-6 7-8 5-1 2 5 2 14 7 6 8 6 12 4 17v11l-4 13-8 15-11 12-9 7-11 5-8 2-10 1h-11l-15-2-14-6-11-9-8-10-7-14-4-12v-4l20-3h6l7 21 4 5v2h2v2l4 2 7 4 9 2h11l13-4 8-6 7-9 4-8 2-13-2-13-6-11-6-7-10-5-9-2h-21v-10l1-8 2-2 18-4 9-3 4-3h2l8-16v-11l-3-12-6-8-8-5-13-3-11 2-10 5-7 8-4 10-3 10-3 1-20-4-2-2 2-10 6-14 8-10 11-9 8-4z" fill="#FEFEFE"/>
</svg>
