<?xml version="1.0" encoding="UTF-8"?>
<svg version="1.1" viewBox="0 0 1296 2016" width="324" height="504" xmlns="http://www.w3.org/2000/svg">
<path transform="translate(0)" d="m0 0h1296v2016h-1296z" fill="#FEFFFE"/>
<path transform="translate(0)" d="m0 0h1296v352l-5-5-7-11-7-12-7-11-6-10-8-10-4-6-11-12-10-9-14-10-10-7-13-8-14-8-17-7-11-4-9-4-24-6-11-3-20-3-16-2-15-1-6-2-49-1-9-1-3-2h-57l-2 2-12 1-27 1-5 2-23 2-6 2-21 2-20 5-16 5-22 5-22 7-31 12-12 5-20 8-20 9-20 11-8 5-31 16-27 18-9 8-6 3-20 14-6 4-12 11-7 4-7 7-8 7-10 7-6 6h-2v2l-8 7-7 4-15 15h-2l-2 4-43 43-5 8-15 16-5 8-6 7h-2l-2 4-9 9-5 8-14 15-7 11-7 10-8 10-4 6-8 10-7 11-8 11-6 8-10 15-5 7-6 11-9 14-10 15-6 10-14 22-6 10-12 23-8 13-12 23-8 13-57 114-11 26-6 14-8 18-7 15-7 17-6 14-8 19-4 10-8 21-11 27-6 18-14 34-10 30-4 9-14 41-10 29-3 3z" fill="#1D1ED6"/>
<path transform="translate(1293,768)" d="m0 0h3v1248h-1296v-320l4 2 4 8 8 13 7 11 8 14 11 12 6 9 13 13 8 5 10 9 17 10 8 5 16 8 23 10 19 6 25 6 19 3 9 1 2 1 38 2 8 1 4 2h52l2-2 10-1 44-1 16-1 2-1 26-3 12-2 16-2 12-2 18-2 34-8 30-7 29-7 16-5 18-7 21-7 19-7 15-6 14-5 26-13 17-9 23-11 20-11 18-12 14-8 10-7 11-7 9-6 13-9 8-7 10-8 6-4 11-11 9-6 8-7 10-8 6-4 44-44 6-10 26-26 6-10 14-14 6-10 10-10 6-10 7-8 6-9 7-11 12-18 7-10 6-9 7-11 4-5 12-21 9-19 11-19 8-14 9-19 10-19 11-23 7-18 6-13 16-36 9-23 13-38 9-23 14-43 3-9 5-19 3-9 5-19 3-9 2-10 6-18 5-19 3-9 2-14 2-5 2-11 2-6 2-14 2-5 2-11 2-6 2-14 2-5 2-11 2-6 2-13 2-7 2-18 2-5 2-15 2-4z" fill="#1D1ED6"/>
<path transform="translate(668,692)" d="m0 0h42l3 2 6 1 16 1 22 7 13 4 9 2 32 16 12 11 9 6 12 11 14 14 7 10 11 23 3 14 4 15 8 24 1 6-1 1-45 1-5 3h-40l-1-1-1-9-3-4-1-12-3-5-3-10-3-6-6-7-2-5-7-7-9-6-9-7-10-7-17-9-10-4h-44l-5 2-23 3-6 2-9 2-11 6-3 3-7 4-9 8-6 3-16 16-2 5-7 7-7 9-16 32-1 11-3 5-1 7-3 5-1 11-3 4-1 12-3 4-1 12-3 3-1 38-3 2-1 27 3-1 7-8 3-3h2l2-4 8-7 8-5 16-16h2l2-4 13-8 17-8 8-2 4-2 10-1 5-3 11-4 26-2 5-2h56l9 3 10 2 24 8 32 16 9 6 11 6 12 11 4 3 5 3 8 7 7 11 21 31 8 17 12 37 1 19 2 5 1 1v58l-3 8-1 12-10 29-5 11-4 11-8 13-9 17-12 14-6 9-5 6h-2l-2 4h-2l-2 4-16 12-9 8-27 14-17 8-11 2-5 2-12 2-5 2-21 1-11 3h-43l-4-1v-2h-11l-16-1-32-8-5-2-16-8-9-4-15-8-10-7-13-10-8-6-11-10v-2h-2l-7-8-5-5-3-6-9-11-20-40-5-12-5-13-3-8-3-9-2-15-2-3-1-20-2-6-1-2-1-47-3-4v-100l3-4 1-40 2-2 1-4 1-19 3-9 2-11 3-9 3-8 5-16 7-16 6-19 10-19 4-5 6-12 6-8 6-9 20-20 9-6 8-7 9-7 14-9 22-12 4-3 8-4 14-4 12-3 11-3 7-2 24-2z" fill="#1D1ED6"/>
<path transform="translate(646 1e3)" d="m0 0h41l10 3 11 2 6 2 10 2 6 2 11 3 14 7 5 4v2l4 2 12 12v2h2l6 8 3 5 8 9 8 16 1 3 1 14 3 5 1 23 3 3v48l-3 8-2 11-3 8-11 23-4 6-8 10-3 5-10 10-5 9-4 5-10 6-13 6-7 2-4 2-8 2-6 2-14 2-3 2h-27l-7-1-5-2-14-2-5-2-10-2-17-8-7-6-6-3-8-7v-2l-7-2-8-8-9-17-5-9-5-8-8-16-2-5-2-11-2-6-2-13-2-8v-45l3-3 1-12 3-5 2-8 8-16 5-9 9-10 3-6 7-7 10-6 5-4 5-3 7-5 5-3 13-8 9-4 12-2z" fill="#FEFFFE"/>
<path transform="translate(1158,1752)" d="m0 0h25l15 4 11 6 10 9 6 9 5 14 1 7-2 1-22 1-3-2-3-10-6-8-9-7-9-3-16 1-10 4-8 6-8 9-5 11-5 20-3 21 5-3 8-8 10-6 11-4 13-2h10l14 3 16 8 12 11 7 11 5 13 2 11v17l-3 12-5 12-8 12-7 8-9 6-8 4-13 3h-26l-16-4-13-7-13-12-8-14-5-13-3-15-2-23v-21l3-27 5-17 5-11 6-10 9-10 12-9 13-6z" fill="#FEFFFE"/>
<path transform="translate(135,76)" d="m0 0h23l16 4 11 6 10 9 6 9 5 14 1 7-2 1-22 1-3-3-4-10-4-6-7-6-8-4-4-1-16 1-10 4-8 6-8 9-5 11-5 20-3 21 5-3 8-8 10-6 11-4 13-2h10l14 3 16 8 12 11 7 11 5 12 2 12v17l-3 12-5 12-8 12-7 8-9 6-8 4-13 3h-26l-16-4-13-7-13-12-8-14-5-13-3-15-2-23v-21l3-27 5-17 5-11 6-10 9-10 12-9 13-6z" fill="#FEFFFE"/>
<path transform="translate(430,1376)" d="m0 0h481l4 5 1 2v6l-5 6-3 1h-475l-5-2-4-5 1-9z" fill="#1D1ED6"/>
<path transform="translate(135,168)" d="m0 0h14l16 5 8 7 6 8 4 11 1 6v18l-4 12-8 11-8 7-11 4-11 1-13-3-10-6-8-9-6-13-2-7-1-11 2-13 6-12 8-8 10-6z" fill="#1D1ED6"/>
<path transform="translate(1159,1844)" d="m0 0h14l14 4 6 4 7 7 6 12 2 11v17l-4 12-7 10-5 5-8 5-13 3-10-1-10-3-9-6-7-8-6-13-2-7-1-11 2-13 6-12 7-7 11-7z" fill="#1D1ED6"/>
<path transform="translate(173,281)" d="m0 0h16l25 1 1 5-1 1h-143l-2-1v-5z" fill="#FEFFFE"/>
<path transform="translate(1201,1957)" d="m0 0 37 1 1 1v5h-144l-2-1v-5z" fill="#FEFFFE"/>
</svg>
