<?xml version="1.0" encoding="UTF-8"?>
<svg version="1.1" viewBox="0 0 1296 2016" width="324" height="504" xmlns="http://www.w3.org/2000/svg">
<path transform="translate(0)" d="m0 0h1296v2016h-1296z" fill="#FDFEFD"/>
<path transform="translate(0)" d="m0 0h1296v352l-5-5-8-12-6-11-6-9-6-11-9-11-4-6-4-4v-2h-2l-7-8-10-8-13-10-12-8-19-11-5-3-13-5-10-4-14-6-36-9-17-2-7-2-26-2-1-1-10-1-49-1-7-3h-56l-3 2-11 1-28 1-5 2-23 2-6 2-21 2-20 5-16 5-21 5-20 6-19 7-12 5-29 12-15 6-28 14-9 6-33 17-10 7-9 6-13 9-4 4-6 3-6 5-7 4-10 7-8 7-9 7-6 4-10 10-8 6-6 4-9 9-9 7-6 4-61 61-5 8-11 12-6 8-7 8-9 10-7 8-4 6-14 15-7 11-7 10-8 10-4 6-8 10-7 11-8 11-6 8-10 15-8 13-11 18-7 10-11 18-13 20-9 16-9 17-6 10-12 23-7 11-14 27-46 92-6 15-10 22-5 13-11 23-7 17-6 14-8 19-4 10-8 22-3 6-5 14-3 6-7 21-5 11-5 14-3 6-11 33-4 8-14 43-7 20-3 7-2 1z" fill="#1D1DD5"/>
<path transform="translate(1293,768)" d="m0 0h3v1248h-1296v-321l4 3 3 6 5 7 6 11 6 9 6 11 7 8 8 11 7 8 8 8 9 6 10 9 17 10 13 8 22 10 24 9 32 8 20 3 10 2 14 1 30 1 7 3h51l2-2 8-1 43-1 19-1 2-1 26-3 12-2 28-4 18-2 34-8 19-5 20-4 27-7 27-10 21-7 21-8 22-8 23-11 17-9 23-11 19-10 10-6 11-7 9-6 9-5 39-26 10-7 7-7 10-7 8-7 11-10 9-6 11-10 9-6 42-42 7-11 25-25 7-11 14-14 6-10 10-10 6-10 7-8 6-9 7-11 12-18 7-10 6-9 7-11 7-10 9-16 9-19 7-12 4-7 12-22 9-19 9-17 9-20 6-15 6-13 6-15 8-16 8-20 7-20 10-29 6-15 19-57 5-19 3-9 3-12 5-16 3-12 5-16 2-10 6-18 2-14 2-5 2-11 2-6 2-14 2-5 2-11 2-6 2-14 2-6 4-17 2-13 2-7 2-17 2-6 1-11 3-8z" fill="#1D1DD5"/>
<path transform="translate(749,704)" d="m0 0h70l1 1v419h95l1 3v72l-1 1h-94l-1 16v135l-1 1h-85l-2-1-1-150-301-1-2-1v-77l7-9 3-6 8-8 6-10 7-8 6-9 9-9 3-7h2l2-4 6-7 6-9 6-7 2-5h2l2-4 9-9 3-7h2l2-4 6-7 2-5h2l2-4 6-7 2-5h2l2-4 9-9 3-7h2l2-4 6-7 2-5h2l2-4 6-7 2-5h2l2-4 9-9 3-7h2l2-4 6-7 2-5h2l2-4 6-7 2-5h2l2-4 9-9 3-7h2l2-4 6-7 2-5h2l2-4 6-7 4-7 11-11 6-10 7-8 6-9 6-7 6-9 9-9 6-10 7-8 6-9 6-7 6-9h2z" fill="#1D1DD5"/>
<path transform="translate(729,836)" d="m0 0 3 1v286l-1 1h-215l1-4h2l2-4 7-10 7-8 4-7 8-9 4-7 8-9 4-7 8-9 3-6 5-6h2l5-10 5-6h2l5-10 5-6h2l5-10 5-6h2l5-10 5-6h2l5-10 5-6h2l5-10 5-6h2l5-10 9-10 3-6 9-10 3-6 9-10 3-6 9-10 4-7 8-9 3-6 9-11z" fill="#FDFEFD"/>
<path transform="translate(1189,1756)" d="m0 0h19l1 1v125l30 1 1 1v20l-1 1-29 1-1 45-4 1h-21l-1-1v-45h-90l-1-1v-22l10-14 10-13 12-16 14-18 14-19 10-13 14-19 11-14z" fill="#FDFEFD"/>
<path transform="translate(161,80)" d="m0 0h19l1 1v125l30 1 1 1v20l-1 1-29 1-1 45-4 1h-21l-1-1v-45h-89l-2-1v-22l10-14 10-13 12-16 14-18 14-19 10-13 14-19 11-14z" fill="#FDFEFD"/>
<path transform="translate(154,120)" d="m0 0h1v87h-64l2-5 14-19 13-18 16-21 12-17z" fill="#1D1DD5"/>
<path transform="translate(1182,1796)" d="m0 0h1v87h-64l2-5 14-19 13-18 16-21 10-14 7-9z" fill="#1D1DD5"/>
</svg>
