<?xml version="1.0" encoding="UTF-8"?>
<svg version="1.1" viewBox="0 0 1296 2016" width="324" height="504" xmlns="http://www.w3.org/2000/svg">
<path transform="translate(0)" d="m0 0h1296v2016h-1296z" fill="#fff"/>
<path transform="translate(0)" d="m0 0h1296v352l-3-1-6-10-5-8-5-9-5-7-6-12-9-10-6-10-13-13-10-8-5-3-8-7-8-5-13-8-6-3-7-5-8-2-12-6-9-3-11-5-12-2-3-2-13-2-3-2-17-1-5-2-1-1-27-1-5-3-38-1h-20l-5-2-1-1h-58l-2 2-42 2-2 2-26 2-2 2-26 2-2 2-14 2-2 2-10 2-7 3-9 1-7 3-9 1-2 2-10 2-7 3-13 5-14 6-13 5-7 3-13 5-7 3-17 8-16 9-8 5-20 10-16 9-5 4-7 4-5 4-7 4-9 8-7 4-5 4-7 4-5 4-5 3-10 9-5 4-5 3-10 9-9 8-5 3-10 9-9 8-5 3-10 9-48 48-5 6-3 6-12 12-5 6-3 6-13 13-7 8-5 8-11 11-5 6-3 6-5 6-3 6-9 10-3 6-9 10-3 6-5 6-3 6-9 10-3 6-5 6-5 9-3 3-7 14-5 6-5 9-3 3-5 9-5 8-7 12-3 3-5 9-5 8-12 23-7 11-8 15-6 12-6 9-63 126-5 14-7 14-5 14-8 16-4 10-6 14-5 10-5 14-6 12-4 12-6 16-12 30-6 17-5 11-5 14-4 10-9 27-7 17-13 40-5 13-3 10-3 2z"/>
<path transform="translate(1295,767)" d="m0 0h1v1249h-1296v-321l4 4 6 9 6 10 3 6 6 9 6 11 12 13 5 8 14 14 5 2 14 13 14 7 6 5 16 8 11 5 8 3 13 5 13 4 28 7 25 3 1 1 11 1 35 1 3 3h54l2-3 54-1 17-1 2-2 25-2 4-2 13-1 11-1 4-2 16-1 12-1 9-3 9-2 32-8 18-3 5-2 13-3 15-4 11-5 20-6 7-3 18-6 11-5 10-3 9-3 17-8 19-10 48-24 10-6 11-7 8-5 10-6 9-6 10-7 7-4 5-4 7-4 3-3 6-3 7-6 7-7 5-2 6-6h2l2-4 8-7 6-3 8-7 7-7 5-2 11-11 8-7 18-18 7-8 4-4 3-6 22-22 7-8 3-6 12-12 5-6 2-5 10-10 4-5 3-6 9-10 3-6 5-6 3-6 5-6 3-6 5-6 3-6 5-6 3-6 5-6 3-6 5-6 3-6 6-9 18-36 6-10 5-8 31-62 8-20 7-15 3-8 11-24 3-7 8-20 7-21 6-19 5-10 8-24 3-10 3-9 3-7 3-9 3-15 2-3 2-9 2-4 2-12 2-2 2-10 2-4 2-12 2-2 1-9 3-5 2-12 2-2 1-9 2-2 1-4 1-14 1-2h2l1-14 3-5 1-15 1-2h2l1-14 3-4 1-16 1-2h2l1-13 3-7 1-14 2-2 1-4 1-18 3-7 1-13 3-6 2-20z"/>
<path transform="translate(657,688)" d="m0 0h50l3 3 24 1 4 3 5 2 10 5 9 2 5 3 7 1 5 3 8 2 8 4 16 15 8 7 5 3 12 12 3 6 8 8 6 9 9 19 3 9 3 8 4 12 1 9 2 3 1 5v31l-2 8-2 10-6 18-3 10-9 17-5 6-3 6-6 7-7 7-2 5-12 12-14 7-9 6-4 1 1 5 62 31 9 8 4 5 3 6 6 9 6 11 6 9 6 12 3 10 2 6 1 9 2 3 1 5 1 18h2l1 2v53l-3 7-1 14-10 21-9 17-7 14-6 9-7 9-3 6-34 34-11 7-7 6-17 9-16 8-5 2-4 2-11 1-2 2-14 2-2 2-30 2-2 2-7 1h-32l-5-3-30-1-5-2-1-1-15-1-23-11-9-3-16-8-8-7v-2l-4-2v-2l-4-2-9-6-23-23-3-6-9-10-3-6-6-9-14-28-4-12-1-1-2-13-2-4-1-13-3-7-1-7 3-2 22-2 4-2 20-1h16v-2l9-1h14l4 9 3 15 2 7 2 9 1 1 2 12 8 17 6 10 6 7 4 3v2l4 2 5 5 5 2 5 5 10 9 5 2 3 2 8 1 3 3 21 1 3 3h37l4-3 18-1v-2l2-1 13-2 19-10 8-8 5-2 8-8 2-6 8-7 6-7 3-6 5-6 5-11 3-5 1-8 3-3 1-13 3-3v-42l-3-2-1-20-8-17-4-7-7-9-8-8-2-5-4-5-8-7-6-3-5-5-5-4-16-8-13-2-3-2-17-1-5-2-1-1h-34l-2 2-16 1h-17l-2-1v-10l3-8 1-27 3-4 1-17 1-1 19-1v-2l10-1 7-1h11v-2l15-3 3-2 10-2 3-2 12-2 12-6 7-4 10-10 4-7 5-7 5-5 6-12 1-7 2-1 1-9 3-4v-25l-3-2-1-29-3-4-2-10-2-2-2-7h-2l-4-5-2-5-4-5-5-5-9-5-4-3v-2l-7-2-3-2-9-2-2-2-10-2-2-2-14-1-5-2-1-1h-22l-2 2-4 1-14 1-4 3-5 2-6 2-8 3-9 6-7 6-9 6-8 9-3 6-5 6-5 13-6 18-3 10-2 4-2 12-4 8-7 1-7-1-3-2-22-1-5-3-19-1-5-3-13-1-2-1v-10l3-7 1-19 11-22 3-9 8-17 6-10 3-3 2-5 4-5 6-5 7-7 5-2 8-7 6-7 7-6 5-5 19-10 6-3 9-2 3-2 9-2 7-3h2v-2l2-1 34-1z"/>
<path transform="translate(119,76)" d="m0 0h33l10 3 11 6 7 6 6 8 5 10 3 11v11l-4 13-7 12-9 8-5 1 4 4 15 8 7 9 5 10 4 17v14l-5 14-8 14-9 10-13 9-16 5-10 1h-13l-15-2-14-7-12-11-9-14-5-13-3-8v-3l21-2h7l5 19 6 8 8 7 9 3 11 1 14-3 9-5 9-11 4-10 1-5v-12l-2-9-6-10-5-5-5-4-15-4h-12l-7 1-2-1 1-13 2-7 1-1 14-2 12-4 6-4 5-6 3-8v-17l-4-11-8-7-12-4h-13l-10 4-8 7-5 11-4 13-16-2-9-3 1-8 5-14 7-11 10-9 14-7z" fill="#fff"/>
<path transform="translate(1147,1756)" d="m0 0h33l13 4 10 7 5 4 6 8 5 10 3 11v11l-4 13-6 10-7 8-6 3h-2l4 4 15 8 7 9 5 11 4 16v14l-5 14-8 14-8 9-12 9-14 5-14 2h-13l-15-2-14-7-12-11-9-14-5-13-3-8v-3l21-2h7l5 19 6 8 8 7 9 3 11 1 14-3 9-5 9-11 4-10 1-5v-12l-2-9-6-10-5-5-5-4-15-4h-12l-7 1-2-1 1-13 2-7 1-1 14-2 12-4 6-4 6-8 2-6v-17l-3-9-6-7-8-4-7-2h-13l-10 4-8 7-5 11-4 13-16-2-9-3 1-9 6-15 8-11 11-9 11-5z" fill="#fff"/>
</svg>
