<?xml version="1.0" encoding="UTF-8"?>
<svg version="1.1" viewBox="0 0 1296 2016" width="324" height="504" xmlns="http://www.w3.org/2000/svg">
<path transform="translate(0)" d="m0 0h1296v2016h-1296z" fill="#fff"/>
<path transform="translate(0)" d="m0 0h1296v352l-3-1-6-10-5-8-5-9-5-7-6-12-9-10-6-10-13-13-10-8-5-3-8-7-8-5-13-8-6-3-7-5-8-2-12-6-9-3-11-5-12-2-3-2-13-2-3-2-17-1-5-2-1-1-27-1-5-3-38-1h-20l-5-2-1-1h-58l-2 2-42 2-2 2-26 2-2 2-26 2-2 2-14 2-2 2-10 2-7 3-9 1-7 3-9 1-2 2-10 2-7 3-6 2-10 5-10 3-10 5-10 3-10 5-10 3-16 8-18 10-8 5-20 10-16 9-5 4-7 4-5 4-7 4-9 8-7 4-5 4-7 4-5 4-5 3-10 9-5 4-5 3-10 9-9 8-5 3-10 9-9 8-5 3-10 9-48 48-5 6-3 6-12 12-5 6-3 6-13 13-7 8-5 8-11 11-5 6-3 6-5 6-3 6-9 10-3 6-9 10-3 6-5 6-3 6-9 10-3 6-5 6-5 9-3 3-7 14-5 6-5 9-3 3-5 9-5 8-7 12-3 3-5 9-5 8-12 23-7 11-8 15-6 12-6 9-63 126-5 14-7 14-5 14-8 16-4 10-6 14-5 10-5 14-6 12-4 12-6 16-12 30-6 17-5 11-5 14-4 10-9 27-7 17-13 40-5 13-3 10-3 2z"/>
<path transform="translate(1295,767)" d="m0 0h1v1249h-1296v-321l4 4 6 9 6 10 3 6 6 9 6 11 12 13 5 8 14 14 5 2 14 13 14 7 6 5 16 8 11 5 8 3 13 5 13 4 28 7 25 3 1 1 11 1 35 1 3 3h54l2-3 54-1 17-1 2-2 25-2 4-2 13-1 11-1 4-2 16-1 12-1 9-3 9-2 32-8 18-3 5-2 13-3 15-4 11-5 20-6 7-3 18-6 11-5 10-3 9-3 17-8 19-10 48-24 10-6 11-7 8-5 10-6 9-6 10-7 7-4 5-4 7-4 3-3 6-3 7-6 7-7 5-2 6-6h2l2-4 8-7 6-3 8-7 7-7 5-2 11-11 8-7 18-18 7-8 4-4 3-6 22-22 7-8 3-6 12-12 5-6 2-5 10-10 4-5 3-6 9-10 3-6 5-6 3-6 5-6 3-6 5-6 3-6 5-6 3-6 5-6 3-6 5-6 3-6 6-9 18-36 6-10 5-8 31-62 8-20 7-15 3-8 11-24 3-7 8-20 7-21 6-19 5-10 8-24 3-10 3-9 3-7 3-9 3-15 2-3 2-9 2-4 2-12 2-2 2-10 2-4 2-12 2-2 1-9 3-5 2-12 2-2 1-9 2-2 1-4 1-14 1-2h2l1-14 3-5 1-15 1-2h2l1-14 3-4 1-16 1-2h2l1-13 3-7 1-14 2-2 1-4 1-18 3-7 1-13 3-6 2-20z"/>
<path transform="translate(520,720)" d="m0 0h352v79l-1 1-278 1-4 10-2 16-2 5-2 11-2 5-2 15-2 4-2 16-2 4-2 12-2 4-2 16-2 4-2 16-2 3-2 13-3 8 21-10 10-5 9-3 19-9 10-3 10-2 7-3h92l4 3 9 2 10 5 10 3 18 6 13 5 9 5 8 6 5 3 10 9 5 4 5 3 10 9 10 11 3 6 8 9 6 10 3 4 9 19 3 7 4 13 1 12 3 6 1 28h2l1 2v51l-2 8-2 10-6 18-3 10-8 16-9 17-5 6-3 6-17 17-7 8-3 6-28 28-10 6-9 5-5 2-7 2-11 6-5 2-4 2-7 1-2 2-14 2-2 2-10 2-2 2-14 2-2 2-14 1h-62l-10-1-3-2-13-2-9-3-7-1-3-2-9-2-9-3-7-3-9-3-24-12-10-10-2-1v-2l-4-2v-2l-4-2-9-6-23-23-3-6-6-9-7-10-4-7-2-9-3-9-3-7-4-13-2-12-2-3v-12l1-1 23-1 1-3 43-1v-2l9-1h14l4 9 3 11 2 6 2 9 16 32 5 9 6 7 5 5 9 7 15 8 8 4 11 4 10 2 7 2 8 1 5 1 7 2h40l4-3 13-2 16-8 17-9 7-6 7-7 5-2 8-8 3-6 5-6 2-5 4-5 5-5 5-9 1-8 3-3 1-17 3-3 1-21 3-3v-38l-3-2-1-24-6-12-6-10-3-4-6-12-10-11-3-6-6-7-13-8-21-10-8-3-11-4-9-1-2-2h-82l-2 2-11 3-19 10-7 4-10 10-10 6-9 10-3 6-5 5-4 3h-13l-5-3-35-1-4-1-1-2-18-1-5-1v-8l3-5 1-16 3-4 1-16 1-2h2l1-18 1-2h2l1-22 1-2h2l1-18 1-2h2l1-18 1-2h2l1-18 1-2h2l1-18 1-2h2l1-18 1-2h2l1-18 1-2h2l1-18 1-2h2l1-22 1-2h2l1-18 2-2 1-4 1-14 2-2 3-19 2-5z"/>
<path transform="translate(1116,1752)" d="m0 0h108v23l-9 1h-78l-1 10-8 40 4-1 12-6 7-2 8-1h16l12 2 13 5 13 9 7 7 7 11 4 10 1 10v26l-2 12-6 12-8 10-7 8-8 6-12 5-8 2-9 1h-26l-14-2-12-5-11-9-8-9-6-11-3-13v-6l1-1 17-1 9-1 3 8 5 13 5 7 8 5 13 4h18l12-5 10-9 6-9 3-12 1-8v-10l-2-12-6-11-5-6-8-5-9-3-6-1h-18l-8 2-8 5-8 7-4 5-25-3 1-10 16-85z" fill="#fff"/>
<path transform="translate(90,76)" d="m0 0h110l1 1v19l-1 1-88 1-1 9-8 38v3l16-8 14-3h19l14 3 14 6 13 10 9 11 5 12 1 9v28l-2 11-6 12-8 10-10 10-8 5-13 5-9 2-10 1h-19l-12-2-16-7-13-10-9-11-4-11-1-7v-8l1-1 16-1 9-1 6 17 6 9 8 6 12 4 6 1h12l12-4 10-7 7-9 4-9 2-12v-14l-3-12-6-9-2-4-14-7-8-2h-26l-12 6-8 7-5 5-21-2-4-2 8-43 11-55z" fill="#fff"/>
</svg>
