<?xml version="1.0" encoding="UTF-8"?>
<svg version="1.1" viewBox="0 0 1296 2016" width="324" height="504" xmlns="http://www.w3.org/2000/svg">
<path transform="translate(0)" d="m0 0h1296v2016h-1296z" fill="#FEFEFE"/>
<path transform="translate(0)" d="m0 0h1296v353l-5-5-6-9-9-16-4-5-6-12-10-12-4-7-21-21-10-6-8-7-9-6-18-10-3-3-9-2-5-3-9-4-7-2-10-5-13-2-2-2-14-2-2-1v-2l-22-1-2-1v-2l-31-1-1-3-62-1-3-3h-58l-3 3-36 1-7 2-2 1-18 1-7 1-5 2-17 1-7 2-16 4-11 3-4 2-12 2-4 2-12 2-3 2-9 2-3 2-8 2-12 6-8 2-12 6-8 2-12 6-10 3-16 8-15 8-9 6-28 14-10 6-10 7-12 8-10 8-9 6-11 7-3 3-7 4-7 7-9 6-8 7-7 7-6 5-7 4-11 11-6 5-6 3-62 62-3 6-11 12-7 8-3 5-9 10-11 11-3 6-11 12-7 8-4 7-4 5-4 7-7 7-3 6-10 12-4 7-4 5-4 7-7 7-3 6-6 8-4 7-4 5-6 12-6 8-4 7-4 5-4 7-4 5-6 12-6 8-4 7-4 5-9 19-8 13-4 7-12 23-7 10-9 19-10 19-40 80-5 11-5 14-7 14-5 14-8 16-4 10-5 12-6 12-5 14-6 12-8 23-14 35-6 17-14 35-9 27-7 17-21 63-3 2z"/>
<path transform="translate(1294,767)" d="m0 0h2v1249h-1296v-321l5 5 4 6 4 7 7 12 8 13 5 8 8 8 7 11 12 12 9 5 11 11 17 9 5 4 17 9 10 4 6 2 11 5 10 3 18 5 25 5 13 1 6 2 45 2 1 2 14 1h42v-3l71-2 2-2 26-2 2-2 26-2 3-2 26-2 10-3 10-2 7-2 9-2 7-2 9-2 10-2 17-4 9-2 15-4 9-4 45-15 11-5 12-4 13-5 25-12 54-27 22-14 6-4 11-6 39-26 5-4 7-4 9-9h2v-2l7-3 17-17 7-3 13-13 7-3 46-46 3-7 29-29 3-7 17-17 3-7 13-13 4-8 8-8 4-8 5-6 2-5h2l6-12h2l6-12h2l2-4 6-10 4-5 4-7 4-5 4-7 5-8 16-32 8-13 10-19 8-16 8-15 11-23 5-13 9-20 5-13 8-16 6-15 5-12 4-12 2-7 2-5 2-7 2-5 2-6 6-14 2-7 2-5 2-7 2-5 2-7 2-5 2-7 2-5 2-7 2-4 1-11 3-5 2-8 2-5 1-10 3-5 2-8 2-5 1-10 3-5 1-7 2-2 2-14 3-5 2-8 2-5 1-14 2-2 2-14 2-2 2-18 2-2 2-14 2-2 2-18 2-2 2-13 2-3 2-18 2-2 2-22 2-2 1-14 2-5 1-1 2-22z"/>
<path transform="translate(766,691)" d="m0 0h40l30 1v668h-128l-1-511-2-1-10 3-58 29-10 3-34 17-10 3-9 2-5 3-7 1-6 3-11 2-5 2-8 2-9 3-7 3-11 2-12 4-17 6-11 2-4 2h-5v-88l10-4 21-5 9-2 6-2 17-6 9-4 12-4 26-10 20-9 34-17 10-6 69-46 16-14 5-2 29-29z"/>
<path transform="translate(1167,1744)" d="m0 0h24l1 1v190l-37 1-2-1-1-146-27 12-24 8-16 5h-5v-22l9-3 21-8 18-8 15-9 16-12 3-3h2l2-4z" fill="#FEFEFE"/>
<path transform="translate(155,72)" d="m0 0h24l1 1v190l-37 1-2-1-1-146-27 12-24 8-16 5h-5v-22l9-3 21-8 18-8 14-8 17-13 5-5z" fill="#FEFEFE"/>
</svg>
