<?xml version="1.0" encoding="UTF-8"?>
<svg version="1.1" viewBox="0 0 1296 2016" width="324" height="504" xmlns="http://www.w3.org/2000/svg">
<path transform="translate(0)" d="m0 0h1296v2016h-1296z" fill="#FEFEFE"/>
<path transform="translate(0)" d="m0 0h1296v352l-3-1-6-10-5-8-5-9-6-9-6-11-9-11-6-9-12-12-10-8-5-3-8-7-8-5-13-8-6-3-7-5-8-2-12-6-9-3-11-5-12-2-3-2-13-2-3-2-17-1-5-2-1-1-27-1-5-3-38-1h-20l-5-2-1-1h-58l-2 2-42 2-2 2-26 2-2 2-26 2-2 2-14 2-2 2-10 2-7 3-9 1-7 3-9 1-2 2-10 2-7 3-13 5-14 6-13 5-7 3-13 5-7 3-17 8-16 9-8 5-20 10-16 9-5 4-7 4-5 4-7 4-9 8-7 4-5 4-7 4-5 4-5 3-10 9-5 4-5 3-10 9-9 8-5 3-10 9-9 8-5 3-10 9-45 45-7 8-5 8-11 11-5 6-3 6-13 13-7 8-5 8-11 11-5 6-3 6-5 6-3 6-9 10-3 6-9 10-3 6-5 6-3 6-9 10-3 6-5 6-3 6-5 6-7 14-5 6-5 9-3 3-5 9-5 8-7 12-3 3-5 9-5 8-12 23-7 11-8 15-6 12-6 9-63 126-5 14-7 14-5 14-8 16-4 10-6 14-5 10-5 14-6 12-4 12-6 16-12 30-6 17-5 11-5 14-4 10-9 27-7 17-13 40-5 13-3 10-3 2z"/>
<path transform="translate(1295,767)" d="m0 0h1v1249h-1296v-321l4 4 6 9 6 10 3 6 6 9 6 11 12 13 5 8 14 14 5 2 14 13 14 7 6 5 16 8 11 5 8 3 13 5 13 4 28 7 25 3 1 1 11 1 35 1 3 3h54l2-3 54-1 17-1 2-2 25-2 4-2 13-1 11-1 4-2 16-1 12-1 9-3 9-2 32-8 18-3 5-2 13-3 15-4 11-5 20-6 7-3 18-6 11-5 10-3 9-3 17-8 19-10 48-24 10-6 11-7 8-5 10-6 9-6 10-7 7-4 5-4 7-4 3-3 6-3 7-6 7-7 5-2 10-10 8-7 6-3 8-7 7-7 5-2 11-11 8-7 18-18 7-8 4-4 3-6 18-18 7-8 4-4 2-5 13-13 5-6 2-5 11-11 4-7 9-11 3-5 7-9 3-6 5-6 3-6 5-6 3-6 5-6 3-6 5-6 3-6 5-6 3-6 6-9 18-36 6-10 5-8 31-62 8-20 7-15 3-8 11-24 3-7 4-10 4-11 3-7 5-17 5-15 5-10 8-24 3-10 3-9 3-7 3-9 3-15 2-3 2-9 2-4 2-12 2-2 2-10 2-4 2-12 2-2 1-9 3-5 1-11 3-3 1-9 2-2 1-4 1-14 1-2h2l1-14 3-5 1-15 1-2h2l1-14 3-4 1-16 1-2h2l1-13 3-7 1-14 2-2 1-4 1-18 3-7 1-14 2-2 2-16 1-7z"/>
<path transform="translate(657,688)" d="m0 0h37l2 2 10 1 12 1 4 3 7 3 4 1 12 4 9 1 4 3 13 6 32 16 8 6 7 4 5 2 9 8 7 8 5 8 12 13 3 6 8 9 6 10 3 4 9 19 3 7 4 13 2 9 2 7 2 10 1 1 2 17 2 3 1 9 1 21 3 3 1 53 3 3v72l-3 4-1 56-2 6-1 2-1 21-3 8-2 16-6 16-2 12-3 8-4 10-16 32-6 11-6 9-7 9-3 6-9 10-2 5-10 11-2 5-12 12-14 7-10 9-6 3-8 6-5 2-3 2-8 1-4 3-8 1-2 2-14 2-2 2-14 2-2 2-4 1-14 1-2 2-5 1h-50l-4-1-1-2-15-2v-2l-16-2v-2l-11-2-3-2-13-2-4-2-8-2-17-9-5-5-10-8-6-4-9-9-6-5-8-10-8-15-11-23-4-12-2-10-12-36 2-1 19-2 3-2 37-1v-2l9-1h15l2 12 2 6 1 11 8 17 9 17 5 6 8 4 7 7 4 3 5 2 7 6 5 2 3 2 8 1 3 3 9 1 3 3h55l5-2 1-1 10-2 2-2 9-2 24-12 10-9 15-15 4-7 6-11 5-6 8-16 2-9 7-14 3-5 2-10 2-1 1-5v-8l3-3 1-13 3-3 1-14 3-2 1-14 3-2 1-60-8 7-33 33-6 3-10 9-8 4-5 4-10 5-8 2-12 6-7 1-2 2-30 2-1 2-7 1h-52l-5-1-1-2-15-1-14-7-9-2-3-2-9-2-19-10-6-3-9-8-8-5-15-15-3-6-9-10-4-4-3-6-9-10-11-23-5-10-3-9-5-12-2-11-2-3-2-13-2-3v-52l1-2h2l1-30 3-3 1-25 1-2h2l1-13 8-16 6-11 3-4h2l2-4 2-2 2-5 4-5h2l2-4 2-2 2-5 4-5 8-7 6-7 2-5 4-5 6-5 2-3h2l2-4 5-4 32-16 13-5 12-4 8-1 4-2 20-2 3-2 22-1z"/>
<path transform="translate(677,759)" d="m0 0h18l20 1 5 3 9 3 16 8 10 6 1 3 4 2 8 5 4 3v2l4 2 4 5 2 5 9 10 9 18 1 7 3 5 1 11 3 5 1 11 3 4v17l4 2v25l-1 2h-2l-1 27-3 3-1 13-3 3-1 9-3 1-1 10-5 9-6 8-3 5-3 4h-2l-2 4-8 8h-2l-2 4-8 7-19 9-7 2-6 2-9 1-2 2-18 2-4 3h-25l-6-2-5-1-14-2-4-2-11-2-26-13-5-5-5-2-7-6-7-3-7-8-3-6-5-6-8-17-3-9-5-11-2-20-2-3v-64l3-4 1-12 11-21 6-12 6-8 3-5 9-11 3-5 8-9 11-7 5-4 16-8 17-8 9-3 1-1z" fill="#FEFEFE"/>
<path transform="translate(129,80)" d="m0 0h19l13 3 16 8 10 7 10 12 7 14 3 11 2 15 1 14v26l-1 17-4 20-7 17-8 12-9 11-14 9-11 4-16 3h-11l-17-4-12-5-8-6-7-8-5-11-4-12v-5l18-2 5-1 2 2 4 13 6 8 10 6 7 2h16l12-4 8-6 7-10 7-17 5-23 1-12-16 14-12 6-12 3h-23l-15-5-10-6-10-10-8-13-5-13-1-4v-21l3-17 6-12 8-10 8-9 16-8z" fill="#FEFEFE"/>
<path transform="translate(1153,1752)" d="m0 0h19l13 3 16 8 10 7 10 12 7 14 3 11 2 15 1 14v26l-1 17-4 20-7 17-8 12-9 11-14 9-11 4-16 3h-11l-17-4-12-5-8-6-7-8-5-11-4-12v-5l18-2 5-1 2 2 4 13 6 8 10 6 7 2h16l12-4 8-6 4-5 8-16 5-18 2-11 1-12-16 14-12 6-12 3h-23l-15-5-10-6-10-10-8-13-5-13-1-4v-21l3-17 6-12 8-10 8-9 16-8z" fill="#FEFEFE"/>
<path transform="translate(445,1384)" d="m0 0h472l5 3 2 5-1 7-3 4-6 1h-466l-5-2-3-5v-7z"/>
<path transform="translate(1161,1772)" d="m0 0h8l12 3 8 5 5 4 6 10 4 13 1 6-1 16-4 13-6 8-7 6-10 4-4 1h-17l-11-4-10-6-6-7-4-10-2-12 1-16 5-12 7-10 8-6 8-4z"/>
<path transform="translate(137,100)" d="m0 0h8l12 3 8 5 5 4 6 10 4 13 1 6-1 16-4 13-6 8-7 6-10 4-4 1h-17l-11-4-10-6-6-7-4-10-2-12 1-16 5-12 7-10 8-6 8-4z"/>
<path transform="translate(1093,1958)" d="m0 0h142l1 5-1 1h-142l-1-5z" fill="#FEFEFE"/>
<path transform="translate(69,286)" d="m0 0h142l1 5-1 1h-142l-1-5z" fill="#FEFEFE"/>
</svg>
