<?xml version="1.0" encoding="UTF-8"?>
<svg version="1.1" viewBox="0 0 1296 2016" width="324" height="504" xmlns="http://www.w3.org/2000/svg">
<path transform="translate(0)" d="m0 0h1296v2016h-1296z" fill="#FEFEFE"/>
<path transform="translate(0)" d="m0 0h1296v352l-3-1-6-10-5-8-8-13-6-10-4-7-8-9-3-6-5-5v-2h-2v-2h-2l-4-4v-2l-4-2v-2l-4-2-9-6-8-7-10-6-9-6-8-4-7-5-8-2-12-6-9-3-8-4-15-3-4-2-12-2-4-2-17-1-5-3-29-1-3-3-59-1-5-3h-58l-2 2-12 1-30 1-2 2-26 2-2 2-25 2-7 3-10 1-2 2-10 2-2 2-14 2-2 2-14 2-2 2-10 2-2 2-11 3-8 4-5 2-7 2-8 4-5 2-7 2-8 4-9 3-19 9-18 10-8 5-16 8-20 11-10 7-12 8-11 9-11 7-15 10-10 8-8 7-6 4-13 12-11 8-15 14-9 6-4 4h-2l-1 3-8 7-11 11-5 6-7 6-12 12-7 8-5 5-2 5-9 9-7 8-2 2-2 5-10 10-7 8-5 5-3 6-9 9-1 2h-2l-2 4-3 4-3 5-6 9-7 9-4 5-3 5-9 11-6 9-7 11-7 8-6 9-7 11-3 4-6 12-6 8-6 9-7 11-3 4-6 12-6 8-6 9-10 18-7 14-5 7-7 14-10 18-3 4-7 14-9 17-11 23-9 17-11 23-9 17-8 17-3 9-9 19-5 14-8 16-8 20-7 14-5 14-7 15-6 19-5 10-3 10-5 10-7 22-5 10-3 10-5 10-11 33-4 9-14 41-10 30-3 2z"/>
<path transform="translate(1294,767)" d="m0 0h2v1249h-1296v-321l4 3 3 6 6 9 6 11 6 9 6 11 6 6v2h2l5 6 3 6 14 14 6 3 12 11 4 3 12 6 8 6 19 9 6 3 8 3 13 5 13 4 28 7 25 3 2 1 12 1 33 1 5 3h52l2-3 50-1h21l1-3 26-2 3-2 25-2 4-2 16-1 12-1 3-2 13-2 9-3 7-1 9-3 9-2 17-3 10-3 7-1 8-3 9-2 11-5 33-11 19-7 8-3 14-5 23-11 62-31 33-21 7-4 11-7 9-6 10-7 9-6 8-5 8-8 5-4 5-2 14-14 5-4 5-2 10-10 5-4 5-2 19-19h2l2-4 12-12h2l2-4 9-9 2-6h2l2-4 7-6 7-8 12-12 2-6 7-6 7-8 4-4 2-6 7-6 1-2h2l2-4 2-2 2-5 4-5h2l2-4 2-2 2-5 6-7 4-8 4-4 4-8 4-4 4-8 4-5 6-9 7-11 7-10 4-6 22-44 6-8 32-64 6-16 7-15 3-7 5-12 9-19 3-8 7-16 11-33 3-10 6-13 3-9 3-10 12-36 2-5 1-10 3-4 1-8 2-2 2-14 1-2h2l1-10 2-2 2-14 1-2h2l1-10 2-2 2-14 1-2h2l1-10 2-2 1-4 1-14 3-6 1-10 1-2h2l1-19 3-4 1-11 1-2h2l1-18 3-6 1-10 2-2 1-4 1-14 3-7 1-17 2-3 2-18 2-2 1-4 2-19z"/>
<path transform="translate(749,704)" d="m0 0h71v420h96v76h-96v152h-88l-1-151-303-1v-79l7-8 6-9h2l2-4 2-2 2-5 4-5h2l2-4 2-2 2-6 7-6 1-2h2l2-4 2-2 2-6 4-4h2l2-4 2-2 2-5 4-5h2l2-4 2-2 2-6 7-6 1-2h2l2-4 2-2 2-6 4-4h2l2-4 2-2 2-5 4-5h2l2-4 2-2 2-6 7-6 1-2h2l2-4 2-2 2-6 4-4h2l2-4 2-2 2-5 4-5h2l2-4 2-2 2-6 7-6 1-2h2l2-4 2-2 2-6 4-4h2l2-4 2-2 2-5 4-5h2l2-4 2-2 2-6 7-6 1-2h2l2-4 2-2 2-6 4-4h2l2-4 2-2 2-5 4-5h2l2-4 2-2 2-6 7-6 1-2h2l2-4 2-2 2-5 4-5h2l2-4 2-2 2-5 4-5h2l2-4 2-2 2-5 4-5 4-4h2l2-4 2-2 2-5 4-5h2l2-4 2-2 2-5 4-5h2l2-4 2-2 3-7z"/>
<path transform="translate(730,835)" d="m0 0 2 1v287l-2 1h-214l1-4 5-5 5-8 3-4h2l2-4 5-8 8-9 3-6 9-10 2-5 10-11 2-5 10-11 2-5 10-11 2-5 10-11 2-5 10-11 2-5 10-11 2-5 10-11 2-5 10-11 3-6 4-5h2l2-4 5-8 3-4h2l2-4 5-8 3-4h2l2-4 5-8 8-9 3-6 4-5h2l5-10 10-11z" fill="#FEFEFE"/>
<path transform="translate(160,80)" d="m0 0h21v127h31v21l-3 2h-27l-1 45-1 1h-24l-1-1v-45h-89l-2-1v-22l6-9 12-16 16-21 12-16 16-21 24-32 8-11z" fill="#FEFEFE"/>
<path transform="translate(1188,1756)" d="m0 0h21v127h31v21l-7 2h-23l-1 45-2 1h-23l-1-1v-45h-89l-2-1v-22l6-9 12-16 16-21 12-16 16-21 24-32 8-11z" fill="#FEFEFE"/>
<path transform="translate(1181,1796)" d="m0 0h2v86l-2 1h-62l2-5 12-16 13-18 11-15 14-19z"/>
<path transform="translate(153,120)" d="m0 0h2v86l-2 1h-62l2-5 12-16 13-18 11-15 14-19z"/>
</svg>
