<?xml version="1.0" encoding="UTF-8"?>
<svg version="1.1" viewBox="0 0 1296 2016" width="324" height="504" xmlns="http://www.w3.org/2000/svg">
<path transform="translate(0)" d="m0 0h1296v2016h-1296z" fill="#fff"/>
<path transform="translate(0)" d="m0 0h1296v352l-3-1-6-10-5-8-5-9-6-9-6-11-9-11-6-9-8-8-6-5v-2l-4-2-9-6-8-7-10-6-9-6-8-4-7-5-8-2-12-6-9-3-11-5-12-2-3-2-13-2-3-2-17-1-5-2-1-1-27-1-5-3-39-1h-20l-5-3h-58l-2 2-42 2-2 2-26 2-2 2-26 2-2 2-14 2-2 2-10 2-6 3-10 1-2 2-14 2-2 2-10 2-7 3-13 5-6 3-7 2-10 5-10 3-10 5-10 3-19 10-14 7-5 4-17 9-16 8-11 7-9 6-13 9-7 6-11 7-15 10-9 7-9 8-5 3-10 9-9 8-6 4-13 12-5 4-5 3-7 6-48 48-7 8-5 8-8 8-7 8-5 8-12 12-1 2h-2l-2 4-3 3-3 6-12 12-5 6-3 6-5 6-3 6-9 10-3 6-2 3h-2l-2 4-7 10-4 5-3 6-9 11-6 9-3 5-7 10-7 13-5 6-3 6-6 9-7 10-7 13-5 6-3 6-6 9-8 16-8 14-5 8-13 25-6 9-63 126-5 14-7 14-5 14-8 16-4 10-6 14-5 10-5 14-6 12-7 21-6 13-5 15-4 9-6 17-5 11-5 15-4 9-9 27-4 9-14 41-10 30-3 2z"/>
<path transform="translate(1295,767)" d="m0 0h1v1249h-1296v-321l4 3 3 6 6 9 6 11 6 9 6 11 12 13 5 8 14 14 5 2 6 5v2l4 2 6 5 7 4 5 2 8 6 19 9 6 3 8 3 13 5 13 4 28 7 25 3 1 1 12 1 34 1 3 3h54l2-3 51-1 20-1 1-2 26-2 4-2 13-1 11-1 4-2 16-1 12-1 9-3 9-2 32-8 18-3 4-2 12-2 18-6 14-5 17-6 24-8 11-5 10-3 9-3 17-8 19-10 48-24 10-6 11-7 9-6 9-5 9-6 10-7 5-3 7-5 5-3 5-4 6-3 6-6h2l1-3 5-4 5-2 11-11h2l1-3 5-4 5-2 8-7 7-7 5-2 14-14 7-6 5-6 7-6 5-6 10-10 2-5 15-15 5-6 10-10 2-5 11-11 1-2h2l2-4 2-2 2-5 9-9 5-6 3-6 3-4h2l2-4 3-5 7-9 3-6 5-6 3-6 5-6 3-6 5-6 3-6 5-6 3-6 5-6 3-6 6-9 18-36 6-10 5-8 31-62 8-20 7-15 3-8 11-24 3-7 4-10 4-11 12-36 7-16 11-33 7-22 2-4 2-12 2-3 2-9 2-5 2-11 2-3 2-9 2-4 1-11 3-4 1-8 3-5 1-11 3-4 1-8 2-2 1-4 1-14 1-2h2l1-14 3-5 1-15 1-2h2l1-14 2-2 1-4 1-14 1-2h2l1-14 2-2 1-4 1-14 3-7 1-17 3-7 1-14 2-2 1-4 2-19z"/>
<path transform="translate(637,688)" d="m0 0h78l11 3 9 2 16 4 19 7 17 9 8 6 5 3 10 9 17 17 6 9 11 22 4 10 4 13 2 9 2 7 1 8 2 3 1 8 1 13 3 5v27l-3 9-1 20-6 18-5 10-3 9-8 16-5 7-6 12-6 8-5 8h-2l-2 4-3 3-3 6-6 7-7 7-2 5-10 10-7 8-3 6-92 92-6 3-12 11-72 72-4 5-9 18h288v76l-199 1-2 2-5 1h-189l-1-1v-10l3-9 1-18 3-5 1-14 4-11 10-21 6-10 6-9 5-6 3-6 9-10 3-6 5-6 3-6 5-6 2-5 4-5 8-7 4-5 7-6 5-6 7-6 5-6 7-6 5-6 7-6 21-21 6-3 11-11 6-5 29-29 6-3 8-7 6-7 7-6 5-6h2l2-4 2-2 2-5 13-13 5-6 2-6 8-7 11-11 1-2h2l2-4 3-5 15-30 2-8 5-10 1-1 2-10h2v-61l-6-12-1-1-2-9-5-10-6-10-7-6-5-5-8-5-9-8-17-8-9-3-1-1h-62l-2 2-11 3-17 9-6 5-5 3-10 9-9 9-4 5-10 21-2 4-1 10-3 6-1 21-3 6-1 12-2 2h-14l-5-3-33-1-3-3-17-1-2-1v-21l1-2h2l1-22 3-4 3-7 3-10 2-3 2-9 6-12 2-8 6-11 4-4 2-5 4-5 7-6 5-6 9-9h2l1-3 5-5h2l1-3 5-4 32-16 9-2 11-6 22-1z"/>
<path transform="translate(124,72)" d="m0 0h31l13 4 11 7 8 8 6 12 3 16v19l-2 10-7 14-10 13-9 11-30 30-8 7-17 17-5 7h87l1 1v21l-1 1-20 1-55 1h-43l-1-1v-8l3-12 6-12 13-18 7-7 5-6 8-7 16-15 13-12 12-14 7-10 5-12 1-6v-12l-3-10-4-6-8-7-9-3h-19l-12 6-7 8-4 11-2 12-3 2-20-3-1-1 1-11 5-15 6-11 11-11 16-8z" fill="#fff"/>
<path transform="translate(1152,1752)" d="m0 0h31l13 4 11 7 8 8 6 12 3 16v19l-2 10-7 14-10 13-9 11-30 30-8 7-17 17-5 7h87l1 1v21l-1 1-24 1-52 1h-42l-1-1v-8l3-12 6-12 13-18 7-7 5-6 8-7 16-15 13-12 12-14 7-10 5-12 1-5v-13l-3-10-4-6-8-7-9-3h-19l-10 5-7 6-5 10-3 16-3 2-20-3-1-1 1-11 5-15 6-11 11-11 16-8z" fill="#fff"/>
</svg>
