<?xml version="1.0" encoding="UTF-8"?>
<svg version="1.1" viewBox="0 0 1296 2016" width="324" height="504" xmlns="http://www.w3.org/2000/svg">
<path transform="translate(0)" d="m0 0h1296v2016h-1296z" fill="#C32321"/>
<path transform="translate(0)" d="m0 0h1296v352l-5-5-9-13-9-15-10-16-12-16-9-10-10-9-16-12-15-10-24-13-29-12-25-7-24-5-27-4-26-3-50-2-11-2h-50l-8 2-34 2-10 2-24 3-14 2-17 3-23 6-26 7-20 6-16 6-20 8-37 15-16 8-17 9-16 9-21 11-16 10-10 7-12 9-19 13-14 10-9 8-11 8-8 8-16 12-7 7-13 10-8 7-54 54-7 10-9 10-14 18-13 13-8 11-11 12-8 12-11 15-8 11-9 12-12 17-9 12-10 16-6 9-9 15-10 15-9 14-9 15-11 17-12 23-8 13-13 25-7 11-41 82-7 12-18 1-10 6-10 10-5 9v25l2 5 1 1v34l-8 20-5 10-5 13-7 15-9 25-5 12-8 20-6 17-5 11-5 14-7 19-7 20-6 15-14 42-8 20-3 3z"/>
<path transform="translate(1294,768)" d="m0 0h2v1248h-1296v-320h2l10 14 5 10 8 13 7 11 13 16 7 9 10 9 11 8 8 7 27 16 21 10 24 9 26 7 13 3 23 3 5 1 34 2 9 1 2 1h53l6-2 53-2 29-3 27-4 41-6 37-8 51-12 26-8 43-15 30-11 25-11 52-26 21-12 18-11 31-20 15-10 15-11 14-11 11-9 11-10 6-4 3-1v-2l13-10 8-7 10-9 22-22 7-8 4-5 2-4h2l2-4 15-15 7-8 12-15 11-12 5-8 10-11 6-9 8-10 7-11 9-13 7-11 10-15 7-10 7-11 9-14 14-27 9-17 6-10 14-27 17-34 6-16 7-15 8-19 10-21 5-13 7-19 13-38 7-18 14-44 7-24 10-36 4-14 5-16 3-12 5-15 2-15 2-5 2-11 2-4 2-16 2-4 2-12 2-3 1-14 3-7 2-12 2-3 1-14 3-7 1-18 3-5 1-5v-9l4-8 1-14z"/>
<path transform="translate(1056,755)" d="m0 0 23 1 15 4 22 6 15 6 20 9 10 6 25 25 6 10 7 8 15 29 6 13 1 10 2 3 1 5v15l3 3 1 8v22l4 3v39l-2 4-2 29-5 22-6 15-7 11-6 9-7 8-4 7-12 12-15 10-19 10-16 7-15 6-10 5-3 1-12 1-4 2-7 1h-54l-10-1-5-2-14-2-4-2-11-2-17-8-7-6-6-3-8-8-6-3-12-11-6-7-3-5-9-11-4-7-5-8-7-14-3-9-3-11-3-8-7-21-3-8-1-10v-55l1-2h2l1-26 2-7 1-1 1-12 3-4 2-9 5-9 6-9 6-11 8-8 6-9 7-8 7-7 13-8 16-9 12-6 16-6 7-3 9-2 6-2 11-1 10-3z" fill="#E4AC39"/>
<path transform="translate(749,796)" d="m0 0h19l5 3 11 11 7 11 1 10 1 8 2 1 1 8 1 19 2 1 2 27 2 1 1 8v16l1 3 2 1 1 6v19l3 3 1 6 1 21 2 2 1 5 1 17 2 1 1 7v18l3 3 1 7v17l1 3 2 1 1 7v18l3 3 1 6v20l3 2 1 6v28l-5 12-7 8-12 6-9 1-3 2-5 1h-11l-16-8-8-6-8-8-4-5-3-5-11-12-6-7-5-5-7-9-9-10-10-10-8-11-11-12-9-9-8-11-11-12-9-9-5-6-3-5-11-12-9-9-10-14-20-20-5-8v-2h-2v-2h-4l1 5 2 3 1 7 1 23 2 1 1 6v22h3l1 3v29h3l1 15v14l3 3 1 19v9h3l1 15v14l3 3 1 9v33l-3 7-12 12-10 6-4 1h-10l-11-5-5-3-9-11-3-6-1-5-1-16-2-3-2-23-2-5-2-23-2-5-2-23-2-5-1-6-1-17-2-5-1-7-1-20-2-5-2-23-2-5-1-6-1-17-2-5-2-23-2-5-2-23-2-5-1-7v-38l2-7 2-9 6-5 8-5 8-4 11-4h12l17 9 10 9 4 4v2h2l6 10 23 23 4 8 24 24 3 6 9 10 16 16 4 8 24 24 4 8 24 24 4 8 24 24 3 7 2 2h3v-7l-3-5-1-28-2-3-1-7-1-25-2-4-1-7-1-21-2-4-1-7-1-21-2-4-1-7-1-25-2-4-1-7-1-21-3-7v-17l5-9 9-10 8-7z" fill="#E4AC39"/>
<path transform="translate(372,848)" d="m0 0 7 1 12 5 10 9 3 3v2h2l2 4 1 11 2 2 1 5 1 17 2 2 2 22 2 1 2 27 2 1 1 8v24h3l1 8v28h3l1 5v31l4 1v85l-5 12-11 22-6 8-13 13-2 5-6 7-10 6-23 11-5 2-18 4-16 2-2 1-31 3-1 1-7 1h-27l-10-3-23-1-5-2v-2l-10-1-9-9-14-7-10-9-12-12-8-13-12-24-4-10-4-18-2-16-2-8-3-15-1-9-1-44-2-6-3-19-1-1-3-22-2-9-2-13-3-1v-37l-2-2-1-4v-25l6-10 11-11 9-5h20l5 3 7 1 5 5 8 17 3 10 2 5 1 15h2l2 31 2 2 2 26 2 2 2 26 2 2 2 22 2 2 2 26 2 2 1 12 1 10 2 2 1 11 1 10 3 7 5 13 10 19 4 8 7 7 12 7 12 2 3 2h21l3-2 17-2 3-2 12-2 12-6 7-5 5-3 5-6 8-16 2-13 2-6 1-2v-31l-2-4-1-7-1-21-2-4-1-7-1-20-2-5-1-7-1-20-2-5-1-8-1-19-2-5-2-19-2-5-2-19-2-5-1-9v-26l3-5 6-9 5-5 11-5z" fill="#E3AB38"/>
<path transform="translate(1028,820)" d="m0 0h44l18 8 11 6 9 8 7 3 8 11 6 9 9 17 8 17 2 15 2 4 1 23 2 7 1 2v45l-5 16-8 17-7 11-20 20-10 6-8 5-12 6-13 2-3 2h-19l-8-3-11-2-5-2-7-2-17-9-7-4-12-11-5-7-9-19-10-19-1-3-1-10-2-2-1-10v-7l-2-6-2-5v-11l-3-5v-18l2-3 2-20 2-4 2-16 10-19 9-14 11-9 32-16z" fill="#C32321"/>
</svg>
