<?xml version="1.0" encoding="UTF-8"?>
<svg version="1.1" viewBox="0 0 1296 2016" width="324" height="504" xmlns="http://www.w3.org/2000/svg">
<path transform="translate(0)" d="m0 0h1296v2016h-1296z" fill="#FEFEFE"/>
<path transform="translate(0)" d="m0 0h1296v352l-3-1-6-10-5-8-5-9-6-9-6-11-9-11-4-6-10-11-6-5v-2l-4-2-9-6-8-7-10-6-9-6-8-4-7-5-8-2-12-6-9-3-11-5-12-2-8-3-8-1-3-2-17-1-5-2-1-1-28-1-3-1-1-2-59-1-5-3h-58l-2 2-42 2-2 2-26 2-2 2-26 2-2 2-14 2-2 2-10 2-6 3-10 1-2 2-14 2-2 2-10 2-2 2-11 3-10 5-10 3-10 5-10 3-10 5-10 3-19 10-12 6-9 6-15 8-16 8-11 7-9 6-13 9-7 6-11 7-15 10-9 7-9 8-6 4-3 1v2l-8 7-7 6-6 4-13 12-5 4-5 3-7 6-44 44-5 6-5 5-3 5-7 8-5 6-7 7-2 5-14 14-7 8-5 8-8 8-7 8-6 10-3 3-3 6-8 9-6 10h-2l-2 4-7 10-4 5-3 6-9 11-6 9-7 11-5 8-7 12-7 10-7 11-6 9-6 11-5 6-3 6-6 9-8 16-8 14-3 4-7 14-10 18-5 8-62 124-5 14-7 14-5 14-8 16-4 10-8 18-4 10-8 18-4 10-6 17-5 11-5 15-4 9-6 17-6 15-5 12-12 35-4 9-14 41-10 30-3 2z"/>
<path transform="translate(1295,767)" d="m0 0h1v1249h-1296v-321l4 3 3 6 6 9 6 11 6 9 6 11 12 13 5 8 13 13 6 3 12 11 4 3 7 4 5 2 8 6 19 9 6 3 8 3 13 5 13 4 28 7 25 3 2 1 11 1 34 1 3 3h54l2-3 51-1 20-1 1-2 26-2 4-2 13-1 11-1 4-2 16-1 12-1 9-3 7-1 9-3 9-2 16-4 18-3 9-3 7-1 18-6 14-5 17-6 12-4 19-7 8-3 11-4 10-4 19-9 19-10 40-20 10-6 4-3 7-4 9-6 9-5 9-6 10-7 5-3 7-5 5-3 7-5 5-3 5-5h2l1-3 5-4 5-2 11-11h2l1-3 5-4 5-2 10-10 5-4 5-2 14-14 7-6 5-6 7-6 5-6 10-10 2-5 4-5 8-7 4-5 7-6 7-8 2-5 11-11 1-2h2l2-4 2-2 2-5 4-5 4-4h2l2-4 3-5 5-7h2l2-4 3-5 7-9 3-6 5-6 3-6 5-6 3-6 5-6 3-6 5-6 3-6 6-9 7-10 19-38 6-10 3-4 33-66 8-20 7-15 3-8 11-24 3-7 5-13 3-8 12-36 7-16 16-48 2-7 2-4 2-12 2-3 2-9 2-5 1-10 3-4 1-8 3-5 1-11 3-4 1-8 3-5 1-11 3-4 1-8 2-2 1-4 1-14 1-2h2l1-14 2-2 1-4 1-14 1-2h2l1-14 2-2 1-4 1-14 1-2h2l1-14 2-2 1-4 1-14 3-7 1-17 2-3 2-18 2-2 1-4 2-19z"/>
<path transform="translate(488,732)" d="m0 0h424v62l-11 11-4 6-3 5-9 9-7 8-3 6-3 4h-2l-2 4-3 4-3 5-9 10-3 6-9 10-3 6-6 9-6 11-6 9-7 10-6 9-6 10-3 6-6 9-6 11-5 7-7 14-7 11-6 10-11 23-3 10-6 12-3 9-5 11-3 9-9 19-3 9-4 9-2 10-5 16-6 12-3 10-4 12-3 10-2 4-2 12-3 9-3 7-1 13-3 7-1 26-3 5-1 28-3 4-1 31-3 6-1 16-2 1h-82v-27l3-1 1-47 3-1 1-35 3-1 1-18 1-2h2l1-14 1-2h2l1-14 3-3 1-9 3-3 1-9 3-4 1-4v-8l3-3 1-9 3-3 1-9 3-4 1-12 3-3 2-10 2-4 2-8 19-38 4-11 11-23 43-86 6-10 3-3 2-5 6-7 3-6 5-6 2-5 4-5h2l2-4 2-2 2-5 6-7 2-5 6-7 2-5 6-7 2-5 4-5 7-6 7-8 2-6 5-5 6-7h-316z"/>
<path transform="translate(69,80)" d="m0 0h146l1 1v17l-4 6-11 12-11 14-13 19-11 17-8 15-10 23-10 27-3 12-5 35-3 2h-25l-2-1 1-12 2-19 3-15 12-35 12-25 14-25 11-16 11-14 9-10 2-3-109-1v-23z" fill="#FEFEFE"/>
<path transform="translate(1093,1756)" d="m0 0h146l1 1v17l-3 5-7 7-9 11-9 12-12 17-13 21-14 30-11 30-3 12-5 35-3 2h-25l-2-1 1-12 2-19 3-15 12-35 12-25 14-25 11-16 11-14 9-10 2-3-109-1v-23z" fill="#FEFEFE"/>
</svg>
