<?xml version="1.0" encoding="UTF-8"?>
<svg version="1.1" viewBox="0 0 1296 2016" width="324" height="504" xmlns="http://www.w3.org/2000/svg">
<path transform="translate(0)" d="m0 0h1296v2016h-1296z" fill="#FEFEFE"/>
<path transform="translate(0)" d="m0 0h1296v352l-3-1-6-10-4-6-6-11-5-7-6-12-9-10-6-10-17-17-11-7-9-8-15-9-12-7-6-4-8-2-12-6-9-3-11-5-12-2-3-2-13-2-3-2-21-2-2-2-27-1-5-3-62-2-1-3-59 1-2 2-42 2-2 2-26 2-2 2-26 2-2 2-14 2-2 2-10 2-7 3-9 1-7 3-9 1-7 3-6 2-11 3-11 6-10 3-10 5-10 3-10 5-10 3-26 13-11 7-19 10-21 11-10 7-8 6-7 4-8 7-11 7-14 10-5 3-10 9-10 7-10 9-9 8-5 3-10 9-9 8-7 4-57 57-4 5-3 6-13 13-4 5-3 6-17 17-4 5-3 6-13 13-4 5-3 6-5 6-3 6-9 10-3 6-9 10-3 6-5 6-4 7-8 9-3 6-5 6-5 9-3 3-7 14-5 6-5 9-3 3-5 9-3 3-7 14-5 6-5 9-3 3-15 30-5 6-15 30-5 6-48 96-11 23-5 10-5 14-7 14-5 14-8 16-4 10-6 14-5 10-5 14-7 14-3 10-6 16-4 10-7 16-3 10-6 16-12 30-10 29-6 15-21 63-3 2z"/>
<path transform="translate(1293,768)" d="m0 0h3v1248h-1296v-321l4 4 6 9 9 16 5 7 6 12 12 13 6 9 14 14 5 2 7 7 9 7 12 6 6 5 26 13 9 3 13 5 13 4 25 6 2 1 25 3 2 1 11 1 35 1 3 3h54l2-3 55-1 16-1 2-2 16-1 9-1 4-2 15-1 9-1 7-2 25-2 9-3 9-2 16-4 26-6 8-1 5-2 13-3 15-4 11-5 10-3 12-4 17-6 13-5 9-3 6-3 10-3 19-9 17-9 19-9 19-10 14-7 9-6 10-7 14-8 7-5 7-4 10-7 11-7 6-5 6-3 14-13 5-2 8-7 11-11 5-2 4-2 2-4 8-7 10-5 2-4 8-7 27-27 1-2h2l2-4 3-5 7-8 17-17 1-2h2l2-4 3-5 7-8 7-7 5-6 3-6 10-10 4-7 7-8 4-5 3-6 5-6 3-6 5-6 3-6 5-6 3-6 5-6 3-6 5-6 3-6 6-8 9-15 8-16 11-21 4-7 5-8 31-62 10-24 5-11 7-17 8-16 3-10 5-10 8-24 7-22 5-10 3-10 3-8 5-16 3-8 5-16 2-4 2-12 2-2 2-10 2-4 2-12 2-2 2-10 2-4 2-12 2-2 2-10 2-3 2-13 2-2 2-10 2-4 1-15 1-2h2l2-15 2-3 1-16 1-2h2l1-13 3-5 1-16 1-2h2l1-12 3-7 1-15 2-2 1-4 1-17 3-7 1-14 2-2 2-16z"/>
<path transform="translate(665,692)" d="m0 0h43l4 2 23 2 34 11 10 2 32 16 14 13 6 3 17 16 8 8 8 10 10 21 2 6 2 10 2 7 5 18 3 9 4 10v3l-3 1h-45l-1 3-18 1h-24l-1-1-1-9-3-4-1-12-3-4-2-10-2-2-3-7-5-6-4-7-6-5-6-3-8-8-8-4-6-5-21-10-2-2-13-1h-17l-20 1-2 2-22 2-2 2-14 2-10 6-5 4-9 6-18 14-8 9h-2l-2 7-10 10-4 5-10 21-6 12-2 12-6 16-2 12-2 4-2 12-2 4-2 12-2 3-1 32-2 6-1 1-1 27 3-1 7-8 6-5 10-10 5-2 4-2 1-3 8-7 5-6 8-7 17-9 9-4 9-2 3-2 12-2 7-3h2v-2l9-1 22-1 3-3h52l9 1 6 2 10 2 24 8 32 16 7 6 5 2 8 4 5 5 5 4v2l10 5 8 7 5 7 4 7 4 5 6 9 7 11 6 10 4 8 3 10 8 24 2 9 1 18 3 5v54l-2 7-1 2-1 13-6 18-3 10-6 12-3 9-4 8-5 7-7 14-6 9-11 12-2 5-20 20-6 3-10 9-5 4-17 9-21 10-5 2-10 1-2 2-14 2-2 2-5 1-25 1-1 2-6 1h-42l-4-1-1-2-27-1-4-1-1-2-15-2v-2l-13-1-32-16-11-6-9-6-11-9-9-6-26-26-6-10-7-8-20-40-10-25-3-8-3-7-1-13-2-5-1-1-1-24-3-4-1-49-3-2v-101l3-3 1-41 3-3 1-25 1-2h2l1-13 3-4 2-10 2-3 2-9 2-3 2-9 6-12 3-9 3-11 9-17 5-6 7-14 5-6 2-5 4-5 8-7 17-17 5-2 8-7 5-5 9-6 10-6 17-9 9-6 5-3 9-2 7-3 9-1 3-2 10-2 2-2 30-1z"/>
<path transform="translate(661,999)" d="m0 0h16l14 1 2 2 14 2 2 2 13 2 7 3 9 1 19 10 23 23 4 5 3 6 8 9 9 17 1 16 3 3v26l4 2v50l-3 3-1 13-2 2-2 9-10 19-3 6-9 10-3 6-9 10h-2l-1 3h-2l-1 7-9 8-19 9-7 2-5 2-7 2-5 2-14 1-4 3h-29l-6-2-5-1-14-2-4-2-11-2-18-9-5-5-5-2-10-9-8-4-7-8-9-19-7-10-8-15-5-13-1-8-2-3-2-17-2-3v-48l3-4 1-12 3-7 2-6 8-17 5-8 9-11 3-6 8-7 8-5 24-16 11-7 8-4 14-2 2-2z" fill="#FEFEFE"/>
<path transform="translate(134,76)" d="m0 0h26l12 3 12 6 11 9 7 11 6 18-1 3-15 1h-11l-3-8-5-10-8-7-9-4h-17l-10 3-9 6-8 9-6 13-5 19-3 21 9-7 9-8 11-5 15-3h17l13 4 10 5 11 8 8 10 7 14 3 13v22l-5 16-7 13-8 10-10 8-12 6-17 3h-16l-16-3-16-8-12-11-6-8-7-14-5-17-2-21v-33l2-19 4-15 6-15 6-11 9-10 14-10 11-5z" fill="#FEFEFE"/>
<path transform="translate(1158,1752)" d="m0 0h26l12 3 12 6 11 9 7 11 6 18-1 3-15 1h-11l-3-8-5-10-8-7-9-4h-17l-10 3-9 6-8 9-6 13-5 19-3 21 9-7 9-8 11-5 15-3h17l13 4 10 5 11 8 8 10 7 14 3 14v21l-5 16-7 13-9 11-12 9-13 5-13 2h-16l-15-3-10-4-11-7-10-10-7-11-6-15-3-11-2-21v-34l2-18 4-15 6-15 6-11 10-11 13-9 11-5z" fill="#FEFEFE"/>
<path transform="translate(429,1376)" d="m0 0h480l5 3 2 5-1 7-4 4-6 1h-468l-9-1-4-6v-7z"/>
<path transform="translate(1159,1844)" d="m0 0h12l16 4 6 4 7 7 5 9 3 19v8l-3 12-4 8-7 9-6 5-12 4h-15l-12-4-9-7-7-10-5-13-1-5v-16l3-10 6-10 8-7 9-5z"/>
<path transform="translate(136,168)" d="m0 0h11l16 4 6 4 7 7 5 9 3 19v8l-3 12-4 8-7 9-5 4-9 4-4 1h-14l-13-4-9-7-7-10-5-13-1-5v-16l3-10 6-10 8-7 9-5z"/>
<path transform="translate(123,281)" d="m0 0h91l2 3v3l-2 1h-144l-2-1 1-5z" fill="#FEFEFE"/>
<path transform="translate(1148,1957)" d="m0 0h90l2 3v3l-2 1h-144l-2-1 1-5z" fill="#FEFEFE"/>
</svg>
