<?xml version="1.0" encoding="UTF-8"?>
<svg version="1.1" viewBox="0 0 1296 2016" width="324" height="504" xmlns="http://www.w3.org/2000/svg">
<path transform="translate(0)" d="m0 0h1296v2016h-1296z" fill="#FEFEFE"/>
<path transform="translate(0)" d="m0 0h1296v352l-3-1-6-10-5-8-5-9-6-9-6-11-9-11-6-9-8-8-6-5v-2l-4-2-9-6-8-7-10-6-9-6-8-4-7-5-8-2-12-6-9-3-11-5-12-2-3-2-13-2-3-2-17-1-5-2-1-1-27-1-5-3-39-1h-20l-5-3h-58l-2 2-42 2-2 2-26 2-2 2-26 2-2 2-14 2-2 2-10 2-6 3-10 1-2 2-14 2-2 2-10 2-7 3-13 5-6 3-7 2-10 5-10 3-10 5-10 3-19 10-14 7-5 4-17 9-16 8-11 7-9 6-13 9-7 6-11 7-15 10-9 7-9 8-5 3-10 9-9 8-6 4-13 12-5 4-5 3-7 6-48 48-7 8-5 8-8 8-7 8-5 8-12 12-1 2h-2l-2 4-3 3-3 6-12 12-5 6-3 6-5 6-3 6-9 10-3 6-2 3h-2l-2 4-7 10-4 5-3 6-9 11-6 9-3 5-7 10-7 13-5 6-3 6-6 9-7 10-7 13-5 6-3 6-6 9-8 16-8 14-5 8-13 25-6 9-63 126-5 14-7 14-5 14-8 16-4 10-6 14-5 10-5 14-6 12-7 21-6 13-5 15-4 9-6 17-5 11-5 15-4 9-9 27-4 9-14 41-10 30-3 2z"/>
<path transform="translate(1295,767)" d="m0 0h1v1249h-1296v-321l4 3 3 6 6 9 6 11 6 9 6 11 12 13 5 8 14 14 5 2 6 5v2l4 2 6 5 7 4 5 2 8 6 19 9 6 3 8 3 13 5 13 4 28 7 25 3 1 1 12 1 34 1 3 3h54l2-3 51-1 20-1 1-2 26-2 4-2 13-1 11-1 4-2 16-1 12-1 9-3 9-2 7-2 9-2 16-4 18-3 4-2 12-2 18-6 14-5 17-6 24-8 11-5 10-3 9-3 17-8 19-10 48-24 10-6 11-7 9-6 9-5 9-6 10-7 5-3 7-5 5-3 5-4 6-3 6-6h2l1-3 5-4 5-2 11-11h2l1-3 5-4 5-2 8-7 7-7 5-2 14-14 7-6 5-6 7-6 5-6 10-10 2-5 15-15 5-6 10-10 2-5 11-11 1-2h2l2-4 2-2 2-5 9-9 5-6 3-6 3-4h2l2-4 3-5 7-9 3-6 5-6 3-6 5-6 3-6 5-6 3-6 5-6 3-6 5-6 3-6 6-9 18-36 6-10 5-8 31-62 8-20 7-15 3-8 11-24 3-7 4-10 4-11 12-36 7-16 11-33 7-22 2-4 2-12 2-3 2-9 2-5 2-11 2-3 2-9 2-4 1-11 3-4 1-8 3-5 1-11 3-3 1-9 2-2 1-4 1-14 1-2h2l1-14 3-5 1-15 1-2h2l1-14 2-2 1-4 1-14 1-2h2l1-14 2-2 1-4 1-14 3-7 1-17 3-7 1-14 2-2 1-4 2-19z"/>
<path transform="translate(649,684)" d="m0 0h58l11 3 9 2 16 4 10 5 9 2 19 10 14 7 12 11 8 7 5 3 10 9 10 11 3 6 8 9 21 42 1 23 3 4v45l-3 7-2 13-5 9-5 7-3 5-2 3h-2l-2 4-3 3-2 5-27 27-23 12-16 8v4l10 5 7 1 11 6 6 3 7 6 5 2 12 11 4 3 5 3 8 7 7 8 5 8 8 10 6 9 10 19 8 17 1 10 3 4v48l-3 9-1 17-3 8-2 11-3 8-4 10-16 32-6 11-31 31-6 3-12 11-7 6-17 9-16 8-5 2-4 2-7 1-2 2-5 1-17 1-2 2-38 2-2 2-4 1h-35l-4-1-1-2-22-1-7-3-14-1-6-3-11-1-48-24-10-7-6-4-7-6v-2l-4-2-9-6-7-6-6-7-5-5-8-15-6-9-8-16-8-20-3-7-1-26-3-3v-65l1-2h2l1-17 18-36 6-10 3-1 2-4 2-2 2-6 12-12 5-4 6-3 9-6 15-8 19-9 13-7h4l-1-5-1-1-11-1-11-6-9-8-8-5-7-6v-2h-2v-2h-2l-7-8-5-5-3-6-9-10-11-23-1-2-2-12-2-3v-68l1-2h2l1-13 3-7 2-7 8-16 6-11 5-5 8-7 5-6h2l2-4 2-2 3-7 8-7 16-8 10-6 4-3 15-9 11-6 9-2 3-2 9-2 3-2 30-1z"/>
<path transform="translate(657,1028)" d="m0 0h30l1 3h10l13 1 1 3h10l7 3 30 15 8 6 5 3 4 3v2l4 2 4 5 2 5 9 10 8 16 5 11 2 7 2 4v16l4 2v29l-1 2h-2l-1 19-3 3-1 12-3 5-9 19-5 6-4 4h-2l-2 7-8 9-5 4-5 2-5 5-7 5-21 10-4 2-12 1v2l-4 1-14 1-5 3h-28l-6-2-1-1-12-1-7-2-14-3-18-9-10-6-7-7-5-2-6-5v-2h-2l-5-5-8-10-8-15-8-18-4-11-1-13-3-6v-28l3-5 1-14 3-6 2-13 3-9 8-17 7-9 3-5 8-9 11-7 5-4 16-8 9-2 2-2 7-3 10-5 13-1 5-2z" fill="#FEFEFE"/>
<path transform="translate(665,756)" d="m0 0h26l1 3h9l10 1 5 3 8 2 15 8 8 6 5 3 4 3v2l4 2v2l4 2 7 8 5 10 1 11 3 4v17l4 2v25l-1 2h-2l-1 19-3 3v9l-6 12-4 5h-2l-2 4h-2l-2 4-9 8-5 2-8 6-16 8-7 1-2 2-5 1-18 1-2 3h-26l-3-3-21-1-3-3-7-3-16-8-5-5-5-2-6-5v-2l-3-1-4-5-3-6-5-6-5-12-2-6-1-2-1-18-3-6v-36l10-19 7-14 6-7 2-5 6-3 10-6 9-6 8-6 13-2 2-2 17-1 6-2z" fill="#FEFEFE"/>
<path transform="translate(134,76)" d="m0 0h14l14 4 14 7 10 8 7 8 5 10 3 12v11l-3 9-7 10-9 8-10 5 12 6 10 8 7 8 6 12 1 4v20l-2 10-8 16-7 8-10 8-12 6-13 3-10 2h-13l-16-4-12-5-10-6-10-9-8-14-3-9-2-8v-16l6-15 7-10 8-7 15-7-10-6-8-8-7-12-2-8v-13l3-12 4-8 10-11 13-8 10-4z" fill="#FEFEFE"/>
<path transform="translate(1158,1752)" d="m0 0h14l14 4 14 7 10 8 7 8 6 13 2 10v10l-3 9-7 10-9 8-10 5 12 6 10 8 8 10 5 10 1 4v20l-2 10-8 16-7 8-10 8-12 6-13 3-10 2h-13l-16-4-12-5-10-6-10-9-8-14-3-9-2-8v-16l6-15 7-10 8-7 15-7-10-6-8-8-7-12-2-8v-13l3-12 4-8 10-11 13-8 10-4z" fill="#FEFEFE"/>
<path transform="translate(1157,1855)" d="m0 0h13l12 3 9 5 6 5 6 10 3 9v13l-4 13-6 8-8 7-9 4-11 2-12-1-12-4-8-6-7-8-4-10-1-4v-12l4-14 6-9 9-6z"/>
<path transform="translate(133,179)" d="m0 0h13l12 3 9 5 6 5 6 10 3 9v13l-4 13-6 8-8 7-9 4-11 2-12-1-12-4-8-6-7-8-4-10-1-4v-12l4-14 6-9 9-6z"/>
<path transform="translate(1156,1775)" d="m0 0h16l11 4 8 6 4 8 2 12-2 12-3 6-7 6-9 4-10 2-11-1-9-4-8-7-4-7-2-10v-8l4-10 5-6 8-5z"/>
<path transform="translate(132,99)" d="m0 0h16l11 4 8 6 4 8 1 3v16l-3 10-8 7-9 4-10 2-11-1-9-4-8-7-4-7-2-10v-8l4-10 5-6 8-5z"/>
</svg>
