<?xml version="1.0" encoding="UTF-8"?>
<svg version="1.1" viewBox="0 0 1296 2016" width="324" height="504" xmlns="http://www.w3.org/2000/svg">
<path transform="translate(0)" d="m0 0h1296v2016h-1296z" fill="#FEFEFE"/>
<path transform="translate(0)" d="m0 0h1296v352l-4-2-3-6-6-9-8-14-5-8-6-10-2-4h-2l-4-5-3-6-5-5v-2l-4-2v-2l-4-2v-2l-4-2-7-6-9-6v-2l-4-2-11-7-9-6-8-4-7-5-8-2-12-6-9-3-12-5-11-2-4-2-12-2-4-2-17-1-6-3-28-1-3-3-59-1-5-3h-58l-2 2-9 1-33 1-2 2-9 1-17 1-2 2-25 2-7 3-9 1-7 3-7 2-5 2-10 1-2 2-14 2-2 2-10 2-2 2-11 3-8 4-5 2-7 2-8 4-9 3-15 7-9 3-30 15-9 6-15 8-16 8-11 7-15 10-10 8-30 20-10 8-8 7-6 4-4 4h-2l-1 3-11 9-6 4-7 7-11 9-6 4-8 8-6 5-5 6-7 6-5 6-7 6-5 6-6 5-7 8-6 6-2 5-7 8-5 5-6 7-3 5-9 9-7 8-5 5-2 5-9 9-7 8-5 8-6 9-7 9-4 5-3 5-9 11-3 5-6 9-7 9-4 5-3 5-6 9-7 10-6 12-6 8-6 9-7 11-3 4-6 12-6 8-6 9-10 18-7 14-5 7-7 14-8 15-5 7-7 14-9 17-11 23-9 17-11 23-17 34-3 9-7 15-3 8-4 10-8 17-3 5-3 9-7 15-4 12-6 12-4 9-7 21-5 11-5 14-3 6-7 21-5 11-5 14-3 6-11 33-5 12-12 35-10 30-3 2z"/>
<path transform="translate(1294,767)" d="m0 0h2v1249h-1296v-321l4 3 3 6 6 9 6 11 6 9 6 11 8 8 5 6 3 6 14 14 6 3 12 11 10 6 6 3 8 6 21 10 8 3 14 6 16 5 28 7 25 3 2 1 13 1 32 1 5 3h52l2-3 49-1h22l1-3 26-2 3-2 25-2 3-2 17-1 11-1 9-3 8-1 9-3 7-1 9-3 7-1 4-2 15-2 10-3 7-1 8-3 8-2 16-6 11-4 18-6 19-7 8-3 14-5 23-11 62-31 33-21 7-4 11-7 9-6 10-7 9-6 8-5 8-8 5-4 5-2 14-14 5-4 5-2 11-11 4-3 5-2 48-48 2-6h2l2-4 7-6 7-8 12-12 2-6h2l2-4 7-6 7-8 2-6h2l2-4 10-10 2-6 4-4h2l2-4 2-2 2-5 6-7 4-8 4-5 6-9 7-11 12-18 7-10 6-9 10-19 14-28 6-8 32-64 8-20 8-18 5-12 9-19 3-8 7-16 6-19 4-12 6-16 4-9 3-9 3-10 12-36 2-5 1-10 1-2h2l1-10 2-2 2-14 1-2h2l1-10 1-2h2l1-14 1-2h2l1-10 1-2h2l1-14 1-2h2l1-10 1-2h2l1-19 3-5 1-10 1-2h2l1-19 3-4 1-11 3-6 1-15 3-5 1-10 2-2 1-4 1-14 3-7 1-17 2-3 2-18 2-2 1-4 1-14z"/>
</svg>
