<?xml version="1.0" encoding="UTF-8"?>
<svg version="1.1" viewBox="0 0 1296 2016" width="324" height="504" xmlns="http://www.w3.org/2000/svg">
<path transform="translate(0)" d="m0 0h1296v2016h-1296z" fill="#FEFEFE"/>
<path transform="translate(0)" d="m0 0h1296v352l-3-1-6-10-5-8-5-9-6-9-6-11-9-11-4-6-10-11-6-5v-2l-4-2-9-6-8-7-10-6-9-6-8-4-7-5-8-2-12-6-9-3-11-5-12-2-8-3-8-1-3-2-17-1-5-2-1-1-28-1-3-1-1-2-59-1-5-3h-58l-2 2-42 2-2 2-26 2-2 2-26 2-2 2-14 2-2 2-10 2-2 2-14 2-2 2-14 2-2 2-10 2-2 2-11 3-10 5-10 3-10 5-10 3-8 4-5 2-7 2-19 10-12 6-9 6-15 8-16 8-11 7-9 6-13 9-7 6-11 7-15 10-9 7-9 8-6 4-13 12-11 8-13 12-11 8-6 5-44 44-7 8-5 5-3 6-9 9-1 2h-2l-2 4-3 3-2 5-14 14-7 8-5 8-8 8-7 8-6 10-3 3-3 6-2 3h-2l-2 4-3 4-3 5-2 3h-2l-2 4-7 10-4 5-3 6-9 11-6 9-7 11-5 8-5 9-6 9-7 10-6 9-6 10-5 9-7 10-6 10-12 23-6 9-7 14-10 18-5 8-62 124-5 14-7 14-5 14-8 16-4 10-8 18-4 10-8 18-4 10-6 17-6 15-5 12-9 25-6 15-5 12-12 35-4 9-14 41-10 30-3 2z"/>
<path transform="translate(1295,767)" d="m0 0h1v1249h-1296v-321l4 3 3 6 6 9 6 11 6 9 6 11 12 13 5 8 13 13 6 3 12 11 4 3 7 4 5 2 8 6 19 9 6 3 8 3 13 5 13 4 28 7 25 3 2 1 11 1 34 1 3 3h54l2-3 51-1 20-1 1-2 26-2 4-2 13-1 11-1 4-2 16-1 12-1 9-3 7-1 9-3 9-2 16-4 18-3 9-3 7-1 18-6 14-5 17-6 12-4 19-7 8-3 11-4 10-4 19-9 19-10 40-20 10-6 9-6 13-8 10-6 10-7 11-7 7-5 5-3 7-5 5-3 8-8 5-4 5-2 11-11h2l1-3 5-4 5-2 10-10 5-4 5-2 15-15 6-5 5-6 7-6 6-7h2l2-4 5-5 2-5 4-5 8-7 4-5 7-6 7-8 2-5 11-11 1-2h2l2-4 2-2 2-6 7-6 1-2h2l2-4 3-5 5-7h2l2-4 3-5 7-9 3-6 5-6 3-6 5-6 3-6 5-6 3-6 5-6 3-6 6-9 7-10 19-38 6-10 3-4 33-66 8-20 7-15 3-8 11-24 3-7 5-13 3-8 12-36 7-16 11-33 3-10 4-12 2-4 2-12 2-3 2-9 2-5 1-10 3-4 1-8 3-5 1-11 3-4 1-8 3-5 1-11 3-4 1-8 2-2 1-4 1-14 1-2h2l1-14 2-2 1-4 1-14 1-2h2l1-14 2-2 1-4 1-14 1-2h2l1-14 2-2 1-4 1-14 3-7 1-17 2-3 2-18 2-2 1-4 2-19z"/>
<path transform="translate(665,692)" d="m0 0h21l2 2 11 1 29 1 15 5 16 4 12 4 24 12 8 6 5 3 10 9 29 29 6 9 10 19 6 9 8 17 3 7 12 36 4 13 2 9 2 10 2 11 1 1 2 17 2 3 1 5 1 24 3 4 1 46 3 1v89l-1 2h-2l-1 32-3 7-1 24-10 30-1 2-2 12-6 12-3 9-8 17-9 17-7 14-6 9-7 8-22 22-8 5-10 8-13 8-15 8-8 4-5 2-4 2-7 1-5 3-7 1-2 2-10 2-2 2-14 2-2 2-10 1-24 1-3 3-6-2-1-1-35-1-6-3-14-1-6-3-9-2-3-2-9-2-12-6-8-2-8-6-13-7-9-6-8-7-3-2v-2l-4-2v-2l-4-2-7-8-13-13-3-6-5-6-3-6-9-10-2-9-14-28-3-10-4-12-1-1-2-13-2-3-2-9-2-3-1-18-2-5-1-1-1-22-1-4-2-1-1-62-3-2v-26l3-1 1-79 3-1 1-35 3-1 1-18 1-2h2l1-18 1-2h2l1-13 3-5 2-9 6-12 2-8 2-3 2-9 6-11 4-4 3-6 6-9 3-5 2-5 4-5 7-6 7-8 11-11h2l2-4h2l2-4 8-7 8-4 8-5 7-4 13-7 9-2 7-3 6-2 13-4 1-1 17-2 4-2 27-1h2z"/>
<path transform="translate(645,768)" d="m0 0h46l1 3 22 1 16 8 17 9 8 6 9 6 4 6 3 5 1 3 4 2 7 8 8 16 5 11 4 12 2 7 2 6 1 9 2 2 1 4v23l4 2v46l4 2v137l-3 3-1 35-1 4h-2l-1 27-3 1-1 15-3 1-1 14-1 2h-2l-1 10-5 9-4 5-5 5-3 6-4 5-4 4h-2l-2 7-4 5-8 7-6 3-8 6-21 10-4 2-12 1v2l-18 2h-2v2l-2 1h-16l-7-2-1-1h-7l-11-2-3-2-9-2-2-2-9-2-10-5-10-6-5-6-3-6-8-9-32-64-4-16-3-14-2-5-1-22-3-4v-160l3-4 1-36 3-4 1-28 3-4 1-11 3-7 1-9 8-17 8-16 5-9 12-13 12-12 5-4 7-4 9-8 8-4 9-2 2-2 7-3z" fill="#FEFEFE"/>
<path transform="translate(1154,1753)" d="m0 0h21l13 3 12 6 10 9 7 9 7 14 6 21 4 29 2 9v15l-3 14-3 16-5 15-8 15-7 8-13 9-14 6-13 3h-17l-16-4-13-7-12-11-8-13-6-14-4-18-1-7-1-27 1-22 3-21 7-21 6-10 9-10 7-6 12-6 11-3z" fill="#FEFEFE"/>
<path transform="translate(130,77)" d="m0 0h21l13 3 12 6 10 9 7 9 7 14 6 21 4 29 2 9v15l-3 14-3 16-5 15-8 15-8 9-14 9-12 5-13 3h-17l-16-4-13-7-12-11-8-13-5-11-5-21-1-7-1-27 1-22 3-21 7-21 6-10 9-10 7-6 12-6 11-3z" fill="#FEFEFE"/>
<path transform="translate(1154,1775)" d="m0 0h14l13 4 9 7 7 10 5 16 2 20v44l-2 17-3 13-7 12-9 8-9 4-9 2-12-1-12-5-6-7-8-16-4-13-2-17v-15l1-28 3-21 3-10 6-10 4-5 10-7z"/>
<path transform="translate(130,99)" d="m0 0h14l13 4 9 7 7 10 5 16 2 20v44l-2 17-3 13-7 12-9 8-9 4-9 2-12-1-12-5-6-7-8-16-4-13-2-17v-15l1-28 3-21 3-10 6-10 4-5 10-7z"/>
</svg>
