<?xml version="1.0" encoding="UTF-8"?>
<svg version="1.1" viewBox="0 0 1296 2016" width="324" height="504" xmlns="http://www.w3.org/2000/svg">
<path transform="translate(0)" d="m0 0h1296v2016h-1296z" fill="#FDFDFD"/>
<path transform="translate(0)" d="m0 0h1296v353l-5-5-9-14-6-11-5-7-5-10-10-12-5-8-20-20-10-6-6-6-9-5-3-3-14-7-6-5-11-3-12-6-7-2-10-5-14-2-2-2-14-2-2-2-4-1-18-1-1-3-31-1-2-3-62-1-2-3h-59l-1 3-32 1-10 1-3 2-25 2-3 2-25 2-3 2-13 2-3 2-11 3-10 2-8 3-12 2-3 2-9 2-3 2-8 1-7 4-6 3-10 3-10 5-10 3-9 5-9 2-26 13-11 7-10 6-30 15-6 5-7 4-5 4-7 4-9 8-7 4-5 4-7 4-5 4-7 4-8 8-5 4-7 4-12 12-5 4-7 4-12 12-5 4-7 4-62 62-2 5-9 10-9 9-2 5-9 10-13 13-2 5-9 10-7 7-6 10-7 10-8 10-6 9-6 7-6 9-7 11-7 8-6 9-7 11-5 8-5 9-6 8-4 7-7 10-6 10-5 9-6 8-4 7-5 8-8 16-8 13-7 12-8 16-8 13-8 15-10 21-10 19-10 21-10 19-10 21-5 10-6 16-6 12-6 16-8 16-9 22-5 10-6 16-6 12-7 21-7 16-5 13-8 23-4 9-5 13-5 12-4 11-5 17-3 5-4 10-4 14-4 10-5 17-6 17-4 10-2 1z"/>
<path transform="translate(1294,767)" d="m0 0h2v1249h-1296v-321l5 5 4 6 4 7 12 20 7 12 9 9 7 11 11 11 7 4 16 14 15 8 5 4 15 8 11 5 7 2 11 5 10 3 14 4 24 5 20 2 7 2 42 2 1 3 55-1 3-3h33l36-1 2-2 26-2 2-2 25-2 3-2 23-2 8-1 6-2 26-6 16-4 9-2 11-2 1-1 15-3 6-2 9-2 9-4 17-6 7-2 4-2 8-2 8-3 14-6 9-2 5-3 14-5 16-8 21-11 23-11 21-11 9-6 14-9 13-8 11-7 5-4 7-4 5-4 7-4 5-4 7-4 12-12h5v-2l8-7 11-11h5v-2l8-7 7-7 6-2 45-45 4-8 28-28 4-8 16-16 4-8 12-12 4-8 9-9 3-7 5-5 3-7 5-6 5-8 4-6 3-5 4-5 3-6 5-6 3-6h2l6-12h2l2-5 7-12 11-23 6-11 6-8 11-23 24-48 6-16 6-12 3-9 12-25 2-4 2-8 6-12 2-8 2-4 1-7 3-5 1-7 3-5 2-8 6-12 1-7 3-5 1-7 3-5 5-17 3-7 4-13 1-10 2-2 2-10 2-2 2-14 2-2 2-10 2-2 2-14 2-2 2-10 2-2 2-14 2-2 2-10 2-2 2-17 3-6 1-11 2-2 2-18 3-4 1-12 2-2 2-17 2-3 2-14 2-2 2-18 2-2 2-22 2-2 1-17 3-3 2-23z"/>
<path transform="translate(468,1075)" d="m0 0h64v333h-200l-1-292v-40z" fill="#E4D01E"/>
<path transform="translate(489,803)" d="m0 0h198l1 1v332l-1 1h-146l-1-1-1-67-51-1v-264z" fill="#D42522"/>
<path transform="translate(800,644)" d="m0 0h199l1 1v42l-1 289-3 1h-141l-3-1-1-66-1-1h-47l-3-1z" fill="#3DC038"/>
<path transform="translate(700,915)" d="m0 0h142l2 1v332h-198l-2-1v-103l2-1 49-1 1-226z" fill="#1E1FD5"/>
<path transform="translate(1221,1784)" d="m0 0h8l1 1 1 88 16 1v17h-17v28h-15v-27l-53-1v-19l8-13 26-39 9-14 12-19 1-2z" fill="#FDFDFD"/>
<path transform="translate(201,100)" d="m0 0h8l1 1v89h17v17h-17v28h-15v-27l-53-1v-19l8-13 26-39 9-14 12-19 1-2z" fill="#FDFDFD"/>
<path transform="translate(1103,1810)" d="m0 0h15v36h33v17l-1 1h-32v36h-15v-35l-30-1-1-1v-15l1-2h29z" fill="#FDFDFD"/>
<path transform="translate(83,126)" d="m0 0h15v36h33v17l-1 1h-32v36h-15v-35l-30-1-1-1v-16l3-1h27z" fill="#FDFDFD"/>
<path transform="translate(1213,1816)" d="m0 0h2v58h-24l-13-1 8-14 11-17 11-18z" fill="#040A11"/>
<path transform="translate(193,132)" d="m0 0h2v58h-24l-13-1 8-14 11-17 11-18z" fill="#040911"/>
</svg>
