<?xml version="1.0" encoding="UTF-8"?>
<svg version="1.1" viewBox="0 0 1296 2016" width="324" height="504" xmlns="http://www.w3.org/2000/svg">
<path transform="translate(0)" d="m0 0h1296v2016h-1296z" fill="#fff"/>
<path transform="translate(0)" d="m0 0h1296v352l-3-1-6-10-5-8-5-9-5-7-6-12-9-10-6-10-16-16-7-5-5-3-8-7-11-7-5-3-11-6-7-5-8-2-12-6-9-3-11-5-12-2-3-2-13-2-3-2-17-1-5-2-1-1-27-1-5-3-29-1h-29l-5-2-1-1h-58l-2 2-42 2-2 2-26 2-2 2-26 2-2 2-14 2-2 2-10 2-7 3-9 1-7 3-9 1-2 2-10 2-7 3-6 2-10 5-10 3-10 5-10 3-10 5-10 3-24 12-20 12-19 10-14 7-11 8-7 5-7 4-9 8-7 4-5 4-7 4-5 4-5 3-10 9-5 4-5 3-10 9-9 8-5 3-10 9-9 8-5 3-10 9-49 49-4 5-3 6-12 12-5 6-3 6-13 13-7 8-5 8-11 11-5 6-3 6-5 6-3 6-9 10-3 6-9 10-3 6-5 6-3 6-9 10-3 6-5 6-5 9-3 3-7 14-5 6-5 9-3 3-5 9-3 3-7 14-5 6-5 9-3 3-15 30-6 9-8 15-6 12-6 9-63 126-5 14-7 14-5 14-8 16-4 10-6 14-5 10-5 14-7 14-3 10-6 16-12 30-6 17-5 11-5 14-4 10-9 27-7 17-21 63-3 2z"/>
<path transform="translate(1295,767)" d="m0 0h1v1249h-1296v-321l4 4 6 9 6 10 3 6 5 7 6 12 13 14 5 8 14 14 5 2 14 13 14 7 6 5 16 8 11 5 8 3 13 5 13 4 28 7 25 3 1 1 11 1 35 1 3 3h54l2-3 54-1 17-1 2-2 16-1 9-1 4-2 15-1 9-1 4-2 17-1 11-1 9-3 9-2 32-8 18-3 5-2 13-3 15-4 11-5 20-6 8-3 11-4 13-5 8-3 7-3 10-3 80-40 9-5 7-5 7-4 8-5 10-6 7-5 7-4 5-4 7-4 10-7 5-4 6-3 7-6 7-7 5-2 8-7 11-11 5-2 8-7 7-7 5-2 6-6h2l2-4 8-7 23-23 7-8 3-6 22-22 1-2h2l2-4 3-5 7-8 7-7 5-6 3-6 10-10 4-7 9-11 3-5 7-9 3-6 5-6 3-6 5-6 3-6 5-6 3-6 5-6 3-6 5-6 3-6 6-9 18-36 6-10 5-8 31-62 10-24 5-11 3-8 11-24 3-7 8-20 6-18 7-22 5-10 4-12 3-10 3-9 3-7 3-9 3-11 2-4 2-12 2-3 2-9 2-4 2-12 2-2 2-10 2-4 2-12 2-2 2-10 2-4 2-12 2-2 2-10 2-4 1-15 1-2h2l1-14 3-4 1-16 1-2h2l1-14 3-4 1-16 1-2h2l1-13 3-6 1-15 2-2 1-4 1-18 3-7 1-13 3-6 2-20z"/>
<path transform="translate(652,680)" d="m0 0h272v476h-272z"/>
<path transform="translate(448,1040)" d="m0 0h188l1 131 79 1v343l-1 1h-267z"/>
<path transform="translate(177,100)" d="m0 0h20l10 4 9 5 6 5 5 10 1 4v24l-3 10-6 10-14 14-8 7-15 16-12 13 5 1 53 1v15l-2 1h-76l-6-1 1-6 5-12 11-16 11-12 9-7 5-5 12-11 7-9 6-13 1-5v-12l-3-6-7-6-8-3h-8l-12 6-4 5-2 5-1 10-1 1h-11l-5-3v-7l5-12 6-10 9-8z" fill="#fff"/>
<path transform="translate(1201,1784)" d="m0 0h20l10 4 9 5 6 5 5 10 1 4v24l-3 10-6 10-14 14-8 7-15 16-12 13 5 1 53 1v15l-2 1h-76l-6-1 1-5 5-13 11-16 11-12 9-7 5-5 12-11 7-9 6-13 1-5v-12l-3-6-7-6-8-3h-8l-12 6-4 5-2 5-1 10-1 1h-11l-5-3v-7l5-12 6-10 9-8z" fill="#fff"/>
<path transform="translate(1107,1808)" d="m0 0h12l2 1v39h34v14l-1 1-32 1-1 38-1 1h-13l-1-1v-38l-34-1v-15l33-1 1-38z" fill="#fff"/>
<path transform="translate(84,124)" d="m0 0h11l2 1v39h34v14l-1 1h-33v39l-1 1h-10l-4-1v-38l-34-1v-15l34-1v-38z" fill="#fff"/>
</svg>
