<?xml version="1.0" encoding="UTF-8"?>
<svg version="1.1" viewBox="0 0 1296 2016" width="324" height="504" xmlns="http://www.w3.org/2000/svg">
<path transform="translate(0)" d="m0 0h1296v2016h-1296z" fill="#FEFFFE"/>
<path transform="translate(0)" d="m0 0h1296v352l-5-5-8-13-13-22-7-11-7-9-8-10-10-10-14-11-15-11-22-13-10-5-34-14-23-6-13-3-16-2-8-2-25-2-13-2-36-1-15-1-6-2h-55l-9 3-34 1-9 3-19 1-10 3-16 1-10 3-10 2-15 5-13 3-16 4-12 4-16 6-15 6-14 6-13 5-20 8-20 10-18 11-26 13-20 13-13 9-9 7-15 10-16 11-11 10-9 6-7 7-10 8-9 7-13 12-9 6-12 12-6 5-5 6-7 6-5 6-8 7-7 7-7 8-8 11-7 7-9 11-4 6-9 9-7 8-9 12-7 7-10 13-8 12-10 13-12 16-10 15-8 10-18 27-6 11-22 33-6 11-13 20-14 27-6 9-14 27-6 9-9 17-9 19-10 19-24 48-12 26-7 17-5 11-6 15-8 16-6 15-8 18-7 17-5 11-7 20-14 35-6 17-14 35-10 29-8 21-14 41-5 15-3 3z" fill="#40C139"/>
<path transform="translate(1294,768)" d="m0 0h2v1248h-1296v-320l5 5 8 13 10 17 8 13 9 10 7 10 9 10 16 12 9 8 16 9 13 8 20 9 13 5 17 6 13 3 14 3 7 2 19 1 7 3 42 1 4 3h54l1-3 54-1 16-1 7-2 21-2 7-2 21-2 2-1 28-3 18-4 18-5 21-5 12-2 17-4 17-5 13-5 41-14 18-7 21-8 66-33 18-10 11-7 9-6 12-7 11-7 9-6 10-7 18-12 12-11 9-6 8-8 18-14 11-9 9-7 42-42 5-8 3-4h2l2-4 20-20 5-8 3-4h2l2-4 8-8 5-8 3-4h2l2-4 5-6 4-6 3-4h2l2-5 9-13 6-9 7-11 7-10 7-11 6-9 7-10 9-15 12-23 10-19 8-14 12-23 14-28 8-18 13-31 13-28 10-25 11-33 13-35 13-40 2-5 4-16 4-12 3-12 5-16 2-11 3-8 3-9 2-11 3-9 3-7 2-16 2-2 2-14 2-4 2-16 2-2 2-14 2-4 2-16 2-3 2-13 2-4 2-16 2-4 1-15 2-6 1-2 1-15 3-7 1-5 1-14z" fill="#40C139"/>
<path transform="translate(665,692)" d="m0 0h21l3 3h13l28 1 4 3 9 2 4 2 11 1 4 3 10 3 17 8 11 7 10 7 25 25 2 1v2h2l7 8 7 10 11 20 6 10 9 19 12 35 5 17 2 9 8 40 1 2 2 28 2 3 2 46 3 4-1 87-2 5-2 30-2 6-2 25-8 26-2 5-3 12-6 15-6 14-8 16-11 21-10 15-16 17-8 8-11 7-8 7-11 7-18 10-18 8-9 3-10 3-18 6-9 1-3 2-5 1-29 1-2 2h-5l-4-2-28-1-10-2-17-3-13-4-7-3-13-5-12-5-17-10-9-6-11-8-28-28-13-19-10-13-4-11-12-25-8-24-6-23-2-6-3-20-2-11-2-17-2-10-1-52-3-7v-23l3-2 1-78 3-2 1-33 3-4 1-15 3-5 1-13 3-8 2-12 3-8 5-13 7-19 4-10 7-10 6-9 6-10 3-6 11-12 25-25 9-7 14-8 8-5 14-7 9-3 13-4 12-4 2-1 16-2 5-2 24-1z" fill="#40C139"/>
<path transform="translate(647,768)" d="m0 0h42l4 2 19 2 18 8 17 9 10 7 9 7 6 9 11 13 10 19 8 22 4 15 3 12 2 22 2 6 1 30 1 12 2 4v136l-3 3-1 35-3 5-1 22-3 10-2 10-2 6-2 10-3 9-6 11-3 4h-2l-2 4-5 8-3 4h-2l-2 4-5 8-11 11-10 6-8 5-20 10-10 1-7 3-14 1-6 3h-19l-3-3-15-1-5-3-10-2-9-3-17-8-7-6-9-13-6-8-14-27-14-28-5-14-6-24-2-13-1-14-2-3-1-17v-117l1-27 2-3 2-36 2-5 2-26 2-5 2-12 2-5 3-13 12-25 8-15 14-15 8-7 7-6 9-6 9-7 6-3 9-3z" fill="#FEFFFE"/>
<path transform="translate(138,76)" d="m0 0 17 2 13 4 9 5 10 9 8 11 7 16 5 21 4 27 1 5v17l-3 13-3 16-5 15-8 15-8 9-14 9-16 6-10 2h-15l-16-4-14-7-10-9-7-9-7-14-4-15-3-17-1-15 1-32 4-26 4-12 7-14 11-12 8-6 13-6 15-3z" fill="#FEFFFE"/>
<path transform="translate(1161,1752)" d="m0 0 18 2 13 4 9 5 10 9 8 11 7 16 5 21 4 27 1 5v17l-3 13-3 16-6 17-8 14-7 8-14 9-16 6-10 2h-14l-14-3-12-5-10-7-7-7-9-14-6-17-4-22-1-15 1-32 3-21 4-15 8-16 11-12 8-6 13-6 14-3z" fill="#FEFFFE"/>
<path transform="translate(1154,1775)" d="m0 0h15l11 4 9 6 7 10 5 13 2 11 1 13v45l-2 17-3 12-6 10-7 8-14 7-3 1h-13l-11-4-6-4-7-10-7-16-3-15-1-12v-21l2-28 3-17 5-12 7-9 10-7z" fill="#40C139"/>
<path transform="translate(130,99)" d="m0 0h15l11 4 9 6 7 10 5 13 2 11 1 13v45l-2 17-3 12-6 10-6 7-12 7-7 2h-12l-11-4-5-3-7-10-7-14-3-11-2-20v-20l2-28 3-17 5-12 7-9 10-7z" fill="#40C139"/>
</svg>
