<?xml version="1.0" encoding="UTF-8"?>
<svg version="1.1" viewBox="0 0 1296 2016" width="324" height="504" xmlns="http://www.w3.org/2000/svg">
<path transform="translate(0)" d="m0 0h1296v2016h-1296z" fill="#FEFEFE"/>
<path transform="translate(0)" d="m0 0h1296v352l-5-5-8-13-13-22-7-11-7-9-8-10-10-10-14-11-15-11-22-13-12-6-32-13-23-6-13-3-16-2-8-2-25-2-13-2-36-1-15-1-6-2h-55l-9 3-34 1-10 3-18 1-10 3-17 1-9 3-10 2-15 5-14 3-15 4-12 4-16 6-15 6-14 6-13 5-20 8-20 10-18 11-26 13-20 13-13 9-9 7-15 10-16 11-11 10-9 6-7 7-10 8-9 7-13 12-9 6-12 12-6 5-5 6-7 6-5 6-8 7-7 7-7 8-8 11-7 7-9 11-4 6-9 9-7 8-9 12-8 8-11 15-9 13-7 9-12 16-13 19-7 9-16 24-6 11-22 33-6 11-13 20-14 27-6 9-14 27-6 9-9 17-9 19-10 19-24 48-12 26-7 17-5 11-5 12-11 24-7 17-5 11-7 17-5 11-7 20-14 35-6 17-14 35-10 29-6 15-12 36-8 23-3 6h-1z" fill="#40C138"/>
<path transform="translate(1294,768)" d="m0 0h2v1248h-1296v-320l5 5 8 13 10 17 8 13 9 10 7 10 9 10 16 12 9 8 16 9 13 8 20 9 13 5 17 6 16 4 11 2 7 2 19 1 7 3 42 1 4 3h54l1-3 54-1 16-1 10-2 18-2 10-2 18-2 2-1 28-3 18-4 18-5 21-5 12-2 17-4 17-5 13-5 41-14 18-7 21-8 66-33 18-10 22-14 10-6 11-7 9-6 10-7 9-6 10-7 11-10 9-6 8-8 18-14 11-9 9-7 42-42 5-8 3-4h2l2-4 20-20 5-8 3-4h2l2-4 8-8 5-8 3-4h2l2-4 5-6 4-6 7-8 6-10 7-10 7-11 6-9 7-10 6-9 7-11 7-10 12-22 11-22 11-19 14-27 15-30 12-28 8-20 8-16 10-24 8-22 10-29 11-30 12-37 2-5 3-12 5-16 3-12 5-16 2-11 3-8 3-9 2-11 3-9 3-7 2-16 2-2 2-14 2-3 2-17 2-2 2-14 2-4 2-16 2-3 2-13 2-4 2-16 2-4 1-15 2-6 1-2 1-15 3-7 1-5 1-14z" fill="#40C138"/>
<path transform="translate(488,732)" d="m0 0h423l1 1v58l-3 5-7 7-12 16-7 7-9 12-10 13-18 24-8 11-6 9-6 11-22 33-6 11-6 9-6 11-10 17-7 13-6 10-14 28-5 14-4 10-7 16-4 11-8 17-5 14-3 7-3 13-6 16-4 10-8 24-4 14-5 18-2 5-3 17-1 3-2 24-2 8-2 26-2 5-2 31-2 4-2 18-1 1h-81l-1-1v-13l1-13 2-3 1-37v-7l3-3 1-33 3-3 1-15 3-6 2-13 2-4 2-11 10-30 3-12 8-25 4-15 5-16 5-13 15-30 6-15 11-23 42-84 14-22 7-10 4-5 3-6 8-9 5-8 16-24 4-5 3-6 4-5h2l2-4 7-7 6-9 3-4h2l2-4 2-3h-315l-1-1z" fill="#40C138"/>
<path transform="translate(1093,1756)" d="m0 0h146l1 1v17l-9 11-12 14-12 17-14 21-10 18-7 16-5 12-6 15-5 18-5 30-1 8-2 2h-26l-2-1v-7l4-29 5-19 9-27 16-32 12-21 12-16 11-14 7-8 1-2h-108l-2-2v-19z" fill="#FEFEFE"/>
<path transform="translate(69,80)" d="m0 0h146l1 1v17l-9 11-12 14-12 17-14 21-10 18-7 16-5 12-8 21-4 16-5 34-2 2h-26l-2-1v-7l4-29 5-19 9-27 16-32 12-21 12-16 11-14 7-8 1-2h-108l-2-2v-19z" fill="#FEFEFE"/>
</svg>
