<?xml version="1.0" encoding="UTF-8"?>
<svg version="1.1" viewBox="0 0 1296 2016" width="324" height="504" xmlns="http://www.w3.org/2000/svg">
<path transform="translate(0)" d="m0 0h1296v2016h-1296z" fill="#FEFEFD"/>
<path transform="translate(0)" d="m0 0h1296v352l-5-5-8-13-18-30-10-13-7-9-10-10-10-8-15-11-14-9-17-10-27-11-16-6-19-5-13-3-17-2-8-2-24-2-3-1-11-1-41-1-9-1-6-2h-54l-8 3-34 1-10 3-20 1-10 3-16 1-9 3-11 2-19 6-9 2-18 5-12 4-14 5-15 6-14 6-13 5-15 6-17 8-16 9-10 6-31 16-12 8-16 11-9 7-31 21-6 5-5 5-9 6-8 8-9 7-10 8-7 6-5 5-9 6-36 36h-2l-2 4-6 5-7 8-8 9-4 6-14 15-6 9-7 7-7 8-7 9-7 8-9 10-9 13-8 11-12 16-10 14-9 13-9 12-13 20-8 14-7 10-13 20-8 14-7 10-8 14-13 24-6 10-12 23-6 9-11 22-9 17-11 23-9 17-11 23-8 16-24 56-7 15-10 23-11 26-5 11-7 20-6 15-7 17-7 20-6 15-7 17-10 30-7 17-12 36-9 26-3 3z" fill="#3FC038"/>
<path transform="translate(1294,768)" d="m0 0h2v1248h-1296v-320l5 5 8 13 10 17 8 13 9 10 10 14 7 7 14 10 6 5v2l5 2 15 9 13 8 18 8 20 8 13 4 16 4 10 2 8 2 18 1 7 3 42 1 5 3h50l4-3 53-1 17-1 6-2 21-2 8-2 20-2 11-2 20-2 18-4 18-5 21-5 15-3 16-4 15-4 12-5 33-11 30-11 20-8 32-16 19-10 16-8 15-8 15-10 17-10 48-32 12-11 9-6 9-9h2v-2l5-4 7-4 8-8 13-9 44-44 3-7 29-29 6-10 14-14 6-10 10-10 5-8 9-12 7-10 6-9 7-11 7-10 7-11 16-24 10-17 9-19 9-16 8-14 10-19 8-16 15-31 5-13 7-16 5-12 10-21 10-26 14-41 6-15 12-35 7-22 3-12 5-15 3-13 5-15 3-13 5-15 2-11 3-9 3-8 2-15 2-3 2-13 2-4 2-16 2-3 2-13 2-4 2-16 2-3 2-13 2-5 2-15 2-4 2-21h2l1-17 3-7 2-19z" fill="#3FC038"/>
<path transform="translate(652,680)" d="m0 0h271l1 1-1 475-198 1h-73z" fill="#3FC038"/>
<path transform="translate(448,1040)" d="m0 0h188v131h79l1 1-1 344h-266l-1-1z" fill="#3FC038"/>
<path transform="translate(178,100)" d="m0 0h17l11 4 9 5 8 7 4 8 1 5v22l-4 12-6 9-6 7-8 7-25 25-9 11-1 2h56l3 2v13l-2 1h-76l-6-2 1-6 7-14 10-14 9-10 11-9 17-16 6-8 7-14 1-5v-8l-3-8-4-5-8-4-6-2-8 1-10 5-5 6-1 2-1 11-1 3h-11l-5-3 1-9 7-16 8-9z" fill="#FEFEFD"/>
<path transform="translate(1202,1784)" d="m0 0h17l11 4 9 5 7 6 5 9 1 4v23l-4 12-6 9-9 10-8 7-22 22-10 13h56l3 2v12l-2 2h-76l-6-2 1-6 7-14 10-14 9-10 11-9 17-16 6-8 7-14 1-5v-8l-3-8-4-5-10-5-9-1-9 4-6 4-4 6-1 11-1 3h-11l-5-3 1-9 7-16 8-9z" fill="#FEFEFD"/>
<path transform="translate(448,1040)" d="m0 0h187v9h-3l-3-3-6-1 2-2-165-1-2 5-5 2-2 7v18l3 17 1 6 1 22 1 6-1 4v306l1 37-1 5 2 1-1 1v9 3l-1 7-1 6 3 5 2 1v2l4 2 13 1v1h-28l-1-1z" fill="#2EB232"/>
<path transform="translate(653,681)" d="m0 0h28v1h-17l-2 5-6 2-1 7v19l3 11 1 11 1 22v231l1 3-1 3v42l-2 23-1 23-1 10v33l-1 20v3l2 3 5 1-2 2h-8v-155z" fill="#2EB232"/>
<path transform="translate(1107,1809)" d="m0 0h12l1 1 1 16v22h32l2 6v6l-2 3-32 1-1 38-4 1h-7l-2-1v-39h-34l-2-2v-9l1-3 2-1h33l-1-37z" fill="#FEFEFD"/>
<path transform="translate(83,125)" d="m0 0h12l1 1 1 15v23h32l2 5v7l-2 3-32 1-1 38-4 1h-7l-2-1v-39h-34l-2-3v-8l2-4h34l-1-37z" fill="#FEFEFD"/>
<path transform="translate(471,403)" d="m0 0h2l-2 4-30 30h-2l-2 4-6 5-7 8-8 9-4 6-14 15-6 9-7 7-7 8-7 9-7 8-9 10-9 13-8 11-12 16-10 14-9 13-9 12-7 10-1-4 7-9v-3l5-5 4-5h2l2-6 7-9v-3h3l2-5 4-5h2v-3h2l1-4 7-9h2l2-6 6-8h2l1-4 10-13h2l2-4 3-1 2-6h2l1-4 5-5 3-4h2l2-4h2l2-4 3-1 2-6 3-4h2l2-5h2l2-4h2l2-4 3-1 2-5 9-11 4-5 5-5 3-1 2-4h2l1-3 6-5 5-6 16-14z" fill="#32B533"/>
<path transform="translate(448,1040)" d="m0 0h187v9h-3l-3-3-6-1 2-2-165-1-2 5-5 2-2 7-1 18-1 50h-1z" fill="#36B835"/>
<path transform="translate(1294,768)" d="m0 0h2v38l-1 5-4 8-2 1-1 6 1 8v6l-2 5h-2l1 3-2 9-1 2h-2l-2 12h-3v-9l3-10 2-15 2-4 2-21h2l1-17 3-7 2-19z" fill="#30B433"/>
<path transform="translate(0,1696)" d="m0 0 5 5 8 13 10 17 8 13 9 10 10 14 7 7 4 3-1 2-8-6v-2h-2v-2h-2l-5-6-3-3-2-4-3-1-6-6-2-5-1-3-8-7v-3l-3-1-2-7-2-2-2-5-3-3v-2h-2v-2h-2l-2-4z" fill="#30B332"/>
<path transform="translate(800,681)" d="m0 0h123v10l-2 2-3-4v-2l-7-1-1-3-110-1z" fill="#2EB232"/>
<path transform="translate(1285,332)" d="m0 0 5 1 2 1v4l4-1v15l-5-5-7-11z" fill="#2FB332"/>
<path transform="translate(9,1211)" d="m0 0 3 3-1 7-8 23-3 3v-10l4-1 1-6h-2l2-4 3-3 1-6z" fill="#31B533"/>
<path transform="translate(922,1127)" d="m0 0h1v29h-33v-1l28-1 3-1z" fill="#2EB232"/>
<path transform="translate(966,1555)" d="m0 0 2 1v2l-4 1-1 4-4 4-3 2-3 4h-2v2h-2v-3l5-5z" fill="#33B634"/>
<path transform="translate(1219,254)" d="m0 0 1 2h3v2l5 1 3 4 3 1v2h2v2h2v2l-4-1-11-9-4-3z" fill="#32B633"/>
<path transform="translate(17,1188)" d="m0 0 3 2-1 7-5 15-2 1 2-10-1-2h3l1-8z" fill="#31B433"/>
<path transform="translate(1258,293)" d="m0 0 4 1 3 4 2 5 5 8-1 2-8-11-5-7z" fill="#33B634"/>
<path transform="translate(994,1523)" d="m0 0 2 1-4 5-6 7-3 3h-2l2-4 7-8z" fill="#33B634"/>
<path transform="translate(61,1781)" d="m0 0h5l11 9v2l5 2v2l-5-2-6-4-1-3-6-4z" fill="#32B633"/>
<path transform="translate(44,1761)" d="m0 0 4 4 7 8 6 5-1 2-8-6v-2h-2v-2h-2l-5-6z" fill="#32B533"/>
<path transform="translate(1233,1833)" d="m0 0h2l-1 5-6 10-2 3h-2l1-4h2l1-4z" fill="#34B734"/>
<path transform="translate(713,1511)" d="m0 0h2v5h-31v-1l29-1z" fill="#2EB232"/>
<path transform="translate(209,149)" d="m0 0h2l-1 5-6 10-2 3h-2l1-4h2l1-4z" fill="#34B734"/>
<path transform="translate(1011,1502)" d="m0 0 2 1-5 5-3 5-4 2 2-4 7-8z" fill="#34B734"/>
<path transform="translate(1239,270)" d="m0 0 2 1 1 3h3l1 4 4 1v3l-4-2-7-7z" fill="#33B634"/>
<path transform="translate(494,384)" d="m0 0h2l-2 4-8 7-3-1 4-2 1-3z" fill="#32B533"/>
<path transform="translate(9,1211)" d="m0 0 3 3-1 7-2 4-2-1 2-7z" fill="#2FB332"/>
<path transform="translate(271,652)" d="m0 0 1 3-8 12-2 1 1-4z" fill="#33B634"/>
<path transform="translate(518,364)" d="m0 0h2l-2 4-8 7-3-1z" fill="#32B533"/>
<path transform="translate(758,1727)" d="m0 0 2 1-4 4-10 5h-2v-2l13-7z" fill="#34B734"/>
<path transform="translate(210,179)" d="m0 0h2l-1 5h-3l-1 3-4 1 2-4z" fill="#32B633"/>
<path transform="translate(1268,905)" d="m0 0 1 3-2 6-1 8h-1v-13z" fill="#30B433"/>
<path transform="translate(1234,1864)" d="m0 0h2l-1 4h-3v3l-5 1 2-4z" fill="#34B734"/>
<path transform="translate(1251,973)" d="m0 0h2l1 4-4 7h-1v-7z" fill="#32B533"/>
<path transform="translate(252,682)" d="m0 0 1 3-6 10h-2l2-5z" fill="#32B633"/>
<path transform="translate(190,199)" d="m0 0 2 1-2 4h-2l-2 3-4 2 2-4z" fill="#35B834"/>
</svg>
