<?xml version="1.0" encoding="UTF-8"?>
<svg version="1.1" viewBox="0 0 1296 2016" width="324" height="504" xmlns="http://www.w3.org/2000/svg">
<path transform="translate(0)" d="m0 0h1296v2016h-1296z" fill="#FEFFFE"/>
<path transform="translate(0)" d="m0 0h1296v352l-5-5-8-13-13-22-7-11-7-9-8-10-12-12-13-10-17-12-24-14-24-10-15-6-23-6-13-3-16-2-8-2-25-2-13-2-35-1-16-1-6-2h-55l-9 3-34 1-10 3-19 1-4 2-6 1-16 1-19 5-15 5-14 3-15 4-12 4-16 6-15 6-14 6-16 6-21 9-23 12-9 6-28 14-20 13-13 9-9 7-27 18-14 12-11 8-4 4h-2v2l-10 8-9 7-13 12-9 6-12 12-6 5-5 6-8 7-19 19-7 8-8 11-7 7-9 11-4 6-9 9-7 8-9 12-8 8-9 12-8 12-10 13-7 9-14 20-6 8-9 13-10 15-8 14-22 33-6 11-13 20-14 27-6 9-13 25-8 13-8 15-8 16-9 19-10 19-16 32-12 26-7 17-5 11-5 12-11 24-7 17-5 11-6 15-6 13-7 20-14 35-6 17-5 11-5 14-7 18-7 21-6 15-12 36-10 28-2 1z" fill="#40C139"/>
<path transform="translate(1294,768)" d="m0 0h2v1248h-1296v-320l5 5 8 13 10 17 8 13 9 10 7 10 9 10 16 12 9 8 16 9 13 8 20 9 13 5 17 6 16 4 11 2 7 2 19 1 6 3 42 1 5 3h54l1-3 55-1 15-1 10-2 18-2 10-2 18-2 2-1 29-3 6-2 11-2 18-5 14-3 7-2 12-2 17-4 17-5 27-10 27-9 26-10 17-7 62-31 18-10 22-14 10-6 11-7 9-6 10-7 9-6 10-7 11-10 9-6 8-8 18-14 11-9 8-6 43-43 5-8 9-10 18-18 5-8 9-10 7-8 4-6 3-4h2l2-4 5-6 4-6 7-8 6-10 7-10 7-11 6-9 7-10 6-9 7-11 7-10 12-22 11-22 14-24 28-56 10-24 12-28 9-19 9-23 11-33 13-35 13-40 2-5 3-12 5-16 3-12 5-16 2-11 3-8 3-9 2-11 6-16 2-16 2-2 2-14 2-3 2-17 2-2 2-14 2-4 2-16 2-2 2-14 2-4 2-16 2-4 1-15 2-6 1-2 1-15 3-7 1-5 1-14z" fill="#40C139"/>
<path transform="translate(903,636)" d="m0 0h5v29l-1 41-2 3-1 31-1 110-2 3-1 28v43l-4-2-18-18-10-8-11-9-11-11-8-7-7 6-13 13-6 9-16 17-30 30-5 8-16 17-31 31-5 8-16 17-31 31-5 8-16 17-31 31-6 9-15 16-6 6h-3l-5-9-9-15-9-17-8-24-1-6-1-16-2-5-1-7v-26l1-2h2l1-20 3-7 2-9 6-5 4-6 3-5 9-10 7-7 5-8 3-4h2l2-4 8-8 5-8 3-4h2l2-4 13-13 3-6 4-5h2l2-4 8-8 5-8 3-4h2l2-4 13-13 3-6 4-5h2l2-4 8-8 5-8 3-4h2l2-4 8-8 4-8 7-7h2l-1-4-11-7-8-7-6-4-13-10-28-21 1-3 20-7 16-6 10-4 30-10 16-6 11-4 35-12 17-6 27-10 27-9 26-10z" fill="#40C139"/>
<path transform="translate(787,955)" d="m0 0 4 1 7 8 17 34 2 12 3 8 4 13 1 15 3 7v13l-2 10-2 9-4 16-4 13-7 14-7 8-6 9-7 7-7 8-6 7-4 6-9 9-7 8-10 10-6 9-9 9-7 8-8 9-4 6-9 9-7 8-10 10-6 9-8 8-7 8-11 11-10 15 1 4 9 8 9 6 9 7 24 18 5 4 9 5 1 4-12 5-16 6-23 8-12 4-16 6-19 7-23 8-15 6-29 10-15 6-41 14-15 6-6 3h-5v-71l3-2 1-142 3-2 1-72 5 3 7 8 12 11 9 6 28 28 4-2 9-10 36-36 5-8 3-4h2l2-4 24-24 6-10 26-26 4-8h2l2-4 28-28 4-8h2l2-4 24-24 4-8h2l2-4 24-24 4-8 31-31z" fill="#40C139"/>
<path transform="translate(1225,1720)" d="m0 0h7v46l-1 24v17l-4 1-8-8-8-7h-2l-9 11-8 9h-2l-2 4-5 6h-2l-2 4-9 9-7 8-16 17-10 11-6 7-4-2-7-17-2-11v-10l2-9 7-11 12-14 14-17 12-14 8-9-1-4-11-7-7-6v-2l29-11z" fill="#FEFFFE"/>
<path transform="translate(201,48)" d="m0 0h7v47l-1 35v5l-4 1-8-8-8-7h-2l-9 11-8 9h-2l-2 4-5 6h-2l-2 4-9 9-7 8-16 17-10 11-6 7-4-2-7-17-2-11v-10l2-9 7-11 13-15 11-14 9-10 9-11 4-4-1-4-16-11-2-4 24-9 44-16z" fill="#FEFFFE"/>
<path transform="translate(169,148)" d="m0 0 4 1 5 8 4 12 1 5v14l-4 12-8 11-12 13-9 11-10 11-9 11-4 4 1 5 16 12 1 4-31 11-29 11-13 4-5-1 1-15 1-12 2-59 1-2 4 2 10 9 4 4 3-1 7-8 15-16 7-8 9-10 12-14 12-13 9-11z" fill="#FEFFFE"/>
<path transform="translate(1193,1820)" d="m0 0 4 1 5 8 4 12 1 5v14l-4 12-8 11-12 13-9 11-9 10-14 16 1 5 16 12 1 4-36 13-30 11-7 2h-4l-1-2 1-14 1-10 2-61 1-2 4 2 10 9 4 4 3-1 2-3h2l2-4 15-16 9-10 7-8 9-10 7-8 9-10 9-11z" fill="#FEFFFE"/>
</svg>
