<?xml version="1.0" encoding="UTF-8"?>
<svg version="1.1" viewBox="0 0 1296 2016" width="324" height="504" xmlns="http://www.w3.org/2000/svg">
<path transform="translate(0)" d="m0 0h1296v2016h-1296z" fill="#FEFFFE"/>
<path transform="translate(0)" d="m0 0h1296v352l-5-5-8-13-12-20-7-11-14-19-12-12-10-8-15-11-14-9-17-10-27-11-20-7-28-7-17-2-10-2-23-2-2-1-11-1-42-1-10-2-4-1h-54l-8 3-34 1-10 3-20 1-10 3-16 1-9 3-11 2-19 6-9 2-18 5-12 4-14 5-9 4-13 5-6 3-9 3-12 5-10 4-16 8-15 8-10 6-31 16-12 8-16 11-9 7-22 15-10 7-5 4-5 5-9 6-8 8-9 7-10 8-7 6-5 5-9 6-40 40-6 5-7 8-8 9-4 6-13 14-7 10-7 7-7 8-7 9-7 8-9 10-9 13-7 10-9 12-10 13-10 15-10 13-10 15-10 17-23 35-8 14-10 15-15 28-9 15-12 23-7 11-10 20-9 17-11 23-24 48-9 19-7 17-12 28-7 15-10 23-11 26-5 11-7 20-6 15-7 17-7 20-6 15-7 17-10 30-6 14-12 36-10 29-3 3z" fill="#40C13A"/>
<path transform="translate(1294,768)" d="m0 0h2v1248h-1296v-320l5 5 8 13 18 30 9 10 8 11 9 10 14 10 9 8 17 10 13 8 18 8 20 8 13 4 16 4 10 2 8 2 18 1 7 3 42 1 5 3h49l5-3 52-1 18-1 6-2 21-2 8-2 20-2 11-2 20-2 18-4 18-5 21-5 15-3 16-4 15-4 12-5 33-11 30-11 20-8 16-8 19-10 21-10 19-10 18-11 9-6 15-9 42-28 14-12 11-8 8-8h2v-2l14-10 10-9 6-4 10-9 37-37 4-8h2l2-4 24-24 6-10 14-14 6-10 10-10 5-8 9-12 7-10 6-9 7-11 7-10 7-11 16-24 8-14 10-19 8-16 8-13 8-15 9-19 10-19 9-20 5-12 7-17 9-20 7-15 10-26 12-36 6-15 12-35 7-22 3-12 5-15 3-13 5-15 3-13 5-15 2-11 2-4 2-8 2-5 2-15 2-4 2-12 2-4 2-16 2-3 2-13 2-4 2-16 2-4 2-12 2-5 2-15 2-4 1-18 1-3h2l1-17 3-7 2-19z" fill="#40C13A"/>
<path transform="translate(682,691)" d="m0 0h14l14 1 5 3h12l11 1 4 3 9 2 4 2 7 1 2 2 14 2 4 3 23 11 9 6 10 9 9 6 8 7v2l4 2v2l4 2 7 7 8 11 8 16 4 11 2 9 4 16 8 24 2 4v4l-46 1-6 3h-39l-3-12-2-7-2-9-6-15-7-11-4-6-9-8-15-11-14-9-16-8-7-3h-45l-9 3-14 1-10 3-9 2-10 5-10 7-11 9-9 6-11 11-6 9-9 10-6 10-12 26-3 13-5 15-3 13-4 16-2 9-2 7-1 3-2 36-2 3-1 25h4l2-4 12-12 8-7 6-3 22-22 7-4 15-8 6-3 11-3 1-1 13-2 12-6 25-1 5-3 22-1h23l16 1 5 3 10 1 6 3 8 2 9 3 23 11 13 7 9 6 11 6 12 11 11 7 9 11 7 11 10 15 8 13 7 15 11 33 1 5 1 19 3 4v46l-1 14-2 5-2 14-9 27-6 14-7 14-16 28-10 11-7 10-15 16-12 8-8 8-7 4-21 11-17 8-10 1-5 3-11 1-6 3-26 1-6 3h-46l-6-3-24-1-9-3-10-2-6-2-10-2-16-8-25-13-10-7-13-10-9-7-21-21-10-14-6-9-12-23-10-21-10-26-3-11-2-12-2-9-1-14-3-13-1-39-3-11v-98l3-1 1-43 3-1 1-26 3-5 2-12 13-38 6-15 6-17 8-15 10-17 7-10 6-9 21-21 13-9 7-7 11-7 13-8 15-8 5-4 13-5 8-3 12-2 3-2 11-3 2-1 28-2 3-2z" fill="#40C13A"/>
<path transform="translate(648 1e3)" d="m0 0h40l8 3 12 2 1 1 11 2 5 2 14 3 16 8 12 11 13 13 10 14 6 8 7 14 2 10 1 8 2 5 2 23 2 4v46l-3 7-1 9-4 11-9 19-7 11-7 9-4 6-8 8-4 5-2 5-5 5-5 4-17 8-9 3-9 2-7 3-13 1-7 3h-30l-3-3-15-1-5-3-13-2-12-6-7-4-5-4-7-4-7-7-6-3-5-5-4-5-12-22-8-13-8-17-3-13-2-9-1-9-2-4-1-18v-15l1-15 2-4 2-12 3-8 5-13 9-17 9-11 4-6 8-7 11-7 15-10 14-9 13-6 13-3z" fill="#FEFFFE"/>
<path transform="translate(1161,1752)" d="m0 0h20l14 3 14 7 10 9 7 11 5 15-1 5-23 1-3-3-5-12-7-8-8-5-6-2h-13l-13 4-11 8-6 8-5 11-5 18-4 24 5-3 10-10 14-7 14-3h21l13 4 15 9 9 9 6 10 5 12 2 11v18l-4 15-8 16-11 12-9 7-13 5-11 2h-22l-14-3-10-4-11-8-8-8-8-14-5-12-3-15-2-20v-27l2-21 5-19 7-16 6-9 7-8 13-9 11-5 6-2z" fill="#FEFFFE"/>
<path transform="translate(137,76)" d="m0 0h19l15 3 14 7 11 10 6 10 5 15-1 5-23 1-3-3-6-14-9-8-8-4-3-1h-12l-12 3-11 7-7 8-6 13-5 18-4 24 5-3 9-9 10-6 12-4 7-1h21l13 4 13 8 10 9 6 9 5 11 3 14v17l-4 16-8 16-11 12-9 7-13 5-11 2h-22l-14-3-10-4-11-8-8-8-8-14-5-12-3-15-2-19v-29l2-20 4-16 8-19 6-9 7-8 13-9 11-5 6-2z" fill="#FEFFFE"/>
<path transform="translate(621,1375)" d="m0 0h116l160 1 14 1 5 5v6l-4 6-5 2h-475l-5-3-3-3v-8l3-5 2-1z" fill="#40C13A"/>
<path transform="translate(1157,1844)" d="m0 0h17l15 5 8 7 7 10 3 10 1 7v15l-4 12-9 13-7 6-10 4-4 1h-10l-12-3-10-7-6-7-7-14-2-9v-16l4-13 8-11 11-7z" fill="#40C13A"/>
<path transform="translate(133,168)" d="m0 0h17l15 5 8 7 7 10 3 10 1 7v15l-4 12-9 13-7 6-10 4-4 1h-10l-12-3-11-8-7-9-5-11-2-9v-16l4-13 8-11 11-7z" fill="#40C13A"/>
<path transform="translate(74,281)" d="m0 0 140 1 1 5-1 1h-144l-2-5z" fill="#FEFFFE"/>
<path transform="translate(1093,1958)" d="m0 0h145l1 5-1 1h-144l-2-5z" fill="#FEFFFE"/>
</svg>
