<?xml version="1.0" encoding="UTF-8"?>
<svg version="1.1" viewBox="0 0 1296 2016" width="324" height="504" xmlns="http://www.w3.org/2000/svg">
<path transform="translate(0)" d="m0 0h1296v2016h-1296z" fill="#FEFEFE"/>
<path transform="translate(0)" d="m0 0h1296v352l-5-5-21-35-7-11-14-18-14-14-19-14-15-10-21-12-27-11-17-6-28-7-16-2-9-2-23-2-10-2-37-1-18-1-6-2h-56l-4 2-39 2-5 2-9 1-15 1-4 2-22 2-10 3-10 2-12 4-32 8-20 7-27 11-15 6-27 11-20 10-15 9-23 12-16 9-16 11-11 8-5 4-27 18-5 4h-2v2l-10 8-8 6-13 12-11 8-13 12-10 7-8 8-8 7-38 38-9 12-7 8-9 10-7 10-10 10-9 11-6 8-7 7-9 12-11 16-14 18-14 20-11 15-10 15-7 11-7 12-10 15-11 17-7 12-10 15-13 25-9 15-12 23-8 13-14 27-42 84-7 16-6 15-6 13-5 12-11 24-6 15-6 12-4 11-8 18-7 20-5 11-5 14-7 18-4 11-5 12-5 13-7 20-9 24-11 31-12 36-3 6h-1z" fill="#3FC038"/>
<path transform="translate(1294,768)" d="m0 0h2v1248h-1296v-320l5 5 21 35 7 11 7 7 9 13 9 9 13 9 10 9 16 9 9 6 21 10 14 5 10 4 14 4 21 5 8 2 19 1 6 3 42 1 4 3h55l1-3 57-1 13-1 10-2 18-2 10-2 18-2 11-2 20-2 17-4 6-2 10-2 17-4 8-2 27-6 17-5 24-9 33-11 15-6 15-5 80-40 13-8 11-7 10-6 22-14 10-7 11-7 9-6 8-7 10-8 8-6 7-7 9-7 8-6 10-9 9-6 45-45 3-6 5-5 9-10 15-15 3-6 5-5 9-10 7-10 7-8h2l2-4 5-8 7-8 5-8 7-11 7-10 7-11 7-10 10-15 11-17 10-18 12-24 14-24 28-56 10-24 12-28 7-15 11-27 12-35 6-16 10-28 10-31 4-15 6-21 5-18 2-4 2-11 5-15 2-8 2-7 3-11 2-4 2-16 2-2 2-14 2-3 2-17 2-2 2-14 2-3 2-17 2-2 2-14 2-4 2-16 2-3 2-21 2-3 1-14 3-7 2-19z" fill="#3FC038"/>
<path transform="translate(521,720)" d="m0 0h350l1 1-1 79-278 1-4 8-2 17-3 9-2 9-4 20-4 19-4 17-4 20-5 24-3 12-2 7 5-2 27-13 8-3 20-9 11-4 12-2 5-2h88l6 3 10 3 11 5 9 3 11 3 3 2 10 3 16 8 10 7 11 9 6 5 8 6 13 13 8 11 11 15 9 16 7 15 4 12 2 15 2 4 2 29 2 2v57l-2 4-3 14-7 21-9 19-9 16-6 9-7 8-15 16-6 8-14 16-6 5-5 6-12 8-10 6-4 2-8 2-19 9-16 5-10 2-5 2-14 4-9 2-2 1-12 1h-64l-9-2-16-4-26-7-28-10-21-11-12-11-10-9-8-6-10-9-7-7-9-12-13-20-4-10-11-33-5-20v-8l2-1 18-1 6-3 42-1v-2l2-1h20l2 2 3 9 5 17 3 9 11 23 8 15 9 10 7 7 16 9 21 10 11 1 5 3 15 1 3 3h45l4-3h7l7-2 19-10 13-7 13-12 8-5 6-6 3-6 5-6 3-6 8-9 6-13 2-6 2-9 1-10 2-3 2-21 2-2v-37l-2-3-1-18-2-9-9-17-14-22-7-9-4-6-9-8-27-14-19-7-13-3-4-1h-77l-15 5-16 8-10 6-10 9-10 7-9 9-6 9-6 6h-13l-7-3-29-1-7-1-4-2-21-2 1-10 2-4 2-16 2-3 2-17 2-3 2-17 2-3 1-16 2-6 1-2 2-17 2-3 2-17 2-2 2-18 2-3 2-17 2-2 2-18 2-2 2-18 2-2 2-18 2-3 1-16 2-6 1-1 2-18 2-2 2-18 2-2 1-13z" fill="#3FC038"/>
<path transform="translate(1116,1752)" d="m0 0h103l5 2v21h-86l-5 27-5 22v3l17-8 8-2 20-1 12 2 14 5 11 7 9 8 9 14 3 8 1 6v33l-4 13-7 12-11 12-9 8-12 5-14 3h-31l-14-3-9-4-11-8-9-10-7-14-2-6v-10l2-1 17-1 6-1 3 2 4 12 5 9 6 7 12 6 9 2h13l10-4 9-6 7-7 5-10 3-13v-17l-4-13-6-9-1-3-4-2-7-4-11-4h-24l-10 4-10 9-4 6-9-1-16-2-1-1 1-8 12-64 5-29z" fill="#FEFEFE"/>
<path transform="translate(91,76)" d="m0 0h106l3 1 1 2v17l-1 1h-87l-5 26-6 25 18-8 8-2 18-1 15 2 14 5 9 5 11 9 9 13 3 8 1 6v34l-4 13-7 11-12 13-6 5-10 5-14 5-8 1h-26l-10-2-16-7-8-6-7-6-9-13-3-10v-12l1-1 17-1 6-1 3 2 5 15 7 10 11 7 15 4h9l12-4 11-7 7-8 4-8 3-12 1-12-3-14-6-11-7-7-10-5-6-2-7-1h-18l-9 3-9 6-9 10-18-2-7-1v-7l5-24 11-57 2-11z" fill="#FEFEFE"/>
</svg>
