<?xml version="1.0" encoding="UTF-8"?>
<svg version="1.1" viewBox="0 0 1296 2016" width="324" height="504" xmlns="http://www.w3.org/2000/svg">
<path transform="translate(0)" d="m0 0h1296v2016h-1296z" fill="#FEFEFE"/>
<path transform="translate(0)" d="m0 0h1296v352l-5-5-8-13-18-30-9-12-8-10-10-10-10-8-15-11-14-9-17-10-27-11-16-6-19-5-13-3-16-2-8-2-25-2-13-2-36-1-15-1-6-2h-55l-8 3-35 1-9 3-19 1-10 3-16 1-10 3-10 2-15 5-13 3-16 4-26 9-11 5-13 5-35 14-25 12-18 11-19 10-12 6-15 10-13 9-9 7-15 10-16 11-11 10-9 6-8 8-18 14-8 7-5 5-9 6-12 12-6 5-5 6-7 6-5 6-8 7-7 7-7 8-8 11-7 7-9 11-4 6-8 8-7 8-7 9-7 8-11 13-10 15-10 13-12 16-10 15-8 10-18 27-6 11-22 33-6 11-13 20-14 27-6 9-14 27-6 9-9 17-9 19-10 19-24 48-12 26-7 17-5 11-6 15-8 16-6 15-8 18-7 17-5 11-7 20-14 35-6 17-14 35-10 29-8 21-14 41-5 15-3 3z" fill="#3FBF3B"/>
<path transform="translate(1294,768)" d="m0 0h2v1248h-1296v-320l5 5 8 13 10 17 8 13 9 10 7 10 9 10 16 12 9 8 16 9 13 8 20 9 13 5 18 6 16 4 10 2 7 2 19 1 7 3 42 1 4 3h54l1-3 54-1 16-1 6-2 22-2 7-2 21-2 2-1 28-3 18-4 18-5 21-5 12-2 17-4 17-5 13-5 41-14 18-7 21-8 66-33 18-10 11-7 9-6 12-7 11-7 9-6 10-7 18-12 12-11 9-6 8-8 18-14 11-9 9-7 42-42 5-8 3-4h2l2-4 20-20 5-8 3-4h2l2-4 8-8 6-10 4-2 2-4 5-6 4-6 3-4h2l2-5 9-13 6-9 7-11 7-10 7-11 6-9 7-10 9-15 8-15 8-16 6-11 10-17 24-48 8-18 5-12 8-19 13-28 10-26 13-38 7-18 12-35 7-21 4-16 4-12 2-11 3-8 3-9 2-11 3-8 3-9 2-11 3-9 3-7 2-16 2-3 2-13 2-4 2-16 2-2 2-14 2-4 2-16 2-3 2-13 2-4 2-16 2-4 1-15 2-6 1-2 1-15 3-7 1-5 1-14z" fill="#3FBF3B"/>
<path transform="translate(677,643)" d="m0 0 33 1 2 2 4 1 17 1 7 3 13 1 5 3 9 2 5 2 9 1 14 7 8 2 3 2 9 2 17 9 9 6 16 8 9 7 6 3 6 5 6 3 13 12 8 5 36 36 7 10 9 10 8 12 7 10 9 13 9 17 6 10 12 27 7 18 9 28 3 9 3 17 1 2 2 16 2 4 2 25 2 2v77l-2 4-2 23-2 5-2 15-3 10-2 9-4 16-11 33-11 24-3 7-6 10-12 23-11 14-6 9-7 10-9 10-6 9-15 16-12 12h-2l-2 4-18 14-9 8-11 7-15 10-14 8-10 6-12 6-10 3-11 5-22 8-9 2-5 2-8 2-6 2-14 2-7 2-14 1-9 3h-60l-14-3-16-2-14-3-16-4-13-4-8-2-12-4-15-6-23-11-10-6-17-10-12-8-11-8-13-11-8-6-10-9-25-25-8-11-11-13-8-12-8-11-6-9-8-16-10-17-5-12-7-15-14-43-3-12-4-20-3-13-2-25-2-6-1-8v-65l3-4 1-23 3-5 2-17 2-4 2-16 2-3 3-11 10-30 4-10 9-19 3-6 3-7 6-10 7-12 7-10 7-11 6-9 6-8h2l2-4 5-6 3-5 9-10 24-24 7-6 7-4 9-9 10-6 9-6 10-7 14-8 10-6 16-8 20-8 16-6 12-2 9-3 8-3 15-2 6-2 22-2 4-2z" fill="#3FBF3B"/>
<path transform="translate(646,716)" d="m0 0h58l5 2 19 2 10 3 9 3 13 3 20 8 26 13 16 9 22 15 12 11 9 7 11 9 4 4 1 4-4 5-11 9-6 4-3 1v2l-8 7-18 18-6 3-16 15-10 10-6 3-16 15-10 10-6 3-16 15-10 10-6 3-16 15-14 14-6 3-16 15-10 10-6 3-16 15-10 10-6 3-16 15-10 10-6 3-16 15-10 10-6 3-16 15-14 14-6 3-16 15-10 10-6 3-16 15-10 10-10 5-1 3-8 7-16 16-8 5-4-1-8-16-12-25-12-36-3-13-2-9-3-9-2-25-2-2-1-18v-36l1-16 2-3 2-23 2-5 2-12 2-4 2-12 3-8 10-30 8-17 9-17 7-14 8-12 9-11 8-11 7-7 6-9 7-6 6-4h2l2-4h2l1-3 8-7 7-7 24-16 16-9 34-17 12-4 15-4 16-5 22-2z" fill="#FEFEFE"/>
<path transform="translate(920,869)" d="m0 0 5 1 3 4 8 16 9 20 11 34 3 12 5 21 2 22 2 4v67l-3 4-1 23-3 9-2 10-2 7-2 9-3 9-7 20-8 18-14 28-7 12-7 10-2 3h-2l-2 4-5 8-6 7-5 5-5 8-11 11-6 3-16 15-8 7-9 6-11 7-8 5-19 10-3 3-10 3-13 6-9 3-12 2-6 3-16 4-14 1-4 2-8 1h-54l-3-3-23-1-5-3-10-2-3-2-13-2-2-2-10-2-9-5-1-1-9-2-8-6-19-9-9-7-7-4-3-3-6-3-10-9-23-23 2-4 25-25 10-6 22-22 10-6 22-22 8-5 3-1 1-3 8-7 12-12 9-6h2l2-4h2l1-3 8-7 12-12 9-6h2l2-4h2l1-3 8-7 8-8 9-6h2l2-4h2l1-3 8-7 8-8 9-6h2l2-4h2l1-3 8-7 8-8 9-6h2l2-4h2l1-3 8-7 8-8 9-6h2l2-4h2l1-3 8-7 12-12 9-6h2l2-4h2l1-3 8-7 8-8 8-5 3-1 1-3 8-7 12-12 8-5 3-1 2-4h2l1-3 8-7 11-11 11-7z" fill="#FEFEFE"/>
<path transform="translate(1150,1752)" d="m0 0h25l14 3 13 5 13 8 11 9 10 11 9 14 6 13 4 14 1 6v36l-4 17-6 15-8 13-11 13-10 9-11 7-13 6-15 4-9 1h-15l-17-3-14-5-11-6-11-9-10-10-12-18-6-15-4-14-1-5v-33l3-16 6-16 9-15 11-13 9-8 18-11 15-5z" fill="#FEFEFE"/>
<path transform="translate(126,76)" d="m0 0h25l14 3 13 5 10 6 13 10 7 7 11 15 8 17 4 14 1 7v34l-4 18-6 15-8 13-12 14-9 8-11 7-14 6-15 4-8 1h-15l-17-3-14-5-11-6-11-9-10-10-9-13-7-14-6-19-1-6v-34l3-15 5-14 8-14 8-10 9-10 14-10 14-7 14-4z" fill="#FEFEFE"/>
<path transform="translate(132,93)" d="m0 0h11l15 3 14 6 13 9 7 6-2 4-14 12-13 12-10 9-11 9-15 14-11 9-13 12-10 9-11 9-6 6-4-1-5-12-4-14-2-15 1-15 4-17 5-12 9-14 9-10 13-9 10-5 9-3z" fill="#3FBF3B"/>
<path transform="translate(1156,1769)" d="m0 0h11l15 3 14 6 13 9 7 6-2 4-14 12-13 12-10 9-11 9-15 14-11 9-13 12-10 9-11 9-6 6-4-1-5-12-4-14-2-14 1-16 4-17 5-12 9-14 9-10 13-9 10-5 9-3z" fill="#3FBF3B"/>
<path transform="translate(1226,1810)" d="m0 0 4 4 6 16 3 13v22l-4 16-5 12-6 11-9 11-10 9-10 6-8 4-15 4h-18l-17-4-13-7-10-8-4-5 2-4 11-9 15-14 11-9 14-13 8-7 15-13 12-11 8-7 10-9z" fill="#3FBF3B"/>
<path transform="translate(202,134)" d="m0 0 4 4 6 16 3 13v22l-4 16-5 12-7 12-8 10-10 9-10 6-11 5-12 3h-18l-17-4-16-9-11-10 2-5 11-9 15-14 11-9 14-13 8-7 14-12 13-12 8-7 10-9z" fill="#3FBF3B"/>
</svg>
