<?xml version="1.0" encoding="UTF-8"?>
<svg version="1.1" viewBox="0 0 1296 2016" width="324" height="504" xmlns="http://www.w3.org/2000/svg">
<path transform="translate(0)" d="m0 0h1296v2016h-1296z" fill="#FEFEFE"/>
<path transform="translate(0)" d="m0 0h1296v352l-5-5-8-13-18-30-10-13-7-9-10-10-10-8-15-11-14-9-17-10-27-11-16-6-19-5-13-3-17-2-8-2-24-2-3-1-11-1-40-1-10-1-6-2h-54l-8 3-34 1-11 3-19 1-10 3-16 1-9 3-11 2-19 6-9 2-18 5-24 8-11 5-13 5-35 14-21 10-15 9-19 10-22 12-12 8-14 10-8 6-31 21-6 5-5 5-9 6-8 8-18 14-8 7-5 5-9 6-16 16h-2l-2 4-4 4h-2l-2 4h-2l-2 4h-2l-2 4-6 5-7 8-10 10-6 9-7 7-9 11-4 6-7 7-7 8-7 9-7 8-9 10-9 13-8 11-12 16-10 14-9 13-9 12-13 20-7 12-18 27-10 17-13 20-14 27-7 11-13 25-6 9-9 17-10 21-9 17-11 23-10 19-11 23-11 26-12 28-7 15-10 23-5 12-11 25-7 20-6 15-7 17-7 20-6 15-7 17-7 21-6 16-7 19-13 38-5 15-3 3z" fill="#40C139"/>
<path transform="translate(1294,768)" d="m0 0h2v1248h-1296v-320l5 5 8 13 10 17 8 13 9 10 7 10 9 10 15 11 6 5v2l4 2 16 9 13 8 18 8 20 8 13 4 16 4 10 2 8 2 18 1 7 3 42 1 4 3h51l4-3 53-1 17-1 6-2 21-2 8-2 20-2 11-2 20-2 18-4 18-5 21-5 15-3 16-4 15-4 12-5 36-12 35-13 18-8 50-25 23-12 11-7 10-7 14-8 48-32 12-11 9-6 9-9h2v-2l5-4 7-4 8-8 13-9 44-44 6-10 26-26 5-8 3-4h2l2-4 8-8 6-10 10-10 5-8 9-12 7-10 6-9 7-11 7-10 7-11 16-24 10-17 9-19 6-10 3-6 8-14 12-23 14-28 8-18 5-12 8-19 13-28 10-26 14-41 5-12 13-38 7-21 3-13 5-15 3-13 5-15 3-13 5-15 2-11 3-9 3-8 2-15 2-3 2-13 2-4 2-16 2-3 2-13 2-4 2-16 2-3 2-13 2-4 2-16 2-4 1-15 2-6 1-2 1-15 3-7 2-19z" fill="#40C139"/>
<path transform="translate(674,687)" d="m0 0 20 1 4 3 20 1 4 3 9 4 7 1 2 2 14 2 4 3 23 11 17 9 6 3 9 6 11 6 5 4v2l4 2 8 11 9 11 8 10 11 15 8 13 8 16 6 16 3 14 4 16 4 20 1 1 2 29 2 3 2 54 3 3-1 73-2 2-2 61-2 4-2 24-2 5-2 14-6 18-2 11-8 20-16 32-6 10-14 21-11 14-4 6-8 10-4 6-8 9-15 8-11 9-9 6-7 4-6 3-8 2-4 2-8 2-5 2-9 1-5 3-11 1-6 3-14 1-6 3h-53l-8-3-10-2-18-5-16-5-12-3-16-6-10-6-13-11-11-8-17-17-8-13-10-21-5-10-5-17-6-20-6-16-1-4 2-1 18-2 3-2 37-2 3-2h21l1 1 1 9 3 8 1 11 13 27 6 9 1 3 4 2 8 5 9 8 6 3 6 5 9 4 7 1 4 3 8 1 4 3h54l5-2 1-1 9-2 4-2 8-2 24-12 26-26 5-9 6-10 7-12 5-12 4-10 7-15 4-11 2-12 2-3 2-13 2-3 2-13 2-3 1-11 3-7 1-56-5 3-34 34-12 8-8 7-11 7-9 5-8 2-13 6-8 2-5 2-25 1-6 3h-56l-8-3-15-2-10-5-21-7-19-9-10-7-8-6-9-7-9-9-7-10-9-10-7-10-8-11-9-17-10-23-4-10-7-29-2-8v-47l1-2h2l1-30 1-2h2l1-26 3-5 2-12 8-16 5-9 9-11 4-6 8-10 4-6 9-10 7-8 3-6h2l2-4 9-9 8-6 29-15 11-5 10-3 9-2 10-3 19-2 4-2 20-2 3-2z" fill="#40C139"/>
<path transform="translate(656,760)" d="m0 0h56l17 6 16 8 11 7 8 6 11 9 6 8 7 9 8 13 7 18 4 16 6 27 1 8 2 6v21l-1 2h-2l-1 25-3 9-2 9-8 24-5 9-6 9-7 8-22 22-16 8-10 3-5 2-10 1-7 3-13 1-7 3h-26l-3-3-15-1-5-3-13-2-17-8-10-6-5-4-7-4-5-4-5-3-5-5-4-5-8-13-7-14-5-13-3-7-2-20-2-3-1-18v-28l1-19 2-3 2-12 9-19 8-15 8-12 9-11 4-6 9-9 11-7 16-9 21-10z" fill="#FEFEFE"/>
<path transform="translate(1154,1752)" d="m0 0h15l14 3 12 5 12 7 5 4 8 10 6 10 4 12 3 21 1 12v26l-2 24-5 18-8 16-7 11-10 10-12 7-12 4-10 2h-18l-19-5-10-5-10-9-8-16-3-9v-5l1-1 14-1 8-1 2 2 4 12 5 7 10 7 11 3h10l9-2 11-6 6-7 8-14 5-16 3-15 1-12-5 3-10 9-14 7-14 3h-17l-12-3-10-4-8-6-8-8-8-13-5-14-1-4v-18l2-16 5-12 8-11 9-10 10-6 11-4z" fill="#FEFEFE"/>
<path transform="translate(131,80)" d="m0 0h14l14 3 12 5 12 7 8 7 10 15 5 14 3 20 1 13v27l-2 23-5 18-8 16-7 11-11 11-14 7-15 4-5 1h-17l-19-5-10-5-10-9-8-16-3-9v-5l1-1 14-1 8-1 2 2 4 12 5 7 10 7 11 3h10l9-2 11-6 6-7 8-14 6-20 2-11 1-12-5 3-10 9-14 7-14 3h-17l-12-3-12-5-10-9-6-7-7-12-5-16v-18l3-19 6-12 11-14 7-6 12-6 11-3z" fill="#FEFEFE"/>
<path transform="translate(617,1383)" d="m0 0h92l194 1 16 1 4 4 1 7-4 6-5 2h-467l-5-3-3-3v-8l3-5 2-1z" fill="#40C139"/>
<path transform="translate(1157,1772)" d="m0 0h15l11 4 6 4 7 7 5 10 4 14v14l-3 12-5 10-5 5-6 5-10 4-5 1h-13l-12-4-10-6-6-7-5-11-1-4v-24l5-12 7-10 7-6 10-5z" fill="#40C139"/>
<path transform="translate(133,100)" d="m0 0h15l11 4 6 4 7 7 5 10 4 14v14l-3 12-5 10-5 5-6 5-10 4-5 1h-13l-12-4-10-6-6-7-5-11-1-4v-24l5-12 7-10 7-6 10-5z" fill="#40C139"/>
<path transform="translate(1093,1958)" d="m0 0h142l1 5-1 1h-142l-1-5z" fill="#FEFEFE"/>
<path transform="translate(69,286)" d="m0 0h142l1 5-1 1h-142l-1-5z" fill="#FEFEFE"/>
</svg>
