<?xml version="1.0" encoding="UTF-8"?>
<svg version="1.1" viewBox="0 0 1296 2016" width="324" height="504" xmlns="http://www.w3.org/2000/svg">
<path transform="translate(0)" d="m0 0h1296v2016h-1296z" fill="#FEFEFE"/>
<path transform="translate(0)" d="m0 0h1296v352l-5-5-8-13-18-30-10-13-7-9-10-10-10-8-15-11-14-9-17-10-27-11-16-6-19-5-13-3-17-2-7-2-25-2-13-2-37-1-14-1-6-2h-54l-9 3-34 1-10 3-19 1-10 3-16 1-9 3-11 2-15 5-13 3-16 4-26 9-11 5-13 5-35 14-21 10-22 13-19 10-12 6-15 10-17 12-5 4-15 10-16 11-11 10-9 6-8 8-18 14-8 7-5 5-9 6-12 12-6 5-6 7-6 5-6 7-8 7-15 16-6 9-7 7-9 11-4 6-7 7-7 8-6 7-4 6-7 7-10 13-7 10-7 9-10 14-9 12-8 12-8 10-18 27-6 11-22 33-6 11-13 20-14 27-6 9-14 27-6 9-9 17-9 19-40 80-6 13-7 17-12 28-8 16-5 13-8 18-7 17-5 11-7 20-6 15-7 17-7 20-14 35-10 29-6 15-12 36-9 26-3 3z" fill="#40C139"/>
<path transform="translate(1294,768)" d="m0 0h2v1248h-1296v-320l5 5 8 13 10 17 8 13 9 10 7 10 9 10 16 12 5 4v2l4 2 16 9 13 8 18 8 20 8 13 4 16 4 10 2 7 2 19 1 7 3 42 1 4 3h54l1-3 54-1 16-1 6-2 22-2 7-2 21-2 2-1 28-3 18-4 18-5 21-5 15-3 16-4 15-4 13-5 41-14 18-7 21-8 66-33 18-10 11-7 9-6 12-7 12-8 11-7 10-7 15-10 12-11 9-6 9-9 7-6 7-4 12-11 9-6 44-44 5-8 3-4h2l2-4 20-20 5-8 3-4h2l2-4 8-8 6-10 4-2 2-4 5-6 4-6 3-4h2l2-5 9-13 6-9 7-11 7-10 7-11 16-24 10-17 8-16 10-19 8-14 12-23 14-28 8-18 5-12 8-19 13-28 10-26 13-38 7-18 12-35 7-21 4-16 4-12 2-11 3-9 3-8 3-13 5-15 2-11 3-9 3-7 2-16 2-3 2-13 2-4 2-16 2-2 2-14 2-4 2-16 2-3 2-13 2-4 2-16 2-4 1-15 2-6 1-2 1-15 3-7 2-19z" fill="#40C139"/>
<path transform="translate(677,683)" d="m0 0h16l17 1 5 3 11 1 2 2 13 2 12 6 16 6 16 8 11 6 17 16 8 5 8 7 7 8 9 12 7 10 19 38 1 4 1 20 2 3 1 21v18l-1 10-2 4-2 12-6 10-8 12-7 8-6 9-15 16-9 9-23 12-17 8v4l11 5 9 3 16 8 6 5 6 3 13 12 8 5 8 7 8 11 10 13 10 16 14 28 2 12 2 3 1 5v28l-1 20-2 5-2 19-2 5-4 16-7 17-15 30-6 10-14 15-10 10-8 7-7 4-12 12-10 6-19 10-18 8-12 4-17 1-4 2-10 1-27 1-6 3h-34l-9-3-23-2-5-2-15-2-5-2-10-2-17-8-19-10-12-6-10-7-9-7-14-11-10-9-7-7-8-13-9-15-8-16-10-24-1-4-1-22-2-5-1-6v-59l3-3 1-15 6-13 8-16 8-15 9-11 3-6h2l2-4 8-8 11-7 10-6 29-15 18-8h2l-1-5-2-1-13-2-10-7-18-14-17-17-9-13-6-8-8-15-4-11-2-9-2-7v-63l3-6 2-12 6-16 7-14 6-10 23-23 3-7 9-7 21-11 9-6 10-7 19-9 19-6 2-1 28-2 3-2z" fill="#40C139"/>
<path transform="translate(657,1028)" d="m0 0h28l8 3 16 1 4 2 14 3 25 12 11 7 13 9 8 9 6 9 6 8 11 21 5 15 2 16 2 4v27l-3 5-1 15-2 3-3 14-9 17-4 8-3 4h-2l-2 4-5 8-11 11-8 5-10 8-19 9-5 3-10 1-7 3-14 1-6 3h-31l-3-3-15-1-5-3-13-2-17-8-11-7-7-6-6-4-10-9-9-10-15-29-6-16-1-11-1-6-2-3v-29l2-3 2-16 2-4 2-12 3-9 6-14 7-12 10-13 10-7 14-9 13-6 9-3 19-9 15-2z" fill="#FEFEFE"/>
<path transform="translate(665,756)" d="m0 0h24l4 2 19 3 13 5 14 7 12 8 12 11 9 10 4 9 3 13 2 10 1 9 2 4v23l-3 5-1 15-3 6-1 9-6 11-6 7-8 7-7 6-9 6-19 10-7 1-2 2-4 1-20 1v2l-3 1h-24l-3-3-20-1-16-8-11-6-6-5-7-4-7-7-7-11-4-5-4-8-3-10-2-9v-10l-3-7-1-9v-17l1-10 9-19 8-15 6-8 5-5 13-7 5-4 12-8 10-1 6-3 16-1z" fill="#FEFEFE"/>
<path transform="translate(1158,1752)" d="m0 0h13l17 5 15 8 10 9 7 11 4 10 1 7v9l-3 9-7 11-11 9-7 3-1 2 6 2 11 7 11 11 7 12 1 4v22l-4 14-6 11-7 8-10 8-13 6-7 2-13 2-5 2h-7l-4-2-18-4-16-8-11-9-7-10-5-12-3-11v-16l5-13 7-11 8-7 10-5 7-2v-2l-5-2-9-6-8-9-4-8-2-13 1-14 5-12 8-10 13-9 10-5z" fill="#FEFEFE"/>
<path transform="translate(135,76)" d="m0 0h11l12 3 12 5 10 6 10 9 7 11 3 9 1 7v9l-3 9-7 11-9 8-9 4-1 2 6 2 11 7 5 4 8 10 5 9 1 4v22l-4 14-6 11-2 3h-2l-2 4-11 9-16 7-17 3-5 2h-7l-4-2-18-4-16-8-11-9-7-10-4-8-4-15v-16l5-13 7-11 8-7 10-5 7-2-3-3-10-6-9-10-4-8-2-13 1-14 5-12 8-10 13-9 10-5z" fill="#FEFEFE"/>
<path transform="translate(1161,1854)" d="m0 0 11 1 12 4 9 6 7 8 4 8 3 10-1 11-4 11-6 8-8 7-8 4-8 2h-14l-12-4-6-4-7-6-6-9-3-10v-12l3-12 4-8 9-8 15-6z" fill="#40C139"/>
<path transform="translate(137,178)" d="m0 0 11 1 12 4 9 6 7 8 4 8 3 10-1 11-4 11-6 8-8 7-8 4-8 2h-14l-12-4-6-4-7-6-5-7-4-12v-12l3-12 4-8 9-8 15-6z" fill="#40C139"/>
<path transform="translate(1161,1774)" d="m0 0h7l11 3 9 6 5 6 4 12v8l-3 10-4 6-10 7-11 3h-12l-10-4-10-9-4-9-1-4v-12l4-9 6-7 9-5z" fill="#40C139"/>
<path transform="translate(137,98)" d="m0 0 12 1 10 4 9 8 4 10 1 4v8l-3 10-4 6-10 7-11 3h-12l-10-4-10-9-4-9-1-4v-12l4-9 6-7 9-5z" fill="#40C139"/>
</svg>
