<?xml version="1.0" encoding="UTF-8"?>
<svg version="1.1" viewBox="0 0 1296 2016" width="324" height="504" xmlns="http://www.w3.org/2000/svg">
<path transform="translate(0)" d="m0 0h1296v2016h-1296z" fill="#FEFEFE"/>
<path transform="translate(0)" d="m0 0h1296v352l-5-5-21-35-7-11-9-12-7-8-12-12-12-9-17-12-24-14-21-9-21-8-19-5-13-3-20-3-4-1-24-2-9-2-35-1-20-1-6-2h-57l-4 2-40 2-4 2-24 2-4 2-23 2-9 3-10 2-15 5-13 3-16 4-23 8-17 7-20 8-17 7-10 4-26 13-11 7-23 12-16 9-16 11-22 16-15 10-10 7-10 9-10 7-15 14-9 6-15 14-8 5-9 9-8 7-39 39-12 16-8 8-12 16-11 11-9 12-7 8-9 10-13 19-9 12-7 9-10 14-9 13-6 8-10 15-7 11-7 12-12 18-9 14-7 12-10 15-12 23-14 24-10 19-10 17-52 104-8 18-4 10-7 15-4 11-12 25-4 11-9 20-5 12-6 13-7 21-6 14-5 13-12 32-10 25-12 34-8 21-12 36-7 20-2 1z" fill="#3FC038"/>
<path transform="translate(1294,768)" d="m0 0h2v1248h-1296v-320l5 5 9 15 16 27 9 10 10 14 9 9 13 9 7 7 19 11 5 4 23 11 10 4 16 6 9 3 26 6 7 2 19 1 6 3 43 1 4 3h55v-2l2-1 57-1 12-1 2-1 26-3 2-1 26-3 12-2 19-2 17-4 13-3 16-4 6-2 17-3 18-5 15-4 21-8 36-12 12-5 20-7 78-39 13-8 11-7 17-10 9-6 10-7 9-6 11-7 10-7 12-11 8-5 9-9 9-7 6-4 12-11 8-5 46-46 3-6 8-9h2l2-4 17-17 3-6 8-9h2l2-4 5-5 3-6 5-5 3-4h2l2-4 5-8 7-8 5-8 42-63 12-19 10-19 8-16 14-25 29-58 6-16 7-15 5-12 12-26 6-16 7-20 9-26 8-21 17-51 3-12 4-13 4-15 4-13 4-15 4-13 4-15 3-11 2-3 2-17 2-2 2-14 2-2 2-18 2-2 2-14 2-3 2-16 2-3 2-14 2-3 2-17 2-3 2-21 2-2 1-15 3-7 2-19z" fill="#3FC038"/>
<path transform="translate(750,692)" d="m0 0h85l1 1-1 667h-126l-1-483-1-28-5-1-12 5-46 23-22 9-22 11-19 7-24 8-13 3-19 6-14 4-17 5-17 6-13 3-4 2h-3l-1-3v-84l10-4 19-5 12-3 24-8 15-6 17-6 15-6 23-11 32-16 14-9 10-7 9-6 11-7 10-7 11-7 9-6 8-7 13-10 8-7 22-22z" fill="#3FC038"/>
<path transform="translate(155,72)" d="m0 0h23l2 1 1 21v152l-1 18h-38l-2-3v-90l1-54-20 9-24 9-26 8-4-1v-19l2-4 24-8 26-12 14-9 13-10z" fill="#FEFEFE"/>
<path transform="translate(1167,1744)" d="m0 0h23l2 1 1 20v167l-1 4h-39l-1-2v-84l1-61-20 9-24 9-26 8-4-1v-19l2-4 24-8 26-12 14-9 13-10z" fill="#FEFEFE"/>
</svg>
