<?xml version="1.0" encoding="UTF-8"?>
<svg version="1.1" viewBox="0 0 1296 2016" width="324" height="504" xmlns="http://www.w3.org/2000/svg">
<path transform="translate(0)" d="m0 0h1296v2016h-1296z" fill="#FEFEFE"/>
<path transform="translate(0)" d="m0 0h1296v352l-5-5-8-13-18-30-10-13-7-9-10-10-10-8-15-11-14-9-17-10-27-11-16-6-19-5-13-3-17-2-8-2-24-2-13-2-40-1-11-1-6-2h-54l-9 3-33 1-11 3-19 1-10 3-16 1-9 3-11 2-19 6-9 2-18 5-24 8-11 5-13 5-35 14-21 10-22 13-19 10-12 6-15 10-14 10-8 6-15 10-16 11-11 10-9 6-8 8-18 14-8 7-5 5-9 6-16 16h-2l-2 4h-2l-2 4h-2l-2 4-6 5-5 6-7 6-7 8-8 9-4 6-7 7-9 11-4 6-7 7-7 8-6 7-4 6-7 7-10 13-7 10-7 9-10 14-9 12-8 12-8 10-18 27-6 11-18 27-8 14-10 15-10 17-8 16-8 13-13 25-6 9-9 17-10 21-10 19-10 21-10 19-11 23-11 26-12 28-7 14-6 15-8 18-7 17-5 11-7 20-6 15-7 17-7 20-14 35-10 29-6 15-12 36-9 26-3 3z" fill="#40C139"/>
<path transform="translate(1294,768)" d="m0 0h2v1248h-1296v-320l5 5 8 13 10 17 8 13 9 10 7 10 9 10 16 12 5 4v2l4 2 16 9 13 8 18 8 20 8 13 4 16 4 10 2 7 2 19 1 7 3 42 1 4 3h51l4-3 54-1 16-1 6-2 21-2 8-2 20-2 12-2 19-2 18-4 18-5 21-5 15-3 16-4 15-4 12-5 36-12 35-13 18-8 58-29 18-10 11-7 9-6 12-7 48-32 12-11 9-6 9-9 7-6 7-4 7-7 14-10 44-44 6-10 4-2 2-4 20-20 5-8 3-4h2l2-4 8-8 6-10 4-2 2-4 5-6 4-6 8-10 6-9 7-11 7-10 7-11 6-9 7-10 7-11 9-14 9-17 8-16 6-11 8-14 12-23 14-28 8-18 5-12 8-19 13-28 10-26 14-41 5-12 13-38 7-21 4-16 4-12 3-13 5-15 3-13 5-15 2-11 3-9 3-8 2-15 2-3 2-13 2-4 2-16 2-3 2-13 2-4 2-16 2-3 2-13 2-4 2-16 2-4 1-15 2-6 1-2 1-15 3-7 2-19z" fill="#40C139"/>
<path transform="translate(674,687)" d="m0 0h15l28 1 6 3 10 1 7 3 9 1 6 3 14 5 19 10 10 7 11 9v2l4 2v2l4 2 4 4v2h2l9 12 8 15 7 16 4 11 3 14 4 16 2 7 1 15 3 5v21l-1 10-2 4-2 23-5 15-5 11-5 12-7 13-10 17-10 15-7 8-6 9-10 11-6 9-14 15-6 9-15 16-72 72-11 7-83 83-10 17-1 4h287l1 1v52l-1 23-195 1-9 3h-190l-1-1v-9l3-10 1-17 3-6 2-16 6-16 8-16 6-9 7-11 7-10 8-10 6-9 7-11 7-10 7-8 64-64 8-7 6-3 38-38 8-7 6-3 31-31 3-6 11-12 6-6 3-6 4-5h2l2-4 14-14 10-18 9-19 3-9 5-11 4-12v-56l-6-14-4-12-8-14-9-10-8-6-15-11-16-8-13-4h-56l-18 6-15 8-10 7-11 9-7 7-1 2h-2l-2 4-10 19-4 11-2 10-1 3-2 22-2 4-2 15h-12l-8-2-3-1-23-1-10-2-3-1-13-1-3-1v-18l3-8 1-17 7-16 7-21 5-11 3-9 6-10 7-10 7-8 25-25 8-6 25-13 21-8 6-3 16-1 7-3z" fill="#40C139"/>
<path transform="translate(124,72)" d="m0 0h29l12 3 11 6 9 8 6 10 3 7 2 10v23l-4 13-8 14-14 17-9 10-22 22-8 7-21 21-2 4h85l3 2v20l-1 1-78 2h-41l-1-1 1-9 5-16 10-16 9-11 22-22 8-7 16-15 10-11 8-11 6-12 2-6v-16l-4-11-8-9-10-5-5-1h-12l-10 3-8 6-6 7-3 9-2 13-1 1-16-1-6-2-1-1 1-9 6-18 7-11 8-8 12-7z" fill="#FEFEFE"/>
<path transform="translate(1152,1752)" d="m0 0h29l12 3 11 6 9 8 8 14 3 13v23l-4 13-8 14-10 12-9 11-26 26-8 7-21 21-2 4h84l4 2v20l-1 1-77 2h-42l-1-1 1-10 5-15 8-13 10-13 23-23 8-7 16-15 9-10 9-12 7-14 1-4v-16l-4-11-8-9-10-5-5-1h-13l-11 4-10 9-4 8-3 17-1 1-16-1-6-2-1-1 1-9 6-18 7-11 8-8 12-7z" fill="#FEFEFE"/>
</svg>
