<?xml version="1.0" encoding="UTF-8"?>
<svg version="1.1" viewBox="0 0 1296 2016" width="324" height="504" xmlns="http://www.w3.org/2000/svg">
<path transform="translate(0)" d="m0 0h1296v2016h-1296z" fill="#FEFFFE"/>
<path transform="translate(0)" d="m0 0h1296v352l-5-5-8-13-18-30-10-13-7-9-10-10-10-8-15-11-14-9-17-10-27-11-16-6-19-5-13-3-16-2-8-2-25-2-13-2-36-1-15-1-6-2h-55l-8 3-35 1-9 3-19 1-10 3-16 1-10 3-10 2-15 5-13 3-16 4-26 9-11 5-13 5-35 14-25 12-18 11-19 10-12 6-15 10-13 9-9 7-15 10-16 11-11 10-9 6-8 8-18 14-8 7-5 5-9 6-12 12-6 5-6 7-6 5-5 6-8 7-7 7-7 8-8 11-7 7-9 11-4 6-8 8-7 8-6 8-7 8-9 10-11 16-7 9-10 14-10 13-7 11-8 10-18 27-6 11-22 33-6 11-13 20-14 27-6 9-14 27-6 9-9 17-9 19-10 19-24 48-12 26-7 17-5 11-6 15-8 16-6 15-8 18-7 17-5 11-7 20-14 35-6 17-14 35-10 29-8 21-14 41-5 15-3 3z" fill="#40C139"/>
<path transform="translate(1294,768)" d="m0 0h2v1248h-1296v-320l5 5 8 13 10 17 8 13 9 10 7 10 9 10 16 12 9 8 16 9 13 8 18 8 20 8 13 4 16 4 10 2 7 2 19 1 7 3 42 1 4 3h54l1-3 54-1 16-1 6-2 22-2 7-2 21-2 2-1 28-3 18-4 18-5 21-5 12-2 17-4 17-5 13-5 41-14 18-7 21-8 66-33 18-10 11-7 9-6 12-7 11-7 9-6 10-7 18-12 12-11 9-6 8-8 18-14 11-9 9-7 42-42 5-8 3-4h2l2-4 20-20 5-8 3-4h2l2-4 8-8 6-10 4-2 2-4 5-6 4-6 3-4h2l2-5 9-13 6-9 7-11 7-10 7-11 6-9 7-10 9-15 12-23 10-19 8-14 12-23 14-28 8-18 13-31 13-28 10-25 11-33 13-35 13-40 2-5 4-16 4-12 2-11 3-8 3-9 2-11 3-8 3-9 2-11 3-9 3-7 2-16 2-2 2-14 2-4 2-16 2-2 2-14 2-4 2-16 2-3 2-13 2-4 2-16 2-4 1-15 2-6 1-2 1-15 3-7 1-5 1-14z" fill="#40C139"/>
<path transform="translate(682,687)" d="m0 0 24 1 3 3h13l11 1 22 11 7 1 4 3 9 2 9 3 12 6 7 7 2 1v2l4 2v2l4 2 6 5 6 4 9 9 6 9 8 9 6 10 8 16 9 26 3 14 2 6v26l-1 10-2 4-2 12-9 26-9 16-8 12-10 11-6 9-9 10-18 10-6 4-4 2v4l64 32 10 10 11 18 9 15 9 17 5 17 2 9 2 10 1 12 2 3 1 40-1 17-2 5-2 13-5 12-8 16-13 24-14 21-7 8-9 10-18 18-11 7-8 7-17 9-26 12-9 1-6 3-11 1-3 2-8 1-21 1-6 3h-34l-8-3-23-1-9-1-5-2-15-2-16-8-15-6-13-7-10-9-22-18-13-13-8-11-9-12-8-13-8-15-7-16-4-14-4-17-3-14-2-8 2-2 22-2 4-2 36-2 3-2h20l2 2 4 13 2 9 2 7 2 9 4 15 9 19 8 11 10 10 5 4 7 4 8 8 13 8 8 1 4 3 20 1 3 3h34l7-3 14-1 7-3 10-1 16-8 10-8 10-7 6-6 3-6 4-5h2l2-4 5-6 6-9 9-17 3-10 2-3 2-13 2-3v-39l-2-4-2-20-10-21-8-11-8-9-6-9-9-8-6-4-11-8-14-7-14-3-4-2-16-1-8-3h-32l-6 3h-30l-1-1v-9l3-10 1-26 3-4 1-17 2-1 17-2 5-2 17-1 8-2 1-1 13-2 4-2 9-2 4-2 9-1 16-8 8-7 5-5h2l2-4 5-8 6-7 6-11 3-9 3-11 2-4v-23l-2-3-2-28-3-9-5-12-7-10-7-9-9-7-13-8-10-4-21-7-15-2-4-2h-20l-3 2-15 2-11 5-4 2-8 2-10 6-10 8-11 8-10 14-6 12-3 9-4 13-4 12-4 16-4 8h-9l-9-3-23-2-6-2-18-2-4-2-10-1-3-2v-9l3-8 1-16 5-13 6-12 4-11 8-15 3-6 6-9 7-9 11-10 7-4 18-18 8-6 17-9 11-4 16-5 12-6 29-1 6-3z" fill="#40C139"/>
<path transform="translate(120,76)" d="m0 0h30l14 4 11 7 9 9 6 10 3 9 1 13-3 13-7 13-7 8-6 3h-2l4 4 14 8 8 9 5 10 4 16v15l-5 13-8 14-9 10-8 7-11 5-10 3-8 1h-16l-16-3-12-6-12-11-7-10-6-13-4-11 1-4 20-2h6l3 9 4 11 4 6 7 7 9 4 5 1h13l12-4 6-4 9-11 4-9 1-4v-15l-4-11-6-9-7-6-10-4-5-1h-21l-1-5 2-13 2-2 19-4 9-4 6-5 7-14v-9l-3-12-6-9-8-5-12-3-10 1-9 4-8 7-5 10-3 13-5 1-20-4-1-1 1-8 6-15 6-9 10-10 14-7z" fill="#FEFFFE"/>
<path transform="translate(1148,1756)" d="m0 0h30l14 4 11 7 8 8 6 10 4 10 1 13-3 12-7 14-7 8-6 3h-2l4 4 14 8 8 9 6 13 3 13v15l-5 13-8 14-9 10-8 7-11 5-10 3-8 1h-15l-14-2-12-5-10-8-9-10-8-15-4-12-1-5 1-1 26-2 3 9 4 11 4 6 7 7 9 4 5 1h13l12-4 6-4 9-11 4-9 1-4v-15l-4-11-6-9-7-6-10-4-5-1h-21l-1-5 2-13 2-2 19-4 9-4 6-5 7-14v-9l-3-12-6-9-8-5-12-3-10 1-9 4-8 7-5 10-3 13-5 1-20-4-1-6 6-16 6-10 11-11 14-7z" fill="#FEFFFE"/>
</svg>
