<?xml version="1.0" encoding="UTF-8"?>
<svg version="1.1" viewBox="0 0 1296 2016" width="324" height="504" xmlns="http://www.w3.org/2000/svg">
<path transform="translate(0)" d="m0 0h1296v2016h-1296z" fill="#FEFEFD"/>
<path transform="translate(0)" d="m0 0h1296v352l-3-1-3-6-6-8-6-12-6-8-6-12-10-12-3-5-9-10-8-8-8-6-6-4-9-7-14-9-11-6-6-5-9-2-12-6-14-5-8-3-19-5-13-3-17-2-7-2-22-1-7-3-57-1-5-2-1-1-34-1-24 1-2 2-38 2-7 2-27 3-1 1-21 2-16 4-17 5-16 4-9 2-19 6-12 4-10 5-10 3-10 5-10 3-10 5-10 3-19 10-14 7-5 4-17 9-16 8-9 6-10 6-5 4-5 3-11 9-7 4-5 4-7 4-5 4-5 3-10 9-4 4-5 2-12 11-7 7-5 2-12 11-7 7-5 2-8 7-5 6-8 7-4 5-7 6-5 6-8 7-12 12-7 8-3 6-13 13-4 5-3 6-9 9-5 6-5 5-3 5-7 8-8 8-4 5-3 6-5 6-3 6-9 10-3 6-9 10-3 6-5 6-3 6-9 10-3 6-6 9-7 10-6 11-6 8-5 9-7 10-6 10-7 12-7 10-4 6-7 14-10 18-3 4-7 14-10 18-3 4-7 14-9 17-11 23-9 17-11 23-9 17-8 18-7 17-5 11-6 15-8 16-8 20-5 10-6 16-6 12-3 10-3 8-12 30-3 7-7 20-4 8-3 11-6 12-3 9-3 11-3 8-7 17-6 19-3 8-5 16-3 7-5 16-3 2z" fill="#D52421"/>
<path transform="translate(1293,768)" d="m0 0h3v1248h-1296v-320h2l13 21 14 24 9 11 6 7 4 6 13 13 8 5 11 10 10 6 6 3 7 5 19 9 6 3 8 3 12 5 18 5 11 3 10 2 8 2 19 1 2 2 5 1 41 1 4 3h52l4-3 54-1 15-1 7-2 21-2 7-2 20-2 12-2 20-2 11-3 22-5 16-4 13-3 23-5 17-5 12-5 33-11 10-3 13-6 11-4 9-3 25-12 62-31 8-6 9-6 16-9 9-6 10-7 9-6 10-6 5-4 7-4 5-5 8-7 5-3 3-1 1-3 8-7 7-6 7-4 5-5 8-7 5-3 3-1 2-4h2l2-4 8-7 26-26 4-5 3-6 25-25 5-7 3-5 11-11 6-8 3-5 7-7 6-8 4-6 7-8 3-6 6-8 6-9 7-11 6-9 4-5 5-9 4-5 6-9 7-11 6-10 11-23 8-15 6-9 32-64 10-24 12-28 9-19 10-26 13-38 9-24 15-45 5-19 5-17 5-18 7-24 7-25 4-13 2-13 5-18 3-19 2-5 4-17 2-13 4-16 2-7 2-14 2-6 2-18 2-6 2-14 2-6 1-16z" fill="#D52421"/>
<path transform="translate(652,680)" d="m0 0h272v476h-272z" fill="#D52421"/>
<path transform="translate(632,1039)" d="m0 0 4 1 1 131h78l1 1v343l-1 1h-266l-1-1v-475z" fill="#D52421"/>
<path transform="translate(178,100)" d="m0 0h19l12 5 9 6 7 8 3 10v22l-4 13-6 9-7 8-10 8-9 9-7 8-15 16v1l57 1 1 1v14l-2 1h-75l-7-2 1-5 8-16 10-14 6-7 11-9 7-7 8-7 8-9 8-16 1-5v-13l-4-7-8-5-6-2h-8l-13 6-5 8-1 12-1 1h-11l-5-3v-7l5-12 6-10 8-7z" fill="#FEFEFD"/>
<path transform="translate(1202,1784)" d="m0 0h19l12 5 9 6 7 8 3 10v22l-4 13-6 9-7 8-10 8-9 9-7 8-15 16v1l57 1 1 1v14l-2 1h-75l-7-2 1-5 8-16 10-14 6-7 11-9 7-7 8-7 8-9 8-16 1-5v-13l-4-7-8-5-6-2h-8l-13 6-5 8-1 12-1 1h-11l-5-3v-7l5-12 6-10 8-7z" fill="#FEFEFD"/>
<path transform="translate(1107,1809)" d="m0 0h14v38h13l20 1 1 1v14l-33 1-1 37-2 2h-8l-4-1-1-3v-36h-33l-1-1v-13l1-1 32-1 1-37z" fill="#FEFEFD"/>
<path transform="translate(83,125)" d="m0 0h14v38h13l20 1 1 1v14l-33 1-1 37-2 2h-8l-4-1-1-4v-34l-33-1-1-1v-13l1-1 32-1 1-37z" fill="#FEFEFD"/>
</svg>
