<?xml version="1.0" encoding="UTF-8"?>
<svg version="1.1" viewBox="0 0 1296 2016" width="324" height="504" xmlns="http://www.w3.org/2000/svg">
<path transform="translate(0)" d="m0 0h1296v2016h-1296z" fill="#FEFFFE"/>
<path transform="translate(0)" d="m0 0h1296v352l-3-1-3-6-6-8-3-6-6-10-4-7-6-10-9-11-3-5-9-10-9-9-9-6-11-9-16-10-11-6-6-5-9-2-12-6-14-5-8-3-19-5-13-3-17-2-7-2-21-1-6-2-2-1-57-1-5-2-1-1-33-1h-26l-1 3-38 2-7 2-21 2-7 2-21 2-16 4-17 5-16 4-9 2-13 4-18 6-10 5-10 3-10 5-10 3-10 5-10 3-19 10-14 7-5 4-17 9-16 8-13 8-11 8-5 3-11 9-7 4-5 4-7 4-5 4-5 3-10 9-4 4-5 2-12 11-8 7-5 3-10 9-7 7-6 3-8 7-5 6-8 7-36 36-7 8-3 6-13 13-4 5-3 6-14 14-7 8-3 6-13 13-4 5-3 6-5 6-3 6-9 10-3 6-9 10-3 6-5 6-3 6-9 10-3 6-6 9-7 9-6 12-6 8-5 9-7 10-6 10-5 8-4 6-7 11-6 10-8 16-6 10-10 18-6 12-6 9-62 124-8 20-5 10-6 16-8 16-10 24-5 11-6 15-5 10-3 10-3 8-5 12-3 8-4 10-3 7-7 20-5 11-3 9-5 11-3 9-3 11-3 8-7 16-5 17-4 11-5 16-3 7-5 16-3 2z" fill="#D62422"/>
<path transform="translate(1293,768)" d="m0 0h3v1248h-1296v-320l5 5 11 18 15 25 11 12 6 9 13 13 8 5 11 10 10 6 6 3 7 5 16 8 9 4 13 5 11 4 9 3 26 6 7 2 20 1 2 2 5 1 41 1 4 3h52l4-3 56-1 13-1 7-2 21-2 7-2 20-2 12-2 20-2 11-3 22-5 16-4 13-3 23-5 17-5 12-5 33-11 10-3 13-6 11-4 9-3 23-11 64-32 8-6 9-6 18-10 5-4 9-6 11-7 4-3 7-4 5-4 9-6 9-9 10-5 1-3 8-7 7-6 7-4 5-5 8-7 5-3 3-1 2-4 8-7 30-30 4-5 3-6 25-25 5-7 3-5 12-12 6-9 7-8 8-10 4-6 8-10 3-5 6-9 7-10 6-9 7-11 7-10 7-11 6-9 7-11 16-32 7-12 6-10 31-62 10-24 5-11 7-17 9-19 9-23 14-41 8-21 16-48 5-19 10-34 6-22 5-17 5-18 2-6 2-13 5-18 3-19 2-5 4-17 2-13 4-16 2-7 2-14 2-6 2-18 2-6 2-14 2-6 1-16z" fill="#D62422"/>
<path transform="translate(750,692)" d="m0 0h85l1 7v660l-1 1h-126l-1-1v-375l-1-135-4-1-8 3-48 24-12 5-7 2-19 10-8 4-10 4-7 2-5 2-7 2-11 3-7 3-10 2-11 3-7 3-6 2-16 4-11 3-7 3-6 2-7 2-9 2-7 2-1-1v-86l12-5 13-3 16-4 12-4 10-3 13-6 11-4 10-3 11-5 11-4 52-26 8-6 7-4 5-4 7-4 5-4 9-6 11-7 4-3 7-4 5-4 9-6 9-9 9-5 3-4h2l1-3 8-7 11-11z" fill="#D62422"/>
<path transform="translate(1168,1744)" d="m0 0h24v191l-2 1h-37l-1-12v-80l1-55-20 9-18 7-30 9h-5v-22l8-3 22-8 27-13 14-10 11-9z" fill="#FEFFFE"/>
<path transform="translate(156,72)" d="m0 0h24v191l-2 1h-37l-1-12v-79l1-56-20 9-18 7-30 9h-5v-22l9-3 28-11 20-10 14-10 11-9z" fill="#FEFFFE"/>
</svg>
