<?xml version="1.0" encoding="UTF-8"?>
<svg version="1.1" viewBox="0 0 1296 2016" width="324" height="504" xmlns="http://www.w3.org/2000/svg">
<path transform="translate(0)" d="m0 0h1296v2016h-1296z" fill="#FEFEFE"/>
<path transform="translate(0)" d="m0 0h1296v352l-3-1-6-10-5-8-8-13-10-17-8-10-4-6-10-11-8-7-5-4-6-4-10-8-9-6-10-6-6-3-7-5-8-2-13-6-14-5-7-3-26-6-8-2-16-2-7-2-22-1-4-2-10-1-52-1-3-3h-58l-2 2-10 1-27 1-13 3-21 2-1 1-27 3-5 2-11 2-9 3-8 3-6 1-16 4-17 5-9 3-15 7-9 3-11 5-9 3-11 5-9 3-17 9-14 7-7 5-16 8-15 8-6 3-9 6-9 7-6 3-10 9-6 3-6 5-6 3-6 5-6 3-7 6-7 7-5 2-11 11h-2v2l-6 5-5 2-11 11h-2v2l-6 5-5 2-64 64-2 5-4 5-13 13-3 6-4 5-18 18-2 5-4 5-13 13-3 6-6 8-6 9-5 5-6 10-5 5-5 8-6 9-5 7-5 5-3 6-7 10-5 8h-2l-2 7-7 11-7 10-7 11-5 7-6 11-7 11-7 10-8 16-7 13-5 7-8 16-7 13-5 7-63 126-4 12-8 16-4 12-12 24-4 12-8 16-4 12-8 16-8 24-4 8-4 12-4 8-7 22-5 10-4 12-5 11-11 33-5 11-14 43-3 8-5 15-3 2z" fill="#D62523"/>
<path transform="translate(1294,767)" d="m0 0h2v1249h-1296v-320l3 1 6 10 7 11 5 9 10 17 8 8 10 14 11 11 8 5 10 9 9 6 11 6 9 6 19 9 11 4 12 5 13 4 16 4 9 2 2 1 25 2 2 2 11 1 36 1 1 2 4 1h52l1-3 51-1 19-1 6-2 21-2 7-2 24-3 17-2 14-2 17-4 19-5 23-5 10-2 31-8 15-6 18-6 10-3 7-3 13-5 20-7 20-9 58-29 18-10 18-12 14-8 10-7 11-7 15-10 3-3 6-3 5-5h2l1-3 9-6 8-7 13-12 6-3 5-5h2l1-3 9-6 8-7 42-42 2-5 8-9h2l2-4 18-18 3-6 15-16 3-5 9-11 6-7 4-6 8-10 6-9 7-11 7-10 7-11 6-9 7-10 6-9 7-11 8-14 14-28 6-10 10-18 22-44 7-16 6-15 5-10 5-13 11-23 10-26 14-41 6-15 12-36 7-22 20-70 4-13 5-19 3-10 2-13 5-18 3-18 5-18 3-18 5-18 3-18 2-9 2-15 2-8 1-11 2-3 1-5 1-16z" fill="#D62523"/>
<path transform="translate(650,684)" d="m0 0h60l7 3 9 1 7 3 9 1 11 6 9 2 19 10 14 7 12 11 8 7 7 4 14 14 7 10 9 12 19 38 1 3 1 19 3 9v46l-1 2h-2l-1 13-5 10-6 7-2 5-4 5-5 5-3 6-5 6h-2l-2 4-12 12h-2l-1 3-5 4-19 9-5 3-7 3-7 2 1 5 11 5 7 2 16 8 8 6 7 4 11 11 8 4 11 11 7 10 9 11 4 7 6 10 13 26 3 14 2 5v50l-2 2-1 6-1 16-1 2h-2l-1 12-3 8-3 9-23 46-4 5-6 5-7 8-8 8h-2l-1 3-5 4-5 2-11 11h-2l-1 3-6 4-18 9-5 3-7 3-10 5-8 1-5 3-19 1-5 3-35 1-3 3h-40l-2-1v-2l-23-1-10-3-15-2v-2l-12-1-12-5-19-10-12-6-9-5-9-6-7-5-5-5-6-5-6-4-7-6v-2l-4-2-8-10-7-13-6-9-8-16-3-5-2-9-6-12-1-29-3-1v-64l3-7 1-12 5-12 10-19 7-13 9-11 3-5 7-8h2l2-4h2v-2l9-5 3-1v-2l21-11 19-9 16-8-1-5-12-1-10-5-5-5-6-5-5-3-8-7v-2l-4-2-7-8-5-5-3-6-9-10-11-23-2-10v-5h-2l-1-2v-65l3-9 2-11 4-12 8-17 5-8 9-10 10-10h2l2-4 2-2 2-5 4-5h2v-2l21-11 7-4 10-7h2v-2l16-8 7-3 6-2 11-3 3-2 18-1h12v-2z" fill="#D62523"/>
<path transform="translate(657,1028)" d="m0 0h30l1 3h10l12 1 2 1v2l12 1 12 5v2l8 2 2 2 7 3 10 6 4 3 5 3 8 7 4 5 2 5 9 10 12 24 2 9 3 5 1 16 3 2v27l-3 7-1 13-3 10-2 9-8 16-5 9-9 10-2 5-4 5-8 7-8 5-3 1-2 4-21 11-10 4-11 2-1 1-17 2-3 2-10 1h-21l-5-2v-2h-14l-7-3-13-2-16-8-9-5-8-8-8-4-19-19-16-32-5-16-1-11-3-9v-25l3-4 1-16 1-2h2l1-14 3-4 2-10 3-5 1-3h2l2-7 6-7 2-5 5-6h2v-2l6-5 6-3 6-5 5-2 8-4 3-2 9-2 20-10 13-1z" fill="#FEFEFE"/>
<path transform="translate(665,756)" d="m0 0h26l1 3 15 1 5 1v2l10 1 4 3 7 3 10 6 10 7 8 7 7 7 4 6 4 9 1 12h2l1 3 1 16 3 3v22l-3 7-1 13-3 7-1 10-3 5-2 5-4 5-4 4h-2l-2 4-8 7-8 5-10 6-12 6-9 2-1 1-23 2v2l-10 1h-16l-3-2v-2h-21l-7-4-16-8-9-7-5-2-12-12-3-6-6-8-4-9-4-13-1-15-3-9v-29l2-7 15-30 6-7 2-6 6-2 8-4 7-6 5-2 5-5 3-1 11-1 3-3 19-1z" fill="#FEFEFE"/>
<path transform="translate(135,76)" d="m0 0h13l18 6 10 5 12 10 7 10 4 9 2 14-1 10-4 8-7 9-7 6-10 5 4 2 9 5 11 9 7 10 4 8 1 3v21l-3 12-7 14-9 10-10 7-8 4-10 3-14 2-1 1h-11l-21-5-17-9-10-8-7-11-5-11-3-12v-14l5-13 7-12 8-7 16-8 1-2-5-1-9-6-7-8-5-10-1-3v-22l4-11 6-8 9-9 15-8z" fill="#FEFEFE"/>
<path transform="translate(1159,1752)" d="m0 0h13l18 6 10 5 12 10 7 10 4 9 2 18-2 9-8 12-9 8-10 5 4 2 12 7 8 7 7 10 4 8 1 3v21l-3 12-7 14-8 9-12 9-12 5-19 3-1 1h-12l-16-4-10-4-11-6-10-8-7-11-5-11-3-12v-14l5-13 7-12 8-7 16-8 1-2-5-1-9-6-7-8-5-10-1-3v-22l4-11 6-8 8-8 16-9z" fill="#FEFEFE"/>
<path transform="translate(1157,1855)" d="m0 0h13l12 3 11 6 7 8 5 10 2 9-1 11-3 10-9 12-11 7-12 3h-12l-12-3-9-6-7-7-5-10-2-7v-12l4-15 6-8 9-6 10-4z" fill="#D62523"/>
<path transform="translate(133,179)" d="m0 0h13l12 3 11 6 7 8 5 10 2 9-1 11-3 10-9 12-11 7-12 3h-12l-12-3-9-6-7-7-5-10-2-7v-12l4-15 6-8 9-6 10-4z" fill="#D62523"/>
<path transform="translate(1156,1775)" d="m0 0h17l10 4 8 6 5 10 1 5v9l-3 11-6 7-9 5-12 3-13-1-10-5-5-4-5-8-2-9v-10l3-9 6-7 8-5z" fill="#D62523"/>
<path transform="translate(132,99)" d="m0 0h17l10 4 8 6 4 7 2 8v9l-3 11-6 7-9 5-12 3-13-1-10-5-5-4-5-8-2-9v-11l4-9 5-6 8-5z" fill="#D62523"/>
</svg>
