<?xml version="1.0" encoding="UTF-8"?>
<svg version="1.1" viewBox="0 0 1296 2016" width="324" height="504" xmlns="http://www.w3.org/2000/svg">
<path transform="translate(0)" d="m0 0h1296v2016h-1296z" fill="#FDFDFD"/>
<path transform="translate(0)" d="m0 0h1296v352l-3-1-6-10-5-8-8-13-10-17-8-10-4-6-4-4v-2l-4-2-5-6-10-8-6-4-10-8-9-6-10-6-6-3-7-5-8-2-13-6-14-5-7-3-26-6-8-2-16-2-1-1-23-2-8-1-1-1-10-1-52-1-2-1v-2h-59l-2 2-9 1-28 1-13 3-21 2-1 1-27 3-5 2-11 2-9 3-8 3-6 1-16 4-17 5-9 3-15 7-9 3-11 5-9 3-11 5-9 3-17 9-14 7-7 5-16 8-15 8-6 3-9 6-9 7-6 3-10 9-6 3-6 5-6 3-6 5-6 3-9 9-5 4-5 2-14 14-5 4-5 2-11 11h-2l-1 3-5 4-6 3-63 63-2 5-5 6h-2l-2 4-8 8-3 6-5 6h-2l-2 4-12 12-3 6-5 6h-2l-2 4-8 8-3 6-6 8-3 5-9 11-6 9-6 7-3 5-6 9-7 9-4 5-3 5-8 12-5 7-6 12-6 8-7 11-8 12-8 14-6 9-7 10-8 16-7 13-5 7-8 16-7 13-5 7-8 16-9 19-10 19-36 72-4 12-8 16-4 12-12 24-4 12-8 16-4 12-8 16-8 24-4 8-4 12-4 8-8 24-4 8-4 12-4 8-12 36-5 11-14 43-3 8-5 15-3 2z" fill="#D62522"/>
<path transform="translate(1294,767)" d="m0 0h2v1249h-1296v-320l3 1 15 25 10 17 6 8 9 10 6 9 11 11 8 5 10 9 9 6 11 6 9 6 19 9 11 4 12 5 13 4 16 4 9 2 2 1 25 2 2 2 13 1 34 1 1 2 5 1h51l1-3 49-1 21-1 5-2 22-2 7-2 40-5 15-2 17-4 24-6 18-4 26-6 15-4 11-5 20-6 8-3 17-6 11-5 10-3 13-5 25-12 32-16 17-9 12-6 9-6 10-7 16-9 10-7 11-7 15-10 3-3 6-3 5-5h2l2-4 11-7 9-9h2l1-3 6-5 6-3 8-8 9-6 8-7 42-42 2-5 4-5h2l2-4 22-22 3-6 15-16 3-5 9-11 6-7 6-9 6-7 7-11 34-51 7-10 8-13 14-27 9-17 6-10 12-23 15-30 8-18 6-15 5-10 5-13 11-23 12-32 12-35 6-15 12-36 7-22 14-49 7-25 3-9 3-12 3-10 2-7 2-13 5-18 3-18 5-18 3-18 5-18 3-18 2-9 2-15 2-9 1-10 3-9 1-16z" fill="#D62522"/>
<path transform="translate(820,719)" d="m0 0 52 1v80l-280 1-1 6-2 5-1 13-3 7-1 10-1 2h-2l-1 17-2 3-2 17-2 3-2 14-2 2-2 16-2 4-2 16-3 9-1 9-3 5-1 4 19-9 12-6 9-3 19-9 9-3 10-2 9-3h91l6 3 7 2 9 4 5 2 7 2 5 2 6 2 11 3 19 10 5 4 9 6 9 9 10 6 14 14 10 14 7 9 8 13 8 16 4 10 3 11 2 13 2 6 1 21 3 10v52l-1 4h-2l-1 13-2 3-3 11-2 6-5 13-10 19-6 10-3 3-2 5-4 5-6 5-7 8-9 9-2 5-5 6h-2l-2 4-15 15-5 4-6 3-6 5-7 3-10 3-10 5-11 5-8 2-4 2-12 2-5 2-7 2-4 2-11 1-2 2-4 1h-79l-9-3-26-6-5-2-9-3-10-3-5-2-7-2-15-7-9-5-9-8-4-4v-2l-4-2-7-6-6-4-7-6v-2l-4-2-12-13-3-6-6-8-6-9-4-8-6-18-3-7-2-10-2-2-2-13-2-4v-12l1-1 11-1h12v-2l2-1 29-1 12-1 3-2 20-1 3 5 6 17 3 13 12 25 9 17 18 18 32 16 13 2 7 3 14 1 1 2 5 1h32l10-1 3-2 13-2 16-8 17-9 3-1 1-3 8-7 2-2 5-2 5-5 16-24 5-5 6-12 4-13 2-14 2-6 1-16 2-3 1-5v-35l-3-1-1-23-9-19-6-8-7-13-9-10-3-6-5-5v-2l-4-2-10-6-5-2-20-10-7-1-2-2-15-3-5-2h-75l-17 5-17 9-10 6-5 6-6 5-5 2-8 7-4 5-2 5-5 6h-2l-1 3h-18l-2-3-37-1-2-1v-2l-23-1-1-1v-7l3-9 2-14 2-6 2-14 2-6 2-14 2-7 1-13 3-10 2-14 2-6 2-14 2-6 2-14 2-6 2-14 2-6 2-14 2-6 2-14 2-6 2-14 2-7 1-13 3-11 2-13 2-8 2-12 2-8 2-12 3-12 1-1z" fill="#D62522"/>
<path transform="translate(1117,1752)" d="m0 0h106l1 1v21l-1 1-85 1-10 48-1 3 18-8 14-3h17l10 2 12 5 9 5 10 9 7 8 6 12 2 14v26l-3 13-6 11-9 11-4 5-11 8-10 4-8 2-9 1h-22l-16-2-11-4-10-7-6-5-9-12-5-13-1-11 6-2 14-1 6-1 2 2 5 15 6 10 8 6 7 3 9 2h14l13-5 10-8 7-11 3-8 1-8v-19l-3-10-7-11-8-7-11-4-4-1h-24l-8 3-10 7-6 8-18-1-7-2v-8l9-47 7-38 3-9z" fill="#FDFDFD"/>
<path transform="translate(91,76)" d="m0 0h108l2 3-1 18-87 1-11 50 17-8 8-2 20-1 11 1 17 6 10 6 10 9 7 9 4 8 2 13v28l-3 12-5 10-11 13-7 7-15 8-13 4-10 1h-17l-15-2-15-6-12-9-8-8-6-10-3-13v-8l3-1 14-1 7-1 3 3 4 12 5 9 5 5 8 5 17 4h7l13-4 10-6 8-9 6-12 2-15-1-14-4-10-7-10-8-6-12-4-8-1h-10l-11 1-10 5-7 6h-2l-2 5-1 1-19-1-7-2 1-10 15-78 2-9z" fill="#FDFDFD"/>
</svg>
