<?xml version="1.0" encoding="UTF-8"?>
<svg version="1.1" viewBox="0 0 1296 2016" width="324" height="504" xmlns="http://www.w3.org/2000/svg">
<path transform="translate(0)" d="m0 0h1296v2016h-1296z" fill="#FEFEFE"/>
<path transform="translate(0)" d="m0 0h1296v352l-3-1-6-10-5-8-8-13-10-17-8-10-4-6-10-11-8-7-5-4-6-4-10-8-9-6-10-6-6-3-7-5-8-2-13-6-14-5-7-3-26-6-8-2-16-2-7-2-22-1-4-2-10-1-52-1-3-3h-58l-2 2-9 1-28 1-13 3-21 2-1 1-27 3-5 2-11 2-9 3-8 3-6 1-16 4-17 5-9 3-15 7-9 3-11 5-9 3-11 5-9 3-17 9-14 7-7 5-16 8-15 8-6 3-9 6-9 7-6 3-10 9-6 3-6 5-6 3-6 5-6 3-7 6-7 7-5 2-11 11h-2v2l-6 5-5 2-11 11h-2l-1 3-5 4-5 2-64 64-2 5-4 5-13 13-3 6-4 5-18 18-2 5-5 6h-2l-2 4-8 8-3 6-6 8-6 9-5 5-6 10-5 5-5 8-6 9-5 7-5 5-3 6-7 10-5 8h-2l-2 7-7 11-7 10-7 11-5 7-6 12-6 8-7 11-10 19-6 11-5 7-8 16-7 13-5 7-24 48-9 19-10 19-20 40-4 12-8 16-4 12-12 24-4 12-8 16-4 12-8 16-8 24-4 8-4 12-4 8-7 22-5 10-4 12-5 11-11 33-5 11-14 43-3 8-5 15-3 2z" fill="#D62523"/>
<path transform="translate(1294,767)" d="m0 0h2v1249h-1296v-320l3 1 6 10 7 11 5 9 10 17 8 8 10 14 11 11 8 5 10 9 9 6 11 6 9 6 19 9 11 4 12 5 13 4 16 4 9 2 2 1 25 2 2 2 11 1 36 1 1 2 4 1h52l1-3 50-1 20-1 6-2 21-2 7-2 40-5 15-2 17-4 19-5 23-5 10-2 31-8 11-5 10-3 12-4 23-8 11-5 10-3 13-5 25-12 44-22 20-11 18-12 14-8 10-7 11-7 15-10 3-3 6-3 5-5h2l1-3 9-6 8-7 6-5 5-5 5-3 8-7h2l1-3 9-6 8-7 42-42 2-5 4-5h2l2-4 22-22 3-6 15-16 3-5 9-11 6-7 5-8h2l2-4 12-18 7-10 7-11 9-13 6-9 7-11 7-10 12-22 11-22 6-10 10-18 22-44 7-16 6-15 5-10 5-13 11-23 12-32 12-35 6-15 12-36 7-22 20-70 4-13 5-19 3-10 2-13 5-18 3-18 5-18 3-18 5-18 3-18 2-9 2-15 2-8 1-11 2-3 1-5 1-16z" fill="#D62523"/>
<path transform="translate(658,688)" d="m0 0h37l2 2 4 1 17 1 14 7 7 2 6 2 9 1 19 10 32 16 5 4 15 8 11 11 9 13 7 7 4 5 3 5 10 13 8 13 8 16 4 10 8 32 3 11 2 13 2 7 1 20 3 11 1 45 3 10v70l-3 3-1 61-1 2h-2l-1 26-1 2h-2l-1 17-3 6-1 7-3 5-2 13h-2l-1 9-8 17-10 19-7 14-6 8-3 5-5 7-3 5-9 10-2 5-5 6h-2l-5 10-5 6h-2l-1 3-5 4-7 3-8 5-9 8-5 2-7 6-7 3-10 2-5 3-7 1-5 3-12 2-4 2-12 2-2 2-16 1-4 3h-57l-2-2-15-3-5-2-10-2-6-2-13-4-9-2-4-2-7-1-17-9-5-4v-2l-4-2-7-6-6-4-15-14-8-10-8-15-9-19-3-5-2-10-2-2-1-14-3-1-2-11-2-2-2-9-2-4 1-5 18-2 3-2 25-1h13v-2l2-1h21l2 7 3 10 2 14 8 16 9 17 8 7 6 3 8 8 6 3 8 6 9 4 7 2 12 3 1 2 4 1h45l10-1 3-2 9-2 3-2 9-2 16-8 9-5 3-1 2-4h2l2-4 8-7 4-5h2l2-4 6-10 3-6 5-7 8-17 3-8 4-9 5-11 2-7 2-4 2-12 2-5 2-11 2-5 2-11 2-5 1-10 2-2 1-5v-54h-2l-3 4h-2v2l-7 6-5 6-7 6-6 7-8 7-8 5-9 8-5 2-7 6-7 3-11 3-2 2-7 3-10 2-5 3-27 1-2 3h-62l-1-3-16-1-4-1v-2l-6-1-5-3-9-2v-2l-10-1-5-3-5-2v-2l-6-1-9-5-10-9-8-5-14-14-5-8-11-12-5-8-8-10-8-15-5-11-3-5-2-9-6-12-2-12-2-3-1-14h-2l-1-2v-52l1-2h2l1-29 3-7 1-19 3-10 2-10 8-17 7-11 7-8 3-5 9-10 2-5 15-16 3-3 2-5 11-12 9-8 19-10 23-11 9-3 15-3 4-2 20-2 4-2 20-2z" fill="#D62523"/>
<path transform="translate(657,760)" d="m0 0h57l5 3 7 1 4 3 7 3 14 7 5 4v2l4 2 8 5 8 7 4 6 3 5 8 9 9 19 2 7 2 5 1 12h2l2 16h2l1 4 1 15 2 1 1 3v21l-3 10-1 17-4 16-10 30-6 10-3 3-2 5-7 7-7 8-5 4-5 6-10 6-12 6-9 2-5 2-9 1-3 2-17 2-3 2-10 1h-17l-5-2v-2h-14l-7-3-13-2-16-8-9-5-6-5-6-3-6-5-6-3-8-9-3-5-5-7-8-17-6-16-2-5-1-15-3-9v-57l2-7 1-1 2-13 8-16 9-17 5-6 3-6 9-10 2-5 5-6 8-7 6-3 7-5 12-6 17-9 11-3z" fill="#FEFEFE"/>
<path transform="translate(131,80)" d="m0 0h16l13 3 17 8 9 7 7 7 9 14 5 18 2 17 1 12v22l-1 18-4 20-5 13-7 13-11 14-13 9-14 5-10 2h-21l-18-5-9-5-9-8-6-11-5-14-1-6 2-1 21-2 2 2 3 10 6 9 8 6 8 3h19l11-4 6-4 6-7 8-16 5-16 2-10 1-15-8 7-10 8-10 5-6 2-7 1h-20l-12-3-12-6-10-9-9-13-5-11-3-11v-16l2-17 4-9 7-11 9-10 5-5 12-6 12-3z" fill="#FEFEFE"/>
<path transform="translate(1155,1752)" d="m0 0h16l13 3 17 8 9 7 7 7 7 11 4 9 4 18 2 23v22l-1 18-4 20-5 13-7 13-11 14-13 9-14 5-10 2h-21l-15-4-12-6-9-8-6-11-5-14-1-6 2-1 21-2 2 2 3 10 6 9 8 6 8 3h19l11-4 6-4 6-7 8-16 5-16 2-10 1-15-8 7-10 8-10 5-6 2-8 1h-19l-12-3-12-6-10-9-9-13-5-11-3-11v-16l3-20 5-10 10-13 6-7 10-6 12-4z" fill="#FEFEFE"/>
<path transform="translate(609,1383)" d="m0 0h168l142 1 5 6v8l-4 5-2 1h-473l-5-6v-8l5-6z" fill="#D62523"/>
<path transform="translate(135,100)" d="m0 0h13l12 4 9 7 4 5 4 8 4 14 1 10-3 15-4 9-5 7-8 6-12 4-6 1h-8l-15-4-11-8-6-8-3-7-2-11v-12l3-12 4-8 8-10 11-7z" fill="#D62523"/>
<path transform="translate(1159,1772)" d="m0 0h13l12 4 9 7 4 5 4 8 4 14 1 10-3 15-4 9-5 7-8 6-12 4-6 1h-8l-15-4-11-8-6-8-3-7-2-11v-12l3-12 4-8 8-10 11-7z" fill="#D62523"/>
<path transform="translate(1093,1958)" d="m0 0h142l1 5-2 1h-133l-8-1-1-4z" fill="#FEFEFE"/>
<path transform="translate(69,286)" d="m0 0h141l2 2v3l-5 1h-128l-10-1-1-4z" fill="#FEFEFE"/>
</svg>
