<?xml version="1.0" encoding="UTF-8"?>
<svg version="1.1" viewBox="0 0 1296 2016" width="324" height="504" xmlns="http://www.w3.org/2000/svg">
<path transform="translate(0)" d="m0 0h1296v2016h-1296z" fill="#FFFFFE"/>
<path transform="translate(0)" d="m0 0h1296v352l-3-1-6-10-5-8-8-13-10-17-8-10-4-6-13-14-10-8-11-8-5-4-9-6-10-6-6-3-7-5-8-2-13-6-14-5-7-3-26-6-8-2-16-2-7-2-22-1-4-2-10-1-52-1-3-3h-58l-2 2-10 1-27 1-13 3-21 2-1 1-27 3-5 2-11 2-9 3-8 3-6 1-16 4-17 5-9 3-15 7-9 3-11 5-9 3-11 5-9 3-16 8-17 9-5 4-16 8-15 8-6 3-9 6-9 7-6 3-10 9-6 3-6 5-6 3-6 5-6 3-7 6-7 7-5 2-11 11h-2v2l-6 5-5 2-11 11h-2v2l-6 5-5 2-47 47h-2l-2 4-13 13-2 5-4 5-13 13-3 6-4 5-18 18-2 5-4 5-13 13-3 6-6 8-6 9-5 5-6 10-5 5-5 8-6 9-5 7-5 5-3 6-14 20-6 12-6 8-7 11-9 13-6 11-7 11-7 10-8 16-7 13-5 7-8 16-7 13-5 7-63 126-4 12-8 16-4 12-12 24-4 12-8 16-4 12-8 16-7 22-5 10-4 12-4 8-7 22-5 10-4 12-5 11-11 33-5 11-14 43-3 8-5 15-3 2z" fill="#D52623"/>
<path transform="translate(1294,767)" d="m0 0h2v1249h-1296v-320l3 1 6 10 7 11 5 9 10 17 8 8 10 14 11 11 11 7 9 9 18 10 9 6 19 9 11 4 12 5 13 4 16 4 9 2 2 1 25 2 2 2 11 1 36 1 1 2 4 1h52l1-3 52-1 18-1 6-2 21-2 8-2 19-2 9-2 21-2 22-5 19-5 23-5 10-2 31-8 15-6 18-6 10-3 7-3 13-5 20-7 20-9 60-30 16-9 18-12 14-8 10-7 11-7 15-10 3-3 6-3 5-5h2l1-3 9-6 8-7 12-11 8-5 4-4h2l1-3 9-6 8-7 24-24h2l2-4 14-14 2-5 5-5 3-4h2l2-4 18-18 3-6 7-8h2l2-4 6-6 3-6 12-13 5-8 8-10 6-9 7-11 7-10 7-11 6-9 7-10 6-9 7-11 8-14 14-28 6-10 10-18 22-44 7-16 5-12 7-16 5-12 10-21 10-26 14-41 6-15 12-36 7-22 20-70 4-13 5-19 3-10 2-13 5-18 3-18 5-18 3-18 5-18 3-18 2-9 2-15 2-8 1-11 2-3 1-5 1-16z" fill="#D52623"/>
<path transform="translate(905,635)" d="m0 0 3 1v65l-1 7h-2l-1 142-3 3-1 72-5-3-4-5-7-6-4-4v-2l-4-2-7-6-6-4-7-6v-2l-4-2-8-8v-2l-4-2-1-2-3 1-2 3h-2l-2 4-12 12-3 6-4 5-6 5-7 8-33 33-2 5-5 5-7 8h-2l-2 4h-2l-2 4-30 30-2 5-4 5-6 5-7 8-5 4-6 7-6 5-6 7-10 10-2 5-4 5-6 5-6 7-6 5-6 7-6 5-6 7-6 5-4 5-2 5-10 10-6 7-8 7-4-1-4-7-6-11-5-6-5-11-3-5-2-10-2-2-1-10h-2l-1-2-1-26-3-1v-30l3-9 1-16 5-15 4-5h2l2-4 5-8 3-4h2l2-4 10-10 2-5 16-17 2-2 2-5 5-5 3-4h2l2-4 10-10 3-6 15-16 2-2 2-5 4-5h2l2-4h2l2-4 10-10 2-5 16-17 2-2 2-5 4-5h2l2-4 9-9 3-6 9-10 1-3-4-2-10-6-8-7-6-4-10-8-6-4-10-8-6-4-7-6 1-3 14-5 11-4 13-5 8-3 16-5 8-3 17-6 11-5 10-3 24-8 10-3 7-3 13-5 8-3 30-10 16-6 18-7z" fill="#D52623"/>
<path transform="translate(785,956)" d="m0 0h6l8 9 9 17 7 15 4 16 5 16 1 14 3 9v22l-3 3-1 13-1 2h-2l-1 13-3 6-1 7-3 4-2 5-4 5-5 5-3 6-4 5-6 5-7 8-5 5-2 5-4 5-6 5-7 8-8 8h-2l-5 10-4 5-6 5-7 8-4 4h-2l-5 10-4 5-6 5-7 8-13 13-2 5-5 6h-2l-1 3-13 13h-2l-2 4h-2l-2 4-3 7-5 5-1 5 8 8 8 4 8 8 6 3 10 9 6 3 8 7v2l6 2 7 5v2l-9 4-12 4-11 5-9 3-11 3-5 2-7 2-9 3-5 3-11 4-16 5-7 3-9 3-8 4-11 3-9 3-11 4-12 5-9 3-8 3-16 5-11 4-17 7-11 4h-4v-71l3-1 1-143 3-1 1-72 5 2 19 19 9 5 26 26 2 3h2l2-3h2l2-4 42-42 2-5 4-5h2l2-4 25-25 3-7h2l2-4h2l2-4 21-21 3-7h2l2-4 30-30 2-6h2l2-4h2l2-4 21-21 3-7h2l2-4 25-25 3-7h2l2-4z" fill="#D52623"/>
<path transform="translate(202,48)" d="m0 0h6v24l-1 41v23l-4-1-10-9-6-5h-2l-8 10-6 7h-2l-2 4-11 12-7 7-7 8-12 13-3 4h-2l-2 4-8 8-7 8h-4l-6-13-4-16v-9l3-12 8-10 14-17 22-26 9-12-5-4-12-9-2-1 1-4 36-13z" fill="#FFFFFE"/>
<path transform="translate(1226,1720)" d="m0 0h6v23l-1 42v23h-3l-11-10-6-5h-2l-8 10-6 7h-2l-2 4-11 12-7 7-7 8-12 13-3 4h-2l-2 4-8 8-7 8h-4l-6-13-4-16v-9l3-12 8-10 14-17 22-26 9-12-5-4-14-11 1-3 53-19z" fill="#FFFFFE"/>
<path transform="translate(1193,1820)" d="m0 0h4l6 12 4 14v13l-4 13-4 6-11 13-12 14-11 12-7 8-8 10 5 5 10 8 5 5-12 5-50 18-14 4-2-1v-14l1-9 2-49v-15h4l14 13 3 1 12-12 7-8 13-15 12-14 12-13 9-11z" fill="#FFFFFE"/>
<path transform="translate(169,148)" d="m0 0h4l6 12 4 14v13l-4 13-4 6-11 13-12 14-11 12-7 8-7 9 1 4 13 10 4 3v3l-39 14-31 11h-6l-1-1v-12l1-10 2-50v-13l1-2 4 2 13 12 5-1 10-10 7-8 13-15 12-14 12-13 9-11z" fill="#FFFFFE"/>
</svg>
