<?xml version="1.0" encoding="UTF-8"?>
<svg version="1.1" viewBox="0 0 1296 2016" width="324" height="504" xmlns="http://www.w3.org/2000/svg">
<path transform="translate(0)" d="m0 0h1296v2016h-1296z" fill="#FEFEFE"/>
<path transform="translate(0)" d="m0 0h1296v352l-3-1-6-10-5-8-8-13-10-17-8-10-4-6-10-11-8-7-5-4-6-4-10-8-9-6-10-6-6-3-7-5-8-2-13-6-14-5-7-3-26-6-8-2-16-2-7-2-22-1-4-2-10-1-52-1-3-3h-58l-2 2-10 1-27 1-13 3-21 2-1 1-27 3-5 2-11 2-9 3-8 3-6 1-16 4-17 5-9 3-15 7-9 3-11 5-9 3-11 5-9 3-16 8-15 8-7 5-16 8-15 8-6 3-9 6-9 7-6 3-10 9-6 3-6 5-6 3-6 5-6 3-7 6-7 7-5 2-11 11h-2v2l-6 5-5 2-11 11h-2v2l-6 5-5 2-64 64-2 5-4 5-13 13-3 6-4 5-18 18-2 5-4 5-13 13-3 6-6 8-6 9-5 5-6 10-5 5-5 8-6 9-5 7-5 5-3 6-7 10-5 8h-2l-2 7-7 11-7 10-7 11-5 7-6 11-7 11-7 10-8 16-7 13-5 7-8 16-7 13-5 7-63 126-4 12-8 16-4 12-12 24-4 12-8 16-4 12-8 16-8 24-4 8-4 12-4 8-7 22-5 10-4 12-5 11-11 33-5 11-14 43-3 8-5 15-3 2z" fill="#D62522"/>
<path transform="translate(1294,767)" d="m0 0h2v1249h-1296v-320l3 1 6 10 7 11 5 9 10 17 8 8 10 14 11 11 8 5 10 9 9 6 11 6 9 6 19 9 11 4 12 5 13 4 16 4 9 2 2 1 25 2 2 2 11 1 36 1 1 2 4 1h52l1-3 51-1 19-1 6-2 21-2 7-2 24-3 17-2 14-2 17-4 19-5 23-5 10-2 31-8 15-6 18-6 10-3 7-3 13-5 20-7 20-9 58-29 18-10 18-12 14-8 10-7 11-7 15-10 3-3 6-3 5-5h2l1-3 9-6 8-7 13-12 6-3 5-5h2l1-3 9-6 8-7 42-42 2-5 8-9h2l2-4 18-18 3-6 7-8h2l2-4 6-6 3-6 12-13 5-8 8-10 6-9 7-11 7-10 7-11 6-9 7-10 6-9 7-11 8-14 14-28 6-10 10-18 22-44 7-16 5-12 7-16 5-12 10-21 10-26 14-41 6-15 12-36 7-22 20-70 4-13 5-19 3-10 2-13 5-18 3-18 5-18 3-18 5-18 3-18 2-9 2-15 2-8 1-11 2-3 1-5 1-16z" fill="#D62522"/>
<path transform="translate(638,688)" d="m0 0h80l7 3 9 1 7 3 9 1 7 3 6 2 26 13 6 5 7 4 26 26 6 10 10 19 5 13 8 32 3 9 1 15 3 9v30l-2 2-1 7-1 17-3 9-5 13-2 3-3 10-8 16-6 8-6 12-6 8-3 5-9 10-2 5-5 6h-2l-1 3-5 5-3 6-4 5-4 4h-2l-2 4-6 6-2 5-4 5-4 4h-2l-2 4-73 73h-2l-1 3-5 4-5 2-18 18h-2l-2 4h-2l-2 4h-2l-2 4-28 28h-2l-2 4-6 5-6 7-5 5h-2l-2 4-5 6-8 16h239l48 1v76l-199 1-3 3h-194v-12l2-5 2-18 3-11 2-13 4-12 8-16 5-9 6-9 7-10 4-6 8-10 6-9 7-11 3-3 2-5 11-12 57-57h2v-2l8-7 3-3 6-3 33-33h2v-2l8-7 3-3 6-3 13-13h2l2-4h2l2-4h2l2-4 6-6 2-5 8-9h2l2-4 6-6 2-5 4-5h2l2-4h2l2-4h2l2-4h2l2-4h2l2-4 10-19 8-17 5-14 3-6 2-7 2-5v-57l-7-14-3-10-8-15-7-8-9-7-9-6v-2l-4-2-10-6-7-3-1-1-9-2-3-2h-57l-17 5-9 5-6 3-8 6-5 3-4 2-1 3-6 5-5 5-7 8-3 7-9 18-1 10-2 3-1 5-1 21-1 2h-2l-1 16h-19l-2-3-33-1-2-1v-2l-19-1-1-1v-19l3-9 1-15 5-12 3-9 3-8 5-13 3-6 3-9 6-10 3-4 3-5 9-10 22-22h2l1-3 9-6 15-8 14-7 9-2 12-6 20-2z" fill="#D62522"/>
<path transform="translate(125,72)" d="m0 0h30l10 3 11 6 9 8 7 12 3 10 1 7v20l-3 12-6 11-6 9-8 10-11 12-22 22-8 7-15 15-7 8-2 3h86l2 2v20l-1 1-86 2h-31l-2-1v-8l4-15 10-16 11-14 19-19 8-7 14-13 5-5 8-9 10-13 6-13 1-4v-18l-4-9-4-6-9-6-5-2h-22l-11 6-7 8-4 10-3 14-14-1-8-2-1-5 5-18 6-12 11-12 10-6z" fill="#FEFEFE"/>
<path transform="translate(1153,1752)" d="m0 0h30l10 3 11 6 9 8 7 12 3 10 1 7v20l-4 15-8 13-10 13-12 13-22 22-8 7-15 15-1 2h-2l-2 4-4 5h86l2 2v20l-1 1-86 2h-31l-2-1v-8l4-15 10-16 11-14 19-19 8-7 14-13 5-5 8-9 10-13 6-13 1-4v-18l-4-9-4-6-9-6-5-2h-22l-8 4-9 8-5 12-3 14-14-1-8-2-1-5 5-18 6-12 11-12 10-6z" fill="#FEFEFE"/>
</svg>
