<?xml version="1.0" encoding="UTF-8"?>
<svg version="1.1" viewBox="0 0 1296 2016" width="324" height="504" xmlns="http://www.w3.org/2000/svg">
<path transform="translate(0)" d="m0 0h1296v2016h-1296z" fill="#FFFFFE"/>
<path transform="translate(0)" d="m0 0h1296v352l-3-1-6-10-5-8-8-13-10-17-8-10-4-6-10-11-8-7-5-4-6-4-10-8-9-6-10-6-6-3-7-5-8-2-13-6-14-5-7-3-26-6-8-2-16-2-7-2-22-1-4-2-10-1-52-1-3-3h-58l-2 2-10 1-27 1-13 3-21 2-1 1-27 3-5 2-11 2-9 3-8 3-6 1-16 4-17 5-9 3-15 7-9 3-11 5-9 3-11 5-9 3-16 8-15 8-7 5-16 8-15 8-6 3-9 6-9 7-6 3-10 9-6 3-6 5-6 3-6 5-6 3-7 6-7 7-5 2-11 11h-2v2l-6 5-5 2-11 11h-2v2l-6 5-5 2-64 64-2 5-4 5-13 13-3 6-4 5-18 18-2 5-4 5-13 13-3 6-6 8-6 9-5 5-6 10-5 5-5 8-6 9-5 7-5 5-3 6-7 10-5 8h-2l-2 7-7 11-7 10-7 11-5 7-6 11-7 11-7 10-8 16-7 13-5 7-8 16-7 13-5 7-63 126-4 12-8 16-4 12-12 24-4 12-8 16-4 12-8 16-8 24-4 8-4 12-4 8-7 22-5 10-4 12-5 11-11 33-5 11-14 43-3 8-5 15-3 2z" fill="#D62523"/>
<path transform="translate(1294,767)" d="m0 0h2v1249h-1296v-320l3 1 6 10 7 11 5 9 10 17 8 8 10 14 11 11 8 5 10 9 9 6 11 6 9 6 19 9 11 4 12 5 13 4 16 4 9 2 2 1 25 2 2 2 11 1 36 1 1 2 4 1h52l1-3 51-1 19-1 6-2 21-2 7-2 24-3 17-2 14-2 17-4 19-5 23-5 10-2 31-8 15-6 18-6 10-3 7-3 13-5 20-7 20-9 58-29 18-10 18-12 14-8 10-7 11-7 15-10 3-3 6-3 5-5h2l1-3 9-6 8-7 13-12 6-3 5-5h2l1-3 9-6 8-7 42-42 2-5 8-9h2l2-4 18-18 3-6 7-8h2l2-4 6-6 3-6 12-13 5-8 8-10 6-9 7-11 7-10 7-11 6-9 7-10 6-9 7-11 6-10 16-32 6-10 10-18 22-44 7-16 5-12 7-16 5-12 10-21 10-26 14-41 6-15 12-36 7-22 20-70 4-13 5-19 3-10 2-13 5-18 3-18 5-18 3-18 5-18 3-18 2-9 2-15 2-8 1-11 2-3 1-5 1-16z" fill="#D62523"/>
<path transform="translate(658,688)" d="m0 0h49l1 3 26 1 19 10 10 2v2l11 2 7 3 6 2 10 5 19 19 10 6 10 11 3 5 9 10 8 13 8 18 8 25 2 10 2 5v38l-3 4-1 11-1 3h-2l-1 10-1 2h-2l-1 10-9 17-6 8-3 5-4 5h-2l-1 3-5 5-3 6-5 6h-2l-1 3-5 4-7 3-10 6-3 3-6 1 1 5 32 16 23 11 10 6 10 11 4 7 8 13 6 10 9 17 5 16 3 12 1 3 1 15 3 9v54l-1 2h-2l-1 16-5 11-16 32-5 9-5 7-3 5-5 7-3 5-7 8h-2l-2 4-20 20-5 4-10 5-1 3-6 4-30 15-11 5-11 1-5 3-11 1-2 2-9 1-17 1-6 2-1 1h-41l-1-3-32-1-4-1v-2l-16-1-12-5v-2l-6-1-5-3-9-2v-2l-6-1-2-1v-2l-7-2-9-8-5-5-6-5-6-4-7-6-4-4v-2l-4-2-8-10-4-6-8-10-6-9-6-10-9-19-4-10-2-6-1-1-2-14-2-3-2-16-2-4v-8l1-1 22-2 4-2 23-1h14v-2l3-1 19-1 3 5 3 9 6 26 4 16 12 24 18 18 10 6 3 3v2l4 2 6 5 9 4 7 1 1 2 5 1 18 1 1 2 4 1h24l11-1 3-2 17-2 3-2 13-2 16-8 5-5 6-5 5-2 8-8 2-5 7-8 5-5 7-11 5-8 6-13 4-12 1-9 2-3 1-5v-38l-3-2-1-19-10-21-6-10-11-11-3-6-11-11-6-3-10-9-8-4-11-4-9-1-2-1v-2l-22-1-3-3h-34l-4 3h-32l-1-1v-11l2-5 1-6 1-19 3-12 1-13 1-1 18-2 6-2 22-2 4-2 12-2 3-2 10-2 3-2 12-2 19-10 9-9 4-5 2-5 9-10 5-10 2-8 2-4 1-7 2-2 1-5v-22l-3-2-1-28-3-5-2-9-5-9-5-6-3-6-6-7-5-4-6-3-9-6-5-3-9-2-3-2-10-2v-2l-16-1-4-1v-2h-23l-5 3-14 1-4 3-6 2-3 2-9 2-2 2-5 2-10 9-6 3-3 3h-2v2l-7 7-2 5-6 7-2 6h-2l-1 10-3 4-1 8-3 4-2 10h-2l-1 13-3 5-2 6h-13l-2-1v-2h-9l-17-1-2-2-4-1-16-1-4-1v-2l-14-1-2-1v-11l3-9 1-15 5-12 5-10 4-11 8-16 6-10 3-3 2-5 4-5h2l2-4h2l2-4 5-4 6-3 17-17h2l2-4 13-8 17-8 9-3 11-3 12-6 33-1v-2z" fill="#D62523"/>
<path transform="translate(1148,1756)" d="m0 0h31l13 4 11 7 7 7 7 11 4 11 1 5-1 13-5 14-9 12-9 6-1 2 6 2 14 8 7 10 4 9 4 15v13l-4 13-6 12-7 9-10 10-16 8-9 2-10 1h-9l-16-2-10-4-12-8v-2l-4-2-8-11-6-12-4-12 1-5 25-2 7 21 6 8 8 6 11 3h11l12-3 9-6 8-10 4-9 1-4v-17l-4-11-8-10-8-5-12-3h-21l-1-5 2-13 1-2 19-4 9-3 8-7 5-9 1-4v-9l-2-10-5-10-10-6-7-2h-14l-10 4-8 7-5 10-4 13-3 1-20-4-2-2 2-10 6-14 6-8 8-8 8-5z" fill="#FFFFFE"/>
<path transform="translate(120,76)" d="m0 0h31l13 4 11 7 7 7 7 11 4 11 1 5v8l-3 12-5 10-8 10-8 5-1 2 6 2 14 8 7 10 4 9 4 15v13l-4 13-6 12-7 9-10 10-14 7-11 3-10 1-21-1-10-3-11-6-5-4v-2l-4-2-8-11-6-12-4-12 1-5 25-2 7 21 6 8 8 6 11 3h12l13-4 8-6 8-11 4-10v-18l-4-11-8-10-8-5-12-3h-21l-1-5 2-13 1-2 19-4 9-3 8-7 5-9 1-4v-9l-2-10-5-10-10-6-7-2h-14l-10 4-8 7-5 10-4 13-3 1-20-4-2-2 2-10 6-14 6-8 8-8 8-5z" fill="#FFFFFE"/>
</svg>
