<?xml version="1.0" encoding="UTF-8"?>
<svg version="1.1" viewBox="0 0 1296 2016" width="324" height="504" xmlns="http://www.w3.org/2000/svg">
<path transform="translate(0)" d="m0 0h1296v2016h-1296z" fill="#FEFFFE"/>
<path transform="translate(0)" d="m0 0h1296v352l-3-1-6-10-5-8-8-13-10-17-8-10-4-6-10-11-8-7-5-4-6-4-10-8-9-6-10-6-6-3-7-5-8-2-13-6-14-5-7-3-26-6-8-2-16-2-7-2-22-1-4-2-10-1-52-1-3-3h-58l-2 2-9 1-28 1-13 3-21 2-1 1-27 3-5 2-11 2-9 3-8 3-6 1-16 4-17 5-9 3-15 7-9 3-11 5-9 3-11 5-9 3-16 8-15 8-7 5-16 8-15 8-6 3-9 6-9 7-6 3-10 9-6 3-6 5-6 3-6 5-6 3-7 6-7 7-5 2-11 11h-2v2l-6 5-5 2-11 11h-2v2l-6 5-5 2-64 64-2 5-4 5-13 13-3 6-4 5-18 18-2 5-4 5-13 13-3 6-6 8-6 9-5 5-6 10-5 5-5 8-6 9-5 7-5 5-3 6-7 10-5 8h-2l-2 7-7 11-7 10-7 11-5 7-6 11-7 11-7 10-8 16-7 13-5 7-8 16-7 13-5 7-63 126-4 12-8 16-4 12-12 24-4 12-8 16-4 12-8 16-8 24-4 8-4 12-4 8-7 22-5 10-4 12-5 11-11 33-5 11-14 43-3 8-5 15-3 2z" fill="#D62522"/>
<path transform="translate(1294,767)" d="m0 0h2v1249h-1296v-320l3 1 6 10 7 11 5 9 10 17 8 8 10 14 11 11 8 5 10 9 9 6 11 6 9 6 19 9 11 4 12 5 13 4 16 4 9 2 2 1 25 2 2 2 11 1 36 1 1 2 4 1h52l1-3 51-1 19-1 6-2 21-2 7-2 20-2 9-2 21-2 22-5 19-5 23-5 10-2 31-8 15-6 18-6 10-3 7-3 13-5 20-7 20-9 58-29 18-10 18-12 14-8 10-7 11-7 15-10 3-3 6-3 5-5h2l1-3 9-6 8-7 13-12 6-3 5-5h2l1-3 9-6 8-7 42-42 2-5 8-9h2l2-4 18-18 3-6 7-8h2l2-4 6-6 3-6 12-13 5-8 8-10 6-9 7-11 7-10 7-11 6-9 7-10 6-9 7-11 8-14 14-28 6-10 10-18 22-44 7-16 5-12 7-16 5-12 10-21 10-26 14-41 6-15 12-36 7-22 20-70 4-13 5-19 3-10 2-13 5-18 3-18 5-18 3-18 5-18 3-18 2-9 2-15 2-8 1-11 2-3 1-5 1-16z" fill="#D62522"/>
<path transform="translate(816,703)" d="m0 0 4 1 1 419 95 1v76l-95 1-1 151h-88l-1-151-303-1v-78l7-8 3-6 9-10 3-6 9-10 3-6 12-13 5-8 8-10 4-6 8-9 3-6 9-10 4-5 4-6 8-9 3-6 9-10 2-5 5-5 9-11 4-6 8-10 5-8 7-7 2-5 13-14 5-8 8-10 5-8 7-7 2-5 13-14 6-10 5-5 3-5 9-11 3-5 9-11 6-7 4-6 8-10 5-8 5-5 3-5 9-11 6-7 4-6 8-9 3-6 7-8 5-8 7-8z" fill="#D62522"/>
<path transform="translate(729,836)" d="m0 0 3 1v284l-2 3h-213v-4l5-5 5-8 7-8 6-10 3-1 2-4 7-11 7-7 2-5 10-11 2-5 5-5 5-6 2-5 5-5 5-6 2-5 5-5 5-6 2-5 5-5 5-6 2-5 5-5 5-6 2-5 4-5 5-5 3-6 4-5 5-5 3-6 5-5 5-6 2-5 5-5 5-6 2-5 5-5 5-6 2-5 10-11 2-5 4-5 5-5 3-6 9-10z" fill="#FEFFFE"/>
<path transform="translate(1188,1756)" d="m0 0h20l1 1v125l30 1 1 1v20l-3 2h-28v45l-4 1h-21l-1-1v-45h-88l-3-2v-21l10-14 12-16 16-21 48-64 8-10z" fill="#FEFFFE"/>
<path transform="translate(160,80)" d="m0 0h20l1 1v125l30 1 1 1v19l-1 2-16 1h-14v45l-6 1h-18l-2-2v-44h-88l-3-2v-21l10-14 12-16 16-21 48-64 8-10z" fill="#FEFFFE"/>
<path transform="translate(1181,1796)" d="m0 0h2v86l-1 1h-63l2-5 15-20 13-18 14-19 13-18z" fill="#D62522"/>
<path transform="translate(153,120)" d="m0 0h2v86l-1 1h-63l2-5 15-20 13-18 14-19 13-18z" fill="#D62522"/>
</svg>
