<?xml version="1.0" encoding="UTF-8"?>
<svg version="1.1" viewBox="0 0 1296 2016" width="324" height="504" xmlns="http://www.w3.org/2000/svg">
<path transform="translate(0)" d="m0 0h1296v2016h-1296z" fill="#FEFEFE"/>
<path transform="translate(0)" d="m0 0h1296v352l-3-1-6-10-5-8-8-13-10-17-8-10-4-6-13-14-10-8-6-4-10-8-9-6-10-6-6-3-7-5-8-2-13-6-14-5-7-3-26-6-8-2-16-2-7-2-22-1-4-2-10-1-52-1-3-3h-58l-2 2-10 1-27 1-13 3-21 2-1 1-27 3-5 2-11 2-9 3-8 3-6 1-16 4-17 5-9 3-15 7-9 3-11 5-9 3-11 5-9 3-16 8-17 9-5 4-16 8-15 8-6 3-9 6-9 7-6 3-10 9-6 3-6 5-6 3-6 5-6 3-7 6-7 7-5 2-11 11h-2v2l-6 5-5 2-11 11h-2v2l-6 5-5 2-47 47h-2l-2 4-13 13-2 5-4 5-13 13-3 6-4 5-18 18-2 5-4 5-13 13-3 6-6 8-6 9-5 5-6 10-5 5-5 8-6 9-5 7-5 5-3 6-7 10-5 8h-2l-2 7-7 11-7 10-7 11-5 7-6 11-7 11-7 10-8 16-7 13-5 7-8 16-7 13-5 7-63 126-4 12-8 16-4 12-12 24-4 12-8 16-4 12-8 16-8 24-4 8-4 12-4 8-7 22-5 10-4 12-5 11-11 33-5 11-14 43-3 8-5 15-3 2z" fill="#D62522"/>
<path transform="translate(1294,767)" d="m0 0h2v1249h-1296v-320l3 1 6 10 7 11 5 9 10 17 8 8 10 14 11 11 11 7 9 9 18 10 9 6 19 9 11 4 12 5 13 4 16 4 9 2 2 1 25 2 2 2 11 1 36 1 1 2 4 1h52l1-3 52-1 18-1 6-2 21-2 8-2 19-2 9-2 21-2 22-5 19-5 23-5 10-2 31-8 15-6 18-6 10-3 7-3 13-5 20-7 20-9 60-30 16-9 18-12 14-8 10-7 11-7 15-10 3-3 6-3 5-5h2l1-3 9-6 8-7 12-11 8-5 4-4h2l1-3 9-6 8-7 12-12h2l2-4 8-8h2l2-4 14-14 2-5 5-5 3-4h2l2-4 18-18 3-6 7-8h2l2-4 6-6 3-6 12-13 5-8 8-10 6-9 7-11 7-10 7-11 6-9 7-10 6-9 7-11 8-14 14-28 6-10 10-18 22-44 7-16 5-12 7-16 5-12 10-21 10-26 14-41 6-15 12-36 7-22 20-70 4-13 5-19 3-10 2-13 5-18 3-18 5-18 3-18 5-18 3-18 2-9 2-15 2-8 1-11 2-3 1-5 1-16z" fill="#D62522"/>
<path transform="translate(909,731)" d="m0 0 3 1v61l-5 7-6 5-4 6-3 5-7 8h-2l-2 4-6 6-3 6-8 9-6 10-5 5-7 11-5 5-7 11-3 4-6 12-6 8-6 9-7 11-3 4-6 12-6 8-6 12-6 8-8 16-6 9-10 19-8 17-5 14-3 6-3 8-5 12-3 9-7 14-3 9-4 10-3 5-2 12-2 5-2 7-4 9h-2l-1 10-1 2h-2l-1 10-3 4-1 8-2 2-3 16h-2l-1 10-2 2-2 17-2 3-1 7-1 23-3 5-1 27-1 2h-2l-1 34-1 2h-2l-1 19-1 1h-83v-25l3-7 1-42 1-2h2l1-31 3-9 2-15 5-18 4-16 3-10 4-12 5-18 3-10 4-12 5-18 3-10 7-19 10-19 8-17 5-13 54-108 6-8 6-9 7-11 3-3 3-6 8-9 6-10 7-10 7-11 5-7 3-5 9-10 8-9 4-7 8-8v-1l-315-1v-76z" fill="#D62522"/>
<path transform="translate(69,80)" d="m0 0h146l1 1v16l-3 6-7 7-9 11-12 16-12 18-10 16-12 25-10 26-5 16-5 32-1 8-3 2h-25l-2-2 2-22 3-18 8-26 6-16 9-19 7-12 6-11 7-12 9-12 10-13 10-12-108-1-1-1v-22z" fill="#FEFEFE"/>
<path transform="translate(1093,1756)" d="m0 0h146l1 1v16l-3 6-7 7-9 11-12 16-16 24-9 16-10 22-9 23-5 16-5 32-1 8-4 2h-20l-6-2 2-23 4-20 6-20 7-19 9-19 7-12 6-11 7-12 9-12 10-13 10-12-108-1-1-1v-22z" fill="#FEFEFE"/>
</svg>
