<?xml version="1.0" encoding="UTF-8"?>
<svg version="1.1" viewBox="0 0 1296 2016" width="324" height="504" xmlns="http://www.w3.org/2000/svg">
<path transform="translate(0)" d="m0 0h1296v2016h-1296z" fill="#FEFFFE"/>
<path transform="translate(0)" d="m0 0h1296v352l-3-1-6-10-5-8-8-13-10-17-8-10-4-6-10-11-8-7-5-4-6-4-10-8-9-6-10-6-6-3-7-5-8-2-13-6-14-5-7-3-26-6-8-2-16-2-7-2-22-1-4-2-10-1-52-1-3-3h-58l-2 2-9 1-28 1-13 3-21 2-1 1-27 3-5 2-11 2-9 3-8 3-6 1-16 4-17 5-9 3-15 7-9 3-11 5-9 3-11 5-9 3-17 9-14 7-7 5-16 8-15 8-6 3-9 6-9 7-6 3-10 9-6 3-6 5-6 3-6 5-6 3-7 6-7 7-5 2-11 11h-2v2l-6 5-5 2-11 11h-2l-1 3-5 4-5 2-64 64-2 5-4 5-13 13-3 6-4 5-18 18-2 5-5 6h-2l-2 4-8 8-3 6-6 8-6 9-5 5-6 10-5 5-5 8-6 9-5 7-5 5-3 6-7 10-5 8h-2l-2 7-7 11-7 10-7 11-5 7-6 12-6 8-7 11-10 19-6 11-5 7-8 16-7 13-5 7-24 48-9 19-10 19-20 40-4 12-8 16-4 12-12 24-4 12-8 16-4 12-8 16-8 24-4 8-4 12-4 8-7 22-5 10-4 12-5 11-11 33-5 11-14 43-3 8-5 15-3 2z" fill="#D62523"/>
<path transform="translate(1294,767)" d="m0 0h2v1249h-1296v-320l3 1 6 10 7 11 5 9 10 17 8 8 10 14 11 11 8 5 10 9 9 6 11 6 9 6 19 9 11 4 12 5 13 4 16 4 9 2 2 1 25 2 2 2 11 1 36 1 1 2 4 1h52l1-3 50-1 20-1 6-2 21-2 7-2 24-3 17-2 14-2 17-4 19-5 23-5 10-2 31-8 11-5 10-3 12-4 23-8 11-5 10-3 13-5 25-12 44-22 20-11 18-12 14-8 10-7 11-7 15-10 3-3 6-3 5-5h2l1-3 9-6 8-7 6-5 5-5 5-3 8-7h2l1-3 9-6 8-7 42-42 2-5 4-5h2l2-4h2l2-4 18-18 3-6 15-16 3-5 9-11 6-7 5-8h2l2-4 12-18 7-10 7-11 9-13 6-9 7-11 7-10 12-22 11-22 6-10 10-18 22-44 7-16 6-15 5-10 5-13 11-23 12-32 12-35 6-15 12-36 7-22 20-70 4-13 5-19 3-10 2-13 5-18 3-18 5-18 3-18 5-18 3-18 2-9 2-15 2-8 1-11 2-3 1-5 1-16z" fill="#D62523"/>
<path transform="translate(666,692)" d="m0 0h45l1 3 26 1 6 3 7 2 11 3 7 3 9 1 19 10 14 7 10 9 6 5 7 4 26 26 8 13 7 15 7 30 9 26 1 7-47 1-3 3h-41l-1-1-1-11h-2l-1-2-2-14-2-2-2-9-5-9-5-6-3-6-7-7-6-3-11-9-9-6-9-5-7-3v-2l-7-2-3-2h-49l-2 2-4 1-17 1-6 3-12 2-2 2-5 2-7 6-5 2-11 10-5 2-3 3h-2l-1 3-6 5-4 5-2 5-4 5-6 5-4 5-3 7-13 26-1 10-3 5-1 9-3 1-1 14-3 5-1 11-3 4-1 12-2 2-1 7-1 25-1 7-2 7-1 22 8-7 9-9h2l2-4 5-4 6-3 17-17h2l2-4 5-4 23-11 5-2 6-2 2-1 13-2 12-6 29-1v-2l2-1h60l2 2 14 2 7 3 6 2 11 3 19 10 16 8 4 4 16 8 11 11 9 5 7 7 4 5 4 7 4 5 4 7 7 10 8 14 5 11 11 33 1 5 1 17 3 9v56l-1 4h-2l-1 16-3 9-3 7-3 11-6 12-2 8-4 8-6 8-7 14-6 10-6 5-5 7-3 5-4 5h-2l-2 4h-2l-2 4-8 7-5 2-10 10-10 6-16 8-17 8-3 2-12 1-3 3-12 1-4 3-28 1-4 3h-49l-1-3-31-1-2-2-15-3-5-2-10-2-17-8-19-10-18-12-10-8-6-4-7-6v-2l-4-2-4-4v-2l-4-2-8-10-4-6-8-10-8-15-11-23-5-10-3-9-4-9-3-11-2-2-1-18h-2l-1-2-1-26-3-1-1-51-3-1v-102l3-1 1-42 1-2h2l1-23 4-16 5-16 4-12 7-19 6-15 3-10 8-16 6-8 6-12 6-8 3-5 9-10 10-10h2l2-4 5-4 6-3 9-9 11-7 3-1v-2l21-11 7-4 3-3 8-4 9-2 7-3 9-1 7-3h6v-2l2-1 29-2z" fill="#D62523"/>
<path transform="translate(645 1e3)" d="m0 0h45l6 3 12 2 5 2 11 2 4 2 11 2 12 6 5 3 12 11 11 11 5 7 3 5 8 9 9 19 1 16h2l1 3 1 24 3 2v46l-2 6-1 2-2 12-4 12-8 16-5 9-9 11-4 6-7 8h-2l-5 10-6 7-17 8-4 2-7 2-13 4-1 1-17 2-3 2-10 1h-20l-6-2v-2h-14l-7-3-13-2-17-9-6-5-6-3-8-8-8-4-7-7-8-16-12-20-9-19-3-13-3-18-2-7v-44l1-2h2l1-14 3-4 2-10 2-2 3-7 5-9 2-5 4-5 5-5 3-6 4-5 5-4 5-2 7-6 5-2 7-6 6-3 6-5 5-2 12-6 12-2z" fill="#FEFFFE"/>
<path transform="translate(1159,1752)" d="m0 0h24l13 3 13 7 12 11 6 12 4 13v4l-24 1-3-3-4-11-8-9-8-5-7-2-15 1-10 3-8 6-5 5-6 9-4 10-5 21-2 16 5-2 7-7 10-7 12-4 12-2h14l14 4 11 6 9 7 8 9 8 16 3 14v18l-4 15-8 16-9 11-11 8-11 5-17 3h-15l-12-2-11-4-10-6-10-9-6-8-8-16-4-13-2-14-1-16v-24l2-19 3-14 7-19 6-10 9-10 11-9 12-6z" fill="#FEFFFE"/>
<path transform="translate(135,76)" d="m0 0h24l13 3 13 7 12 11 6 12 4 13v4l-24 1-3-3-4-11-8-9-8-5-7-2-15 1-10 3-8 6-7 7-7 14-5 18-3 21-1 2 6-3 7-7 10-7 12-4 12-2h14l13 4 12 6 10 8 7 8 8 16 3 14v18l-4 15-8 16-9 11-11 8-11 5-17 3h-15l-12-2-11-4-14-9-8-8-8-13-6-15-3-13-2-24v-24l2-19 3-14 7-19 6-10 6-8 16-12 10-5z" fill="#FEFFFE"/>
<path transform="translate(613,1375)" d="m0 0h188l110 1 4 4 1 3v7l-4 5-2 1h-481l-5-6v-8l5-6z" fill="#D62523"/>
<path transform="translate(134,168)" d="m0 0h15l15 4 6 4 9 11 4 12 1 7v17l-4 11-7 11-7 7-9 4-10 2-11-1-10-3-8-6-7-8-6-13-2-7v-20l4-11 6-9 13-9z" fill="#D62523"/>
<path transform="translate(1158,1844)" d="m0 0h14l16 4 6 4 10 13 3 10 1 7v17l-5 13-8 11-7 6-11 4-12 1-13-3-9-6-8-9-6-13-2-7v-20l4-11 6-9 13-9z" fill="#D62523"/>
<path transform="translate(1093,1958)" d="m0 0h145l1 5-6 1h-138l-3-3z" fill="#FEFFFE"/>
<path transform="translate(69,282)" d="m0 0h145l2 4-1 1-7 1h-124l-15-1-1-4z" fill="#FEFFFE"/>
</svg>
