<?xml version="1.0" encoding="UTF-8"?>
<svg version="1.1" viewBox="0 0 1296 2016" width="324" height="504" xmlns="http://www.w3.org/2000/svg">
<path transform="translate(0)" d="m0 0h1296v2016h-1296z" fill="#FEFEFE"/>
<path transform="translate(0)" d="m0 0h1296v352l-3-1-6-10-5-8-5-9-5-7-6-12-9-10-6-10-16-16-7-5-5-3-8-7-11-7-5-3-11-6-7-5-8-2-12-6-9-3-11-5-12-2-3-2-13-2-3-2-17-1-5-2-1-1-27-1-5-3-29-1h-29l-5-2-1-1h-58l-2 2-42 2-2 2-26 2-2 2-26 2-2 2-14 2-2 2-10 2-7 3-9 1-7 3-9 1-2 2-10 2-7 3-6 2-10 5-10 3-10 5-10 3-10 5-10 3-24 12-20 12-19 10-14 7-11 8-7 5-7 4-9 8-7 4-5 4-7 4-5 4-5 3-10 9-5 4-5 3-10 9-9 8-5 3-10 9-9 8-5 3-10 9-49 49-4 5-3 6-12 12-5 6-3 6-13 13-7 8-5 8-11 11-5 6-3 6-5 6-3 6-9 10-3 6-9 10-3 6-5 6-3 6-9 10-3 6-5 6-5 9-3 3-7 14-5 6-5 9-3 3-5 9-3 3-7 14-5 6-5 9-3 3-15 30-6 9-8 15-6 12-6 9-63 126-5 14-7 14-5 14-8 16-4 10-6 14-5 10-5 14-7 14-3 10-6 16-12 30-6 17-5 11-5 14-4 10-9 27-7 17-21 63-3 2z"/>
<path transform="translate(1295,767)" d="m0 0h1v1249h-1296v-321l4 4 6 9 6 10 3 6 5 7 6 12 13 14 5 8 14 14 5 2 14 13 14 7 6 5 16 8 11 5 8 3 13 5 13 4 28 7 25 3 1 1 11 1 35 1 3 3h54l2-3 54-1 17-1 2-2 16-1 9-1 4-2 15-1 9-1 4-2 17-1 11-1 9-3 9-2 32-8 18-3 5-2 13-3 15-4 11-5 20-6 8-3 11-4 13-5 8-3 7-3 10-3 80-40 9-5 7-5 7-4 8-5 10-6 7-5 7-4 5-4 7-4 10-7 5-4 6-3 7-6 7-7 5-2 8-7 11-11 5-2 8-7 7-7 5-2 6-6h2l2-4 8-7 23-23 7-8 3-6 22-22 1-2h2l2-4 3-5 7-8 7-7 5-6 3-6 10-10 4-7 9-11 3-5 7-9 3-6 5-6 3-6 5-6 3-6 5-6 3-6 5-6 3-6 5-6 3-6 6-9 18-36 6-10 5-8 31-62 10-24 5-11 3-8 11-24 3-7 8-20 6-18 7-22 5-10 4-12 3-10 3-9 3-7 3-9 3-11 2-4 2-12 2-3 2-9 2-4 2-12 2-2 2-10 2-4 2-12 2-2 2-10 2-4 2-12 2-2 2-10 2-4 1-15 1-2h2l1-14 3-4 1-16 1-2h2l1-14 3-4 1-16 1-2h2l1-13 3-6 1-15 2-2 1-4 1-18 3-7 1-13 3-6 2-20z"/>
<path transform="translate(906,635)" d="m0 0 2 1v70l-3 3-1 141-3 3-1 71-4-2-22-22-7-4-8-7-18-18-4-2-15 15-5 6-2 5-41 41-7 8-2 2-2 5-42 42-6 7h-2l-2 7-46 46-2 3h-2l-2 7-42 42-7 8-3 6-21 21-5 4-5-7-3-6-6-10-5-8-6-12-3-10-1-1-2-10-2-2-1-25-3-2v-33l1-2h2l1-22 3-4 2-10 4-4h2l2-4 2-2 2-5 4-5 8-7 6-7 2-5 13-13 5-6 2-5 15-15 1-2h2l2-4 2-2 2-5 13-13 5-6 2-5 15-15 1-2h2l2-4 2-2 2-5 13-13 5-6 3-6 12-12 5-6 2-6 9-9h2l-5-5-8-5-3-2v-2l-4-2-12-8v-2l-4-2-9-6-8-7-8-5-8-7 1-2 15-5 17-6 11-5 10-3 6-2 11-4 18-6 11-5 10-3 18-6 11-4 20-7 13-5 29-10 38-14z"/>
<path transform="translate(787,955)" d="m0 0 4 1 7 8 12 23 5 10 2 12 3 9 3 7 1 9 1 12 2 3 1 5v15l-2 7-3 15-2 4-2 12-3 9-6 12-9 10-2 5-17 17-5 6-2 5-26 26-4 5-2 5-22 22-4 5-2 5-26 26-4 5-2 5-26 26-4 5-3 6-6 7 2 5 8 7 5 2 11 10 5 2 11 10 5 2 8 8 9 5 4 4-3 2-14 5-11 5-5 2-7 2-5 2-7 2-5 2-7 2-5 2-7 2-8 4-5 2-7 2-5 2-7 2-5 2-7 2-10 5-9 2-6 3-7 2-12 4-10 5-9 2-7 3-30 10-10 5-12 4-6 1v-71l3-2 1-142 3-2 1-72 7 6 17 16 2 2 5 2 17 16 10 10 3 4 4-2 8-9h2l2-4 7-6 20-20 1-2h2l2-4 2-2 2-5 11-11 1-2h2l2-4 18-18 2-6 4-4h2l2-4h2l2-4 18-18 2-6 34-34 2-6 4-4h2l2-4 22-22 2-6h2l2-4 26-26 2-6h2l2-4h2l2-4 22-22z"/>
<path transform="translate(1229,1719)" d="m0 0 3 1v20l-1 49v19l-2 1-8-7-9-8-4-1-2 4-5 7h-2l-2 4-9 9-7 8-8 8-7 8-14 15-1 2h-2l-2 4-8 8-7 8h-4l-8-17-2-10v-13l3-10 8-11 8-9 9-11 12-14 11-14 4-5v-2l-14-10-6-4v-2l18-7 54-19z" fill="#FEFEFE"/>
<path transform="translate(205,47)" d="m0 0 3 1v20l-1 49v19l-2 1-8-7-9-8-4-1-2 4-5 7h-2l-2 4-9 9-7 8-8 8-7 8-14 15-1 2h-2l-2 4-8 8-7 8h-4l-8-17-2-10v-13l3-10 8-11 8-9 9-11 12-14 11-14 4-5-1-3-9-6-10-7 4-4 23-8 42-15z" fill="#FEFEFE"/>
<path transform="translate(170,147)" d="m0 0 4 2 6 13 4 17-1 10-4 12-7 9-12 14-9 10-9 11-14 15-1 5 11 8 8 6v3l-31 11-36 13-7 2h-4v-20l1-3 1-42 1-15v-10l4 2 11 10 3 3 5-1 9-9 9-11 12-13 9-10 9-11 13-14 7-8z" fill="#FEFEFE"/>
<path transform="translate(1194,1819)" d="m0 0 4 2 6 13 4 18-1 9-4 12-7 9-12 14-9 10-9 11-14 15-2 4 20 15v3l-31 11-36 13-7 2h-4v-20l1-3 1-43 1-14v-10l4 2 14 13 3 1 11-11 9-11 12-13 9-10 9-11 13-14 7-8z" fill="#FEFEFE"/>
</svg>
