<?xml version="1.0" encoding="UTF-8"?>
<svg version="1.1" viewBox="0 0 1296 2016" width="324" height="504" xmlns="http://www.w3.org/2000/svg">
<path transform="translate(0)" d="m0 0h1296v2016h-1296z" fill="#FEFEFD"/>
<path transform="translate(0)" d="m0 0h1296v352l-5-5-12-19-5-9-9-14-10-14-12-13-9-9-19-14-15-10-19-11-17-7-12-5-14-5-28-7-20-3-8-2-25-2-2-1-9-1-50-1-7-3h-51l-9 2-31 2-19 3-19 2-9 2-17 2-20 5-17 5-27 7-22 8-60 24-16 8-21 11-18 10-19 10-24 16-15 11-19 13-12 9-13 10-8 7-3 1v2l-14 11-8 7-13 11-6 4-12 12-6 5-6 7-6 5-6 7-6 5-6 7-6 5-9 11-8 10-11 13-8 10-14 15-8 11-8 8-13 18-16 22-9 12-9 13-11 15-10 15-7 11-9 15-10 15-9 14-9 15-6 9-6 10-12 23-6 9-7 14-9 16-4 6-7 14-9 17-11 23-9 17-11 23-9 17-27 63-7 15-13 30-11 26-6 15-6 16-11 29-8 21-11 28-14 39-7 19-10 29-7 20-3 3z" fill="#E4D020"/>
<path transform="translate(1294,768)" d="m0 0h2v1248h-1296v-320l5 5 11 18 16 26 8 9 8 11 9 10 14 10 9 8 17 10 10 6 23 11 13 5 17 6 21 5 13 3 21 2 6 2 40 1 5 3h52l4-3 59-1 10-1 7-2 21-2 9-2 19-2 2-1 29-3 11-3 22-5 16-4 13-3 22-5 18-5 15-6 29-10 19-7 22-8 25-12 52-26 16-9 20-13 13-8 11-7 24-16 14-10 10-9 11-8 8-8 16-12 9-8 8-6 12-11 31-31 7-11 25-25 6-9 13-14 9-13 8-8 7-11 7-8 7-11 44-66 10-17 17-34 6-9 20-39 14-29 9-22 11-25 10-22 11-29 13-38 7-18 15-45 24-84 8-29 2-6 2-12 3-13 3-11 2-12 3-13 3-12 3-14 5-22 2-12 2-9 2-14 2-8 2-13 2-6 2-18z" fill="#E4D020"/>
<path transform="translate(650,684)" d="m0 0h60l4 3 12 1 4 3 12 1 4 3 14 5 23 11 13 7 9 9 10 8 6 4 13 13 6 7 11 15 14 27 6 13 1 5 1 19 2 4 1 21v23l-3 11-2 10-6 10-4 5-4 7-6 7-7 10-12 13-13 12-25 13-14 6v4l12 5 7 2 17 9 6 5 6 3 13 12 8 5 6 5 9 11 12 16 8 13 11 21 5 13 2 10 1 1 1 9v30l-1 15-2 5-2 18-2 6-2 10-7 19-16 32-8 13-5 6h-2l-2 4-6 5-15 15-6 3-9 9-12 9-15 8-24 11-13 4-15 1-7 2-10 1-23 1-9 3h-35l-7-3-24-2-5-2-15-2-4-2-12-2-44-22-17-11-10-9-14-10-5-5-10-12-8-13-9-16-7-14-8-22-3-27-2-10v-57l3-9 2-13 10-21 11-20 9-11 4-7 12-12 11-7 10-6 16-8 23-11 8-4-1-5-11-1-11-6-13-10-7-5-12-12-11-14-9-13-8-14-5-16-3-13v-61l6-22 6-16 10-19 23-23 5-9 7-6 16-9 10-6 11-7 10-6 11-5 24-8 29-1v-2z" fill="#E4D020"/>
<path transform="translate(657,1028)" d="m0 0h28l4 2 20 2 8 3 9 2 25 12 9 5 14 10 10 10 6 9 7 10 8 16 4 10 3 10 2 14 2 6v23l-3 10-2 14-4 14-11 23-7 9-4 5-4 6-8 8-13 9-5 4-26 14-10 1-6 3-15 1-5 3h-32l-3-3-16-1-4-3h-8l-11-5-17-8-10-9-8-5-10-9-10-12-13-25-7-19-2-15-2-4v-28l2-3 2-16 3-9 2-9 7-19 5-9 8-12 4-5 8-7 8-5 6-4 17-8 13-5 12-6 3-1 11-1z" fill="#FEFEFD"/>
<path transform="translate(665,756)" d="m0 0h24l8 3 12 1 11 4 19 9 16 12 5 4 7 8 5 5 4 10 3 13 3 18 2 6v19l-3 9-2 15-2 5-2 10-6 10-17 17-11 7-18 10-10 3-4 2-19 1-4 3h-25l-3-3-20-1-4-3-7-3-16-8-6-5-5-2-1-3-4-2-7-9-6-9-7-14-3-9-2-19-2-4v-35l8-17 9-17 6-8 4-5 12-6 7-6 6-3 4-4 14-3 5-2 16-1z" fill="#FEFEFD"/>
<path transform="translate(135,76)" d="m0 0h12l17 5 13 7 11 9 7 10 4 9 2 12v7l-3 9-7 11-9 8-10 5 13 7 13 12 6 8 4 10v21l-4 15-6 11-8 9-11 8-13 6-9 2-9 1-5 2h-7l-4-2-15-3-12-5-11-7-8-7-8-13-5-16-1-3v-14l4-12 6-11 9-9 17-9-11-7-7-7-6-10-2-6v-20l3-10 6-10 8-8 13-8 10-4z" fill="#FEFEFD"/>
<path transform="translate(1159,1752)" d="m0 0h12l17 5 13 7 11 9 7 10 5 13 1 7v8l-3 9-7 11-9 8-10 5 13 7 13 12 6 8 4 11v20l-4 15-6 11-8 9-11 8-10 5-12 3-9 1-5 2h-7l-4-2-18-4-16-8-11-9-7-10-5-12-3-11v-14l4-12 6-11 9-9 17-9-11-7-7-7-6-10-2-6v-20l3-10 6-10 7-7 14-9 10-4z" fill="#FEFEFD"/>
<path transform="translate(131,179)" d="m0 0h15l12 3 12 7 8 11 4 11 1 11-3 12-6 9-9 9-12 5-6 1h-13l-12-4-8-5-9-10-5-12v-16l5-15 8-9 12-6z" fill="#E4D020"/>
<path transform="translate(1155,1855)" d="m0 0h15l12 3 12 7 8 11 4 11 1 11-3 12-6 9-4 5-9 6-8 3-6 1h-13l-12-4-8-5-8-9-5-10-1-4v-14l4-14 6-8 8-6z" fill="#E4D020"/>
<path transform="translate(1155,1775)" d="m0 0h17l11 4 8 7 4 6 2 7v12l-3 9-7 8-9 5-10 2h-9l-10-3-6-4-7-8-4-10v-15l5-9 8-7z" fill="#E4D020"/>
<path transform="translate(131,99)" d="m0 0h17l11 4 8 7 4 6 2 8v11l-3 9-7 8-9 5-10 2h-9l-10-3-6-4-7-8-3-6-1-4v-15l5-9 8-7z" fill="#E4D020"/>
</svg>
