<?xml version="1.0" encoding="UTF-8"?>
<svg version="1.1" viewBox="0 0 1296 2016" width="324" height="504" xmlns="http://www.w3.org/2000/svg">
<path transform="translate(0)" d="m0 0h1296v2016h-1296z" fill="#FEFFFE"/>
<path transform="translate(0)" d="m0 0h1296v352l-5-5-7-11-12-20-7-11-8-11-9-11-14-14-19-14-15-10-19-11-24-10-19-7-26-6-8-2-15-2-8-2-20-1-6-2-10-1-49-1-7-3h-48l-12 2-40 3-9 2-19 2-10 2-16 2-20 5-44 12-21 7-27 11-30 12-23 11-19 10-16 9-24 13-21 14-15 11-16 11-14 10-12 10-8 6-12 11-11 8-7 7-14 11-10 9-8 8-6 5-6 7-6 5-6 7-6 5-7 8-8 8-4 6-9 10-11 14-9 10-7 8-9 11-7 8-11 14-6 8-3 5-9 12-10 13-9 13-8 11-7 10-12 18-10 17-18 27-10 17-10 15-10 18-6 12-6 9-7 14-10 18-3 4-8 16-8 15-11 23-16 32-9 17-11 24-7 17-10 23-11 24-7 17-13 30-6 15-13 34-7 18-20 52-8 23-11 29-10 30-9 24-2 1z" fill="#E3D01F"/>
<path transform="translate(1294,768)" d="m0 0h2v1248h-1296v-320l5 5 7 11 18 30 11 13 8 11 4 5 11 9 9 7 10 8 14 8 10 6 21 10 20 8 17 5 16 4 13 3 21 2 6 2 41 1 4 3h52l4-3 59-1 10-1 6-2 22-2 7-2 21-2 8-2 23-2 5-2 12-2 18-5 21-5 15-3 31-8 15-6 29-10 19-7 24-9 29-14 15-8 23-11 19-10 25-16 13-8 11-7 12-8 19-13 20-16 11-9 10-9 11-8 9-8 8-6 12-11 29-29 10-14 22-22 10-14 10-10 10-14 7-7 9-13 7-9 42-63 13-20 11-22 10-19 9-15 31-62 10-24 10-23 12-27 8-21 15-43 9-24 15-46 7-25 16-56 9-32 3-14 5-22 3-14 5-22 6-28 4-20 2-9 2-14 2-8 2-13 2-6 2-18z" fill="#E3D01F"/>
<path transform="translate(749,692)" d="m0 0h86l1 1v667h-128l-1-471-1-41-9 2-52 26-21 9-30 14-30 10-25 7-25 8-12 3-27 9-12 3-7 1-1-86 1-2 33-9 17-5 21-8 27-10 21-9 35-17 20-11 12-8 43-29 16-11 13-11 8-6 12-11z" fill="#E3D01F"/>
<path transform="translate(156,72)" d="m0 0h21l2 1 1 42v149h-38l-1-1v-146l-29 12-36 12-8 1v-22l29-10 15-7 18-10 17-13 7-7z" fill="#FEFFFE"/>
<path transform="translate(1169,1744)" d="m0 0h20l2 1 1 44v147h-39v-147l-24 10-25 9-20 6h-4v-22l29-10 17-8 16-9 17-13 8-7z" fill="#FEFFFE"/>
</svg>
