<?xml version="1.0" encoding="UTF-8"?>
<svg version="1.1" viewBox="0 0 1296 2016" width="324" height="504" xmlns="http://www.w3.org/2000/svg">
<path transform="translate(0)" d="m0 0h1296v2016h-1296z" fill="#FEFFFE"/>
<path transform="translate(0)" d="m0 0h1296v352l-5-5-8-13-15-25-10-14-3-4v-2l-3-1-7-8-11-11-16-12-18-12-19-11-17-7-12-5-14-5-28-7-20-3-7-2-26-2-5-2-53-1-6-1-4-2h-51l-9 2-31 2-19 3-19 2-10 2-16 2-20 5-44 12-22 8-60 24-32 16-17 10-25 13-24 16-15 11-19 13-12 9-13 10-11 9-7 7-10 7-5 5h-2v2l-13 10-8 7-8 8-6 5-6 7-6 5-5 6-7 6-6 7-6 5-9 11-8 10-9 10-8 11-8 9-5 5-9 11-14 16-11 16-11 15-12 16-9 13-11 15-8 11-5 9-5 8-9 14-7 11-8 12-9 15-5 7-5 9-5 8-12 23-6 9-7 14-9 16-6 10-56 112-7 16-18 42-7 15-13 30-9 21-10 26-13 33-10 27-8 20-17 47-10 28-14 40-3 3z" fill="#E3D020"/>
<path transform="translate(1294,768)" d="m0 0h2v1248h-1296v-320l5 5 11 18 16 26 11 13 6 8 8 9 14 10 9 8 17 10 10 6 23 11 13 5 21 7 23 5 7 2 21 2 6 2 37 1 6 2 2 1h52l4-3 60-1 9-1 7-2 21-2 9-2 19-2 2-1 29-3 11-3 22-5 16-4 26-6 27-7 13-5 29-10 21-8 25-9 80-40 10-6 20-13 15-9 30-20 17-12 10-9 11-8 8-8 16-12 9-8 11-8 40-40 7-11 25-25 6-9 14-15 6-9 10-11 6-9 8-10 6-9 7-11 7-10 7-11 6-9 7-10 9-14 7-11 14-27 9-17 8-14 12-23 11-22 10-22 18-42 10-22 10-26 13-38 9-24 15-45 7-25 11-39 8-28 7-24 2-12 3-13 3-11 2-12 3-13 3-11 2-12 6-25 4-21 2-14 2-7 2-14 2-6 2-18z" fill="#E3D020"/>
<path transform="translate(666,692)" d="m0 0h44l4 3 23 1 5 3 9 2 4 2 8 2 5 2 9 1 16 8 19 10 8 8 9 6 8 7 12 12 3 2v2l4 2 7 9 8 15 4 9 3 14 5 18 7 22 2 5v3l-47 1-6 3h-38l-1-1-2-11-2-6-2-9-6-16-7-11-6-8-6-5-16-12-13-8-21-11-3-1-20-1-24 1-7 2-18 2-9 3-10 2-11 7-10 7-8 7-10 6-5 5-8 10-7 9-7 8-9 17-7 15-4 16-5 15-2 11-2 4-2 12-2 4-2 12-2 7-2 32-2 9-1 21 8-7 13-13 14-10 18-18 14-9 16-7 9-2 4-2 11-2 12-6 29-1v-2l2-1h60l4 3 11 1 5 3 9 2 8 3 18 8 16 8 10 7 11 6 8 7 9 7 9 6 8 10 10 15 13 20 8 16 8 24 4 14 2 21 2 6 1 27v19l-1 14-2 5-2 14-8 24-10 24-9 15-9 17-9 10-8 11-9 10-11 11-6 3-6 6h-2v2l-11 7-16 8-21 10-12 2-3 2-11 1-6 3-26 1-5 3h-46l-6-3-24-1-10-3-11-2-4-2-11-2-36-18-17-11-13-10-11-9-4-4v-2l-4-2-7-8-12-15-9-15-16-32-11-27-5-17-4-23-4-29-2-37-2-18v-88l2-3 1-11 1-29 2-4 2-21 5-21 13-38 8-21 6-15 6-11 10-17 10-15 9-10 15-15 11-8 13-11 18-11 18-10 13-7 13-4 13-3 16-5 24-1z" fill="#E3D020"/>
<path transform="translate(660,999)" d="m0 0h15l14 1 7 3 10 1 7 3 8 1 4 2 11 2 19 9 17 16 1 3 3 1 7 8 10 14v2h2l8 16 3 18 2 8 2 20 2 9v39l-3 11-3 12-7 17-9 17-9 11-4 6-11 12-3 6-7 7-17 9-10 3-9 3-7 3-15 1-5 3h-32l-3-3-16-1-4-3h-8l-11-5-12-6-6-5-5-2-9-9-6-3-8-8-12-23-7-11-8-16-3-8-2-9-2-8-2-12-1-3v-46l3-9 2-9 7-19 11-20 7-8 4-6 5-5 4-3 5-3 9-6 8-6 11-7 11-6 8-4 10-2 5-2z" fill="#FEFFFE"/>
<path transform="translate(135,76)" d="m0 0h23l16 4 9 5 9 7 7 8 5 11 4 13v2l-26 1-2-2-4-11-4-6-7-6-9-4h-19l-11 4-9 7-7 10-5 11-4 16-3 24 16-14 14-7 17-3h12l14 4 12 6 10 8 7 7 7 14 4 16v19l-4 15-8 16-11 12-10 8-10 4-14 2h-19l-14-2-12-5-11-8-7-7-7-11-6-13-3-11-3-26v-27l3-24 6-21 8-16 6-8 11-10 14-8z" fill="#FEFFFE"/>
<path transform="translate(1159,1752)" d="m0 0h23l13 3 12 6 9 7 6 7 6 12 3 11v4l-25 1-2-2-4-11-4-6-7-6-9-4h-19l-11 4-9 7-7 10-5 11-4 16-3 24 16-14 14-7 17-3h12l14 4 12 6 10 8 7 7 7 14 4 16v19l-4 15-8 16-9 10-9 8-13 6-13 2h-21l-16-3-14-7-12-11-7-10-6-13-4-13-3-26v-27l3-24 6-21 8-16 6-8 11-10 14-8z" fill="#FEFFFE"/>
<path transform="translate(637,1375)" d="m0 0h92l168 1 15 1 3 3v12l-3 3-4 1h-477l-5-3-2-3v-8l3-5 2-1z" fill="#E3D020"/>
<path transform="translate(133,168)" d="m0 0h15l15 4 8 6 7 8 4 10 2 11v17l-5 13-8 10-7 6-9 4-6 1h-10l-11-3-9-6-7-8-7-14-2-8v-19l4-11 6-9 12-9z" fill="#E3D020"/>
<path transform="translate(1157,1844)" d="m0 0h15l15 4 8 6 7 8 4 10 2 11v17l-5 13-8 10-7 6-9 4-6 1h-10l-12-4-8-5-7-8-7-14-2-8v-19l4-11 6-9 12-9z" fill="#E3D020"/>
<path transform="translate(71,281)" d="m0 0h141l4 2-1 4-4 1h-141l-2-5z" fill="#FEFFFE"/>
<path transform="translate(1098,1957)" d="m0 0h138l3 1 1 4-4 2h-142l-2-2 1-4z" fill="#FEFFFE"/>
</svg>
