<?xml version="1.0" encoding="UTF-8"?>
<svg version="1.1" viewBox="0 0 1296 2016" width="324" height="504" xmlns="http://www.w3.org/2000/svg">
<path transform="translate(0)" d="m0 0h1296v2016h-1296z" fill="#FEFFFE"/>
<path transform="translate(0)" d="m0 0h1296v352l-3-1-13-21-13-22-13-18-4-5-12-12-14-11-12-9-19-12-15-8-19-8-18-7-25-6-14-3-13-2-3-1-26-2-6-2-16-1-43-1-4-2-17-1h-23l-18 1-7 2-35 2-9 2-20 2-10 2-16 2-21 5-44 12-25 9-40 16-26 11-22 11-13 8-25 13-18 11-17 12-14 10-16 11-11 8-11 9-10 8-11 10-11 8-7 7-13 10-10 9-50 50-11 14-9 10-9 12-12 13-10 12-9 11-8 9-6 9-7 10-12 16-8 11-7 10-6 8-14 20-7 11-8 14-6 9-7 10-7 11-8 14-6 9-8 13-11 20-6 11-6 10-7 14-9 15-14 27-46 92-6 16-6 12-7 18-7 15-7 16-8 18-6 15-6 13-9 24-11 28-7 18-6 16-13 34-11 31-10 28-7 20-8 22h-2z" fill="#E4D01E"/>
<path transform="translate(1294,768)" d="m0 0h2v1248h-1296v-320l5 5 10 15 7 12 9 15 12 14 4 6 9 10 7 6 6 4 10 9 17 10 13 8 20 9 20 8 17 5 11 3 10 2 11 2 16 1 2 2 16 1 30 1 2 2 15 1h38l4-3 48-1 22-1 3-2 24-2 5-2 23-2 7-2 23-2 11-3 9-2 16-4 27-6 25-6 17-5 13-5 30-10 26-10 19-7 80-40 22-14 15-9 45-30 13-10 7-6 8-6 13-12 10-7 10-9 11-8 7-7h2v-2l8-7 15-15 7-8 5-6 4-6 12-12 7-8 8-8 5-8 11-11 7-10 1-2h2l2-4 8-9 4-6 9-12 46-69 12-19 17-34 9-15 14-27 14-28 8-18 9-21 10-23 9-20 11-29 12-35 9-24 13-40 7-24 4-14 6-20 7-26 9-30 4-19 4-16 4-20 2-8 4-17 2-11 2-9 4-17 4-21 2-13 2-9 2-12 2-8 1-12z" fill="#E4D01E"/>
<path transform="translate(651,680)" d="m0 0h272l1 1v475l-4 1h-269z" fill="#E4D01E"/>
<path transform="translate(449,1039)" d="m0 0 187 1 1 88v42l78 1 1 1v344l-4 1h-75l-189-1-1-430v-46z" fill="#E4D01E"/>
<path transform="translate(1205,1784)" d="m0 0h11l8 2 9 4 9 6 6 7 3 11v21l-4 13-8 11-9 9-8 7-9 9-7 8-13 14-1 2h24l35 1v14l-3 1-78-1-1-5 8-16 8-12 11-12 11-9 8-8 6-5 10-13 5-11 1-3v-13l-3-8-6-5-9-4-8-1-12 5-6 5-3 8v10h-12l-3-2v-7l7-17 8-9 10-6z" fill="#FEFFFE"/>
<path transform="translate(181,100)" d="m0 0h11l8 2 9 4 9 6 6 7 3 11v21l-4 13-8 11-9 9-8 7-10 10-7 8-12 13-1 2h21l38 1v14h-81l-1-5 8-16 8-12 11-12 13-11 12-12 9-10 6-13 1-3v-14l-3-7-6-5-9-4-8-1-12 5-6 5-3 8v10h-12l-3-2v-7l7-17 8-9 10-6z" fill="#FEFFFE"/>
<path transform="translate(1108,1809)" d="m0 0h10l1 2 1 37h14l20 1v13l-4 1h-30v38l-1 1h-11l-1-1v-39h-34l-1-1v-11l1-1h34v-39z" fill="#FEFFFE"/>
<path transform="translate(84,125)" d="m0 0h10l1 2 1 37h15l19 1v13l-3 1h-31v38l-1 1h-11l-1-1v-39h-34l-1-1v-11l1-1h34v-39z" fill="#FEFFFE"/>
</svg>
