<?xml version="1.0" encoding="UTF-8"?>
<svg version="1.1" viewBox="0 0 1296 2016" width="324" height="504" xmlns="http://www.w3.org/2000/svg">
<path transform="translate(0)" d="m0 0h1296v2016h-1296z" fill="#FEFEFD"/>
<path transform="translate(0)" d="m0 0h1296v352l-4-2-15-25-10-17-13-18-4-5-12-12-14-11-15-11-20-12-16-8-17-7-15-6-33-8-20-3-3-1-26-2-5-2-17-1-42-1-4-2-19-1h-16l-23 1-5 2-37 2-8 2-20 2-19 3-12 2-17 4-21 6-23 6-22 8-33 13-29 12-23 11-21 12-23 12-18 11-10 7-18 13-10 7-15 10-13 11-11 8-7 7-10 8-9 7-11 10-11 8-56 56-11 14-9 10-9 12-12 13-18 22-8 9-4 6-7 10-10 13-4 6-4 5-10 14-7 10-8 11-10 15-12 20-16 24-12 20-6 9-8 13-12 23-7 11-6 12-9 16-5 8-6 12-10 19-10 21-10 19-10 21-10 19-9 21-7 16-7 17-7 15-7 16-6 13-8 20-5 10-6 17-13 33-12 32-13 33-8 22-6 17-7 20-10 28-7 20-3 3z" fill="#E3D020"/>
<path transform="translate(1294,768)" d="m0 0h2v1248h-1296v-320l5 4 8 13 11 18 9 15 10 11 8 11 9 9 9 6 10 9 17 10 10 6 23 11 13 5 7 3 13 4 16 4 20 4 16 1 3 2 45 2 2 2 20 1h27l8-1 2-2 45-1 24-1 4-2 23-2 6-2 22-2 6-2 24-2 12-3 9-2 24-6 18-4 26-6 17-5 21-8 33-11 15-6 19-7 56-28 31-16 9-6 14-9 10-6 39-26 11-8 13-11 8-6 12-11 11-8 13-11 8-6 10-10h2v-2l7-6 5-6 18-18 5-8 11-11 7-8 9-9 5-8 8-8 8-10 4-6 5-6 5-5 7-10 7-9 46-69 10-16 12-23 11-21 8-14 12-23 11-22 10-22 18-42 10-22 11-29 10-30 10-26 16-49 15-53 7-25 3-10 7-24 3-15 4-17 4-19 2-9 4-17 2-10 4-17 4-20 2-11 2-12 2-10 1-9 3-10 1-12z" fill="#E3D020"/>
<path transform="translate(905,635)" d="m0 0h3v53l-1 19-1 2-1 36-1 92-1 15-1 1-1 26-1 46-4-1-7-8-5-4-5-5-11-10-9-7-8-7v-2l-4-2-5-6-3-3-4 1-11 12-7 9-6 8h-2l-2 4-38 38-7 10-9 10-36 36-7 10-9 10-36 36-7 10-9 10-36 36-9 12-12 13-10 10-4-4-5-9-12-20-7-17-5-16-2-13-2-14-1-2-1-10v-12l1-11 2-4 2-19 4-13 4-5 5-5 6-9 5-6 5-5 6-7 4-6 5-6 5-5 6-7 4-6 8-8 7-8 5-6 4-6 5-6 5-5 6-7 4-6 8-8 7-8 5-6 4-6 5-6 5-5 6-7 4-6 5-6 5-5 6-7 4-6 7-8-4-4-8-5-10-8-16-12-9-7-9-6-11-9 1-3 33-12 21-8 27-9 24-9 35-12 17-6 21-8 27-9 24-9z" fill="#E3D020"/>
<path transform="translate(789,954)" d="m0 0 3 1 8 11 13 26 3 8 2 10 6 20 1 14 3 8v21l-2 5-3 14-4 16-6 15-7 10-8 11-9 10-8 8-7 10-15 16-10 10-7 10-15 16-9 10-4 6-15 16-10 10-7 10-15 16-11 11-6 9-5 6 1 5 9 8 9 6 7 6 9 6 7 6 6 4 10 8 8 4v4l-10 5-24 9-30 10-26 10-17 6-38 14-17 6-24 9-30 10-20 8-8 3h-3v-72l2-6 1-28v-73l1-37 2-4 1-69 2-1 8 7 11 11 8 6 10 8 21 21 1 2h3l7-8 11-11 6-5 5-6 7-6 7-8 5-6 4-6 5-6 7-6 7-8 12-12 5-8 5-6 21-21 6-9 5-6 7-6 7-8 11-11 5-8 6-7 22-22 3-6 7-8 6-5 7-8 9-9 3-6 9-10 17-17 7-6z" fill="#E3D020"/>
<path transform="translate(203,48)" d="m0 0h4v52l-1 36-4-2-14-13-4 1-13 15-7 7-7 8-12 13-7 8-7 7-7 8-11 12-5 6-3 1-7-14-3-12v-15l3-10 8-11 9-11 12-14 18-22 4-5v-4l-18-12v-3l36-13 19-7z" fill="#FEFEFD"/>
<path transform="translate(1227,1720)" d="m0 0h4v52l-1 36-4-2-14-13-4 1-13 15-7 7-7 8-12 13-7 8-7 7-7 8-11 12-5 6-3 1-7-14-3-12v-15l3-10 8-11 9-11 12-14 18-22 4-5 1-4-5-2-9-7-5-5 9-4 52-19z" fill="#FEFEFD"/>
<path transform="translate(1194,1820)" d="m0 0 4 2 6 15 3 13v8l-4 13-9 13-12 13-9 11-15 16-8 10 1 4 14 10 4 3-1 3-44 16-26 9-5 1-1-1 1-21 2-38 1-27h4l12 12 1 2 4-1 13-14 7-8 12-14 12-13 9-11 7-7 9-11z" fill="#FEFEFD"/>
<path transform="translate(170,148)" d="m0 0 4 2 6 15 3 12v9l-5 15-9 12-12 13-7 8-8 10h-2l-2 4-8 9-4 5 1 4 14 10 4 3-1 3-31 11-27 10-16 5-2-1 1-21 3-65h4l12 12 1 2 4-1 13-14 7-8 12-14 12-13 9-11 7-7 9-11z" fill="#FEFEFD"/>
</svg>
