<?xml version="1.0" encoding="UTF-8"?>
<svg version="1.1" viewBox="0 0 1296 2016" width="324" height="504" xmlns="http://www.w3.org/2000/svg">
<path transform="translate(0)" d="m0 0h1296v2016h-1296z" fill="#FEFEFD"/>
<path transform="translate(0)" d="m0 0h1296v352l-5-5-8-13-15-25-10-14-7-9-12-12-10-9-11-8-16-11-23-13-19-8-18-7-19-5-18-4-18-3-4-1-26-2-5-2-39-1h-17l-7-3h-52l-8 2-32 2-12 2-25 3-10 2-16 2-20 5-32 9-12 3-22 8-28 11-27 11-18 8-19 10-17 10-25 13-14 9-17 12-14 10-23 16-13 11-6 4-13 12-11 8-13 12-11 8-12 12-6 5-5 6-7 6-5 6-8 7-7 7-7 8-6 7-9 11-10 12-8 10-8 8-9 11-8 10-10 11-7 11-9 12-8 11-9 12-9 13-11 15-9 13-8 13-9 15-7 10-9 14-9 15-9 14-6 10-12 23-7 11-13 25-7 11-56 112-8 18-6 14-5 11-5 12-11 24-7 17-5 11-7 17-5 12-10 26-12 31-8 21-12 31-11 31-11 30-7 21-8 22-2 1z" fill="#E4D020"/>
<path transform="translate(1294,768)" d="m0 0h2v1248h-1296v-320l5 5 8 13 11 18 8 13 11 13 6 8v2h2l6 7 14 10 10 9 16 9 8 5 16 8 13 5 11 5 18 6 9 2 21 5 22 2 5 2 25 1h15l5 3h53l5-3h19l40-1 10-1 6-2 21-2 2-1 26-3 2-1 29-3 17-4 18-5 22-5 14-3 16-4 15-4 13-5 37-13 13-5 25-9 82-41 19-12 32-20 16-11 22-15 10-9 11-8 9-9 14-10 10-9 11-8 42-42 5-8 7-8h2l2-4 16-16 5-8 14-15 6-9 11-12 5-8 8-10 46-69 12-19 17-34 14-24 23-46 8-18 9-21 10-23 9-20 9-23 13-38 9-24 12-35 6-21 7-23 5-19 4-14 7-23 5-19 3-9 2-13 4-16 2-7 2-13 2-6 2-11 2-7 2-12 3-13 3-11 4-20 2-16 2-7 2-14 3-12 1-11z" fill="#E4D020"/>
<path transform="translate(665,692)" d="m0 0h21l3 3 40 1 4 3 10 2 3 2 12 1 4 3 10 3 24 12 10 7 8 7 34 34 8 13 9 16 6 10 8 17 13 40 7 26 3 16 5 27 2 23 2 13 2 35 2 9v80l-2 13-2 24-2 12-2 20-6 21-7 23-6 15-10 22-9 17-6 12-8 12-10 11-6 7-8 7-8 6-10 8-10 7-14 8-16 8-14 5-7 3-20 6-5 2-10 1-3 2-33 2-4 3-4-1-3-2-33-1-8-3-16-2-3-2-11-3-10-3-13-6-9-4-7-4-12-7-14-10-7-7-7-6-5-6-5-5-9-10-4-6-8-11-8-12-4-9-9-19-8-21-10-36-5-26-3-24-1-4-1-13-2-45-2-12v-18l2-2 1-12 1-63 2-6 3-34 2-6 2-14 2-6 2-13 2-6 2-10 7-20 7-18 5-13 10-15 7-11 5-9 9-10 29-29 10-7 15-9 15-8 35-11 5-2 12-1 7-3 27-1z" fill="#E4D020"/>
<path transform="translate(661,767)" d="m0 0h14l14 1 4 2 19 2 16 7 20 11 11 8 9 8 4 6 8 10 7 10 8 17 9 28 4 20 2 18 1 4 3 44 1 3 1 24v104l-1 10-1 1-2 31-1 8-1 1-2 22-9 36-5 13-4 8-8 10-4 6-8 10-4 6-10 10-11 7-20 11-8 4-10 1-5 3-16 1-4 3h-21l-3-3h-11l-7-2-3-2-9-2-4-2-8-2-17-9-8-10-11-15-9-17-19-38-5-14-4-14-3-13-3-24-1-4-1-22v-88l1-44 3-26 1-16 2-10 2-21 3-12 2-9 4-16 12-25 10-18 15-15h2l1-3 8-7 8-5 8-7 10-5 15-6 6-2z" fill="#FEFEFD"/>
<path transform="translate(131,77)" d="m0 0h19l16 4 11 6 11 10 7 10 7 17 5 21 5 31v16l-5 26-5 16-8 16-7 9-10 8-17 8-13 3h-18l-16-4-13-7-10-9-8-11-6-13-4-13-3-18-1-15v-11l2-28 5-24 6-15 9-13 10-9 14-7z" fill="#FEFEFD"/>
<path transform="translate(1155,1753)" d="m0 0h19l16 4 11 6 11 10 7 10 7 17 5 21 5 32v15l-5 26-5 16-8 16-7 9-10 8-17 8-13 3h-18l-16-4-13-7-10-9-8-11-6-13-4-13-3-19-1-14v-11l2-28 5-24 6-15 9-13 9-8 12-7 14-4z" fill="#FEFEFD"/>
<path transform="translate(1154,1775)" d="m0 0h13l9 2 8 4 8 7 5 8 4 12 2 12 2 39v11l-3 25-3 11-5 9-9 10-7 4-10 3h-11l-10-3-8-5-7-10-7-16-3-13-1-8v-38l3-28 5-15 7-10 8-7z" fill="#E4D020"/>
<path transform="translate(130,99)" d="m0 0h13l9 2 8 4 8 7 5 8 4 12 2 12 2 39v12l-3 24-4 14-8 11-8 7-11 4-3 1h-11l-10-3-8-5-7-10-7-16-3-13-1-8v-38l3-28 5-15 7-10 8-7z" fill="#E4D020"/>
</svg>
