<?xml version="1.0" encoding="UTF-8"?>
<svg version="1.1" viewBox="0 0 1296 2016" width="324" height="504" xmlns="http://www.w3.org/2000/svg">
<path transform="translate(0)" d="m0 0h1296v2016h-1296z" fill="#FDFEFD"/>
<path transform="translate(0)" d="m0 0h1296v352l-5-5-8-13-15-25-10-14-3-4v-2h-2l-7-8-2-4-4-2-11-10-11-8-18-12-21-12-15-6-12-5-14-5-28-7-20-3-7-2-26-2-5-2-39-1h-17l-7-3h-51l-9 2-32 2-18 3-19 2-10 2-16 2-20 5-44 12-22 8-60 24-32 16-17 10-25 13-27 18-12 9-19 13-11 8-12 10-6 4-13 12-11 8-5 5h-2v2l-13 10-8 7-8 8-6 5-6 7-6 5-5 6-7 6-5 6-7 6-9 11-8 10-9 10-8 11-10 10-9 11-8 10-9 10-11 16-11 15-12 16-9 13-11 15-9 13-8 13-9 15-7 10-9 14-9 15-9 14-6 10-12 23-7 11-6 12-9 16-6 10-56 112-7 16-12 28-16 36-6 14-5 11-7 17-10 25-10 26-9 23-6 16-13 34-10 28-11 30-7 21-7 20-3 3z" fill="#E3D01F"/>
<path transform="translate(1294,768)" d="m0 0h2v1248h-1296v-320l5 5 11 18 16 26 11 13 6 8v2h2l6 7 14 10 10 9 16 9 10 6 23 11 13 5 21 7 16 4 7 1 7 2 21 2 6 2 37 1 6 2 2 1h52l4-3 60-1 9-1 7-2 21-2 8-2 20-2 2-1 29-3 17-4 18-5 28-6 22-5 19-6 14-5 34-12 13-5 25-9 80-40 10-6 17-11 18-11 24-16 19-13 14-12 11-8 8-8 16-12 9-8 11-8 41-41 6-10 4-2 2-4 19-19 6-9 14-15 6-9 10-11 6-9 8-10 22-33 7-11 7-10 10-15 7-11 10-18 14-28 8-13 15-29 11-22 9-20 9-21 10-23 9-20 10-26 13-38 9-24 12-36 5-17 7-23 5-19 4-14 7-23 5-19 3-10 2-12 4-16 4-20 3-13 3-11 2-12 4-17 2-7 2-12 2-10 2-14 2-7 2-14 3-12 1-12z" fill="#E3D01F"/>
<path transform="translate(521,720)" d="m0 0h350v80l-278 1-3 8-4 20-4 16-10 50-3 10-3 16-4 20-3 14-3 7 4-1 16-8 15-6 25-11 13-4 17-4h86l11 4 17 7 9 3 10 3 8 3 12 5 12 7 11 8 7 7 11 7 18 18 8 11 10 14 11 20 5 13 3 9 3 17 2 17 1 13 2 4 1 28v14l-1 14-2 6-2 10-8 24-9 19-9 16-9 13-11 11-7 8-5 6-8 10-6 7-6 5-5 5-7 6-11 7-13 6-21 9-17 6-11 2-4 2-8 2-5 2-10 1-3 2-5 1h-76l-8-3-12-2-4-2-12-2-3-2-9-2-8-3-18-6-21-11-10-8-5-5-9-8-8-6-6-5-5-6-5-5-7-9-7-10-8-13-5-12-10-30-5-19-1-9 2-2 19-1 10-3 35-1 7-3h19l5 14 4 13 3 10 11 23 9 16 9 10 7 7 19 10 13 6 7 3h7l5 3 10 1 7 1 2 2h45l4-3h7l8-3 19-10 14-8 11-10 10-7 4-5 6-9 7-10 7-9 5-13 3-9 2-13 2-6 2-19 2-6v-28l-3-14-1-16-4-11-6-10-11-18-10-14-7-8-7-6-18-10-16-7-11-4-12-2-4-2h-78l-17 6-21 11-12 11-12 8-7 8-8 11-4 4h-15l-3-1v-2l-35-1-8-3-18-1-3-1 1-9 4-20 2-7 2-13 2-7 2-14 2-6 2-17 2-7 2-13 2-7 2-13 2-7 2-13 2-7 2-13 2-7 2-13 2-6 2-14 2-7 2-14 2-6 2-17 2-7 2-13 2-7 2-14 2-7 2-13 3-12z" fill="#E3D01F"/>
<path transform="translate(1116,1752)" d="m0 0h106l2 2v21l-1 1h-86l-1 9-8 40v2l12-6 14-4h27l15 5 14 8 10 9 8 13 3 10 1 9v25l-4 16-5 9-7 9-6 7-9 7-11 5-7 2-8 1h-31l-11-2-11-4-13-10-7-8-5-8-5-15v-8l1-1 18-1 7-1 3 7 5 12 6 9 10 6 13 4h15l10-4 9-6 8-10 4-8 2-9v-20l-4-13-6-9-5-5-6-4-9-3-5-1h-24l-8 4-10 9-4 6-19-2-6-1v-7l9-47 7-39 2-10z" fill="#FDFEFD"/>
<path transform="translate(91,76)" d="m0 0h108l1 1 1 18-2 3h-87l-2 12-7 35v3l14-7 12-3 11-1h12l15 4 12 5 10 7 7 6 7 10 4 12 1 9v26l-4 16-7 11-11 12-7 6-14 7-9 3-6 1h-29l-11-2-16-8-9-7-9-9-6-12-2-8v-10l1-1 17-1 6-1 2 1 4 12 6 11 1 3 16 8 13 3h8l13-4 9-6 7-7 7-14 2-14-1-13-4-11-6-9-8-7-10-4-13-2h-17l-9 4-8 6-7 8-3 1-22-3-1-5 3-14 11-56 4-23z" fill="#FDFEFD"/>
</svg>
