<?xml version="1.0" encoding="UTF-8"?>
<svg version="1.1" viewBox="0 0 1296 2016" width="324" height="504" xmlns="http://www.w3.org/2000/svg">
<path transform="translate(0)" d="m0 0h1296v2016h-1296z" fill="#FEFEFD"/>
<path transform="translate(0)" d="m0 0h1296v351l-4-2-27-45-12-16-6-7-7-6-5-5-11-9-13-9-14-9-18-10-19-8-21-8-26-6-7-2-15-2-7-2-27-2-4-2-60-2-3-2h-53l-8 2-35 2-17 3-17 2-11 2-16 2-30 8-36 10-30 11-30 12-26 11-25 13-16 9-28 15-12 8-16 11-12 9-12 8-14 10-13 11-6 4-13 12-11 8-13 12-11 8-8 8-8 7-42 42-8 11-10 11-10 13-9 10-10 11-6 8-9 10-6 8-9 13-7 9-10 14-6 8-9 13-11 15-9 13-7 10-6 12-7 10-10 15-5 7-6 12-7 10-8 13-12 23-8 13-12 23-8 13-14 27-11 23-10 19-8 16-10 21-8 16-5 13-7 15-9 21-9 20-7 16-11 26-10 25-12 31-9 24-11 28-9 24-7 20-8 21-11 33-8 22-2 1z" fill="#E3D020"/>
<path transform="translate(1295,768)" d="m0 0h1v1248h-1296v-319l3 1 6 10 16 26 6 10 2 4h2l9 12 8 10 10 9 9 6 7 7 19 11 5 4 23 11 13 5 12 5 13 4 9 2 21 5 21 2 4 2 45 2v2h56l2-2 66-2 6-2 27-3 2-1 26-3 2-1 29-3 18-5 31-7 9-2 26-6 17-5 25-9 29-10 26-10 12-5 19-9 19-10 40-20 24-15 21-13 15-10 28-19 11-10 10-7 14-13 10-7 3-3h2v-2l16-12 18-18h2l2-4 21-21 3-6 6-7 5-5 3-1 2-4 12-12 6-9 5-6 5-5 6-7 4-6 6-7h2l2-4 6-9 7-9 46-69 11-17 17-34 14-24 28-56 13-31 11-25 9-20 11-29 10-30 10-26 16-49 8-28 6-22 7-24 9-32 3-12 5-23 3-13 5-23 9-39 4-20 3-20 2-7 2-15 2-5 2-18z" fill="#E3D020"/>
<path transform="translate(661,688)" d="m0 0h32l4 3 19 1 8 4 10 4 5 1 7 3h6l14 7 19 9 20 11 5 4 14 7 14 14 6 9 11 13 8 11 10 14 6 10 9 21 4 14 4 17 3 12 3 16 2 18 1 12 1 2 1 9 2 46 2 3v72l-2 3-2 57-2 8-2 23-2 5-2 14-6 19-3 12-5 14-10 21-10 19-7 11-10 15-7 9-10 14-14 18-8 7-13 7-11 9-7 4-5 4-14 5-16 5-4 2-12 2-4 2-12 2-5 2-12 1-6 3h-52l-7-3-12-2-8-3-9-2-11-3-8-3-6-1-10-3-7-3-12-6-13-11-12-9-9-8-7-8-6-9-11-21-7-16-6-20-10-30-1-6 3-1 15-1 3-2 37-2 3-2 10-1h12l2 11 2 4 2 14 13 27 6 9 1 3h2l2 3 8 4 8 8 7 3 5 5 7 3 11 3 2 2 10 2 2 2 17 1h29l11-1 7-3 18-6 25-13 17-16 9-10 10-18 5-8 6-13 7-17 5-11 5-16 10-40 3-15 2-6v-55l-3 1-7 8-30 30-10 6-8 7-7 4-5 4-13 5-17 7-8 2-10 2-20 1-3 2-15 1h-42l-8-3-15-2-13-6-21-7-16-8-12-7v-2l-4-2-9-6-10-10-8-11-8-9-8-11-6-8-7-11-11-23-8-21-6-24-3-16v-40l3-9 1-22 3-10 1-19 3-9 2-10 9-19 6-10 5-5 6-9 7-8 5-8 14-15 7-11 13-13 13-8 26-13 21-7 11-2 6-2 15-1 9-3 15-1z" fill="#E3D020"/>
<path transform="translate(667,759)" d="m0 0h36l13 2 16 6 19 10 13 10 8 7 5 5 8 10 7 9 8 17 4 12 3 13 6 27 3 14v20l-2 4-2 23-6 22-8 23-6 10-9 13h-2l-2 4-12 12-9 7-17 9-9 3-8 2-7 1-3 2-15 1-5 3h-30l-1-3h-14l-5-2-2-2h-9l-21-10-8-4-6-5-6-3-5-5-7-3-8-9-6-10-3-4-8-17-6-16-2-8-2-14-1-2-1-12v-33l1-20 3-10 3-9 11-23 7-12 7-10 8-10 7-9 9-7 14-9 23-12 15-6z" fill="#FEFEFD"/>
<path transform="translate(128,80)" d="m0 0h20l15 4 14 7 12 9 8 10 7 14 4 17 2 22v29l-2 23-4 15-7 16-9 13-8 9-11 7-9 4-22 4-12-1-15-3-12-5-12-11-8-16-3-10v-5l23-2 2 2 4 12 5 7 11 7 6 2h19l10-4 6-4 6-7 8-16 3-8 4-20 1-12-6 4-9 8-10 6-13 4-16 1-13-2-11-4-10-6-5-4-9-12-7-14-3-10v-18l3-18 4-10 9-13 10-10 8-5 15-5z" fill="#FEFEFD"/>
<path transform="translate(1152,1752)" d="m0 0h20l15 4 14 7 12 9 8 10 7 14 4 18 2 21v29l-2 23-5 18-8 16-8 11-5 5-9 8-13 6-22 4-12-1-17-4-10-4-12-11-8-16-3-10v-5l23-2 2 2 3 10 6 9 11 7 11 3 14-1 10-4 6-4 7-8 9-19 4-17 2-19-8 6-10 8-10 5-11 3-15 1-13-2-11-4-10-6-5-4-9-12-7-14-3-10v-18l3-18 4-10 9-13 10-10 11-6 13-4z" fill="#FEFEFD"/>
<path transform="translate(446,1384)" d="m0 0h398l76 1 3 4v10l-3 4-15 1h-457l-5-2-3-5 1-9z" fill="#E3D020"/>
<path transform="translate(1155,1773)" d="m0 0h20l10 4 10 9 5 8 4 13 1 5v13l-2 10-6 12-9 9-10 4-10 2h-8l-14-4-11-7-6-8-4-9-2-11 1-17 4-10 7-11 7-6 10-5z" fill="#E3D020"/>
<path transform="translate(131,101)" d="m0 0h20l10 4 10 9 5 8 4 13 1 5v13l-2 10-6 12-9 9-10 4-10 2h-8l-14-4-11-7-6-8-4-9-2-12 1-16 4-10 7-11 10-8z" fill="#E3D020"/>
<path transform="translate(71,285)" d="m0 0h137l4 2v4l-2 1h-141l-2-4 1-2z" fill="#FEFEFD"/>
<path transform="translate(1092,1958)" d="m0 0h143l1 5-1 1h-142l-2-4z" fill="#FEFEFD"/>
</svg>
