<?xml version="1.0" encoding="UTF-8"?>
<svg version="1.1" viewBox="0 0 1296 2016" width="324" height="504" xmlns="http://www.w3.org/2000/svg">
<path transform="translate(0)" d="m0 0h1296v2016h-1296z" fill="#FDFDFD"/>
<path transform="translate(0)" d="m0 0h1296v352l-3-1-10-16-18-30-12-16-11-12-11-10-19-14-21-13-16-8-16-7-18-7-32-8-21-3-2-1-26-2-6-2-16-1-43-1-4-2-18-1h-18l-22 1-6 2-36 2-9 2-20 2-9 2-21 3-17 4-21 6-23 6-22 8-33 13-34 14-21 11-53 29-19 13-15 11-19 13-11 8-8 7-11 8-7 7-13 10-10 9-10 8-8 6-56 56-11 14-9 10-9 12-12 13-18 22-9 10-6 9-7 10-12 16-8 11-7 10-6 8-14 20-9 15-9 14-7 11-7 10-11 19-6 9-8 13-12 23-7 11-6 12-9 16-9 15-10 21-10 19-10 21-10 19-10 21-6 12-7 17-6 13-6 15-7 15-7 16-8 18-6 15-5 10-6 17-4 10-14 36-10 26-11 29-21 58-9 26-7 20-3 3z" fill="#E3D020"/>
<path transform="translate(1294,768)" d="m0 0h2v1248h-1296v-320l5 5 7 10 8 14 8 13 7 10 8 9 4 6 9 10 7 6 6 4 10 9 17 10 13 8 20 9 20 8 17 5 11 3 10 2 11 2 16 1 3 2 15 1 30 1 2 2 17 1h35l5-3 47-1 22-1 4-2 24-2 5-2 23-2 6-2 23-2 12-3 9-2 16-4 52-12 17-5 13-5 30-10 26-10 19-7 72-36 18-10 12-8 15-9 42-28 11-8 12-10 9-7 12-11 11-8 12-10 9-7 8-8 8-7 11-11 7-8 8-8 5-8 12-12 1-2h2l2-4 10-10 5-8 8-8 8-10 6-8 9-10 6-9 7-9 46-69 12-19 18-36 8-13 15-29 12-24 9-20 18-42 10-22 11-29 10-30 10-26 16-49 7-24 7-26 9-30 7-26 3-11 2-10 2-9 4-16 2-11 2-9 4-17 2-10 4-17 4-19 3-21 2-6 2-16 3-10 1-12z" fill="#E3D020"/>
<path transform="translate(669,643)" d="m0 0h21l20 1 7 3 17 1 3 2 17 2 2 2 12 3 5 2 9 1 5 3 10 4 18 6 16 8 9 6 15 8 7 4 5 4 7 4 5 4 7 4 9 9 11 7 34 34 9 12 11 13 7 11 13 18 11 20 6 10 6 15 7 15 13 38 5 18 2 12 4 20 2 11 2 18 1 1 1 10v62l-2 9-3 25-2 9-2 11-4 17-4 15-12 36-9 19-4 9-5 8-8 16-7 13-6 7-9 13-7 10-11 13-4 6-14 15-21 21-13 9-11 10-10 6-10 7-10 6-12 7-15 8-15 6-28 11-15 4-13 4-2 1-15 2-5 2-20 2-4 2h-68l-5-2-23-3-6-2-13-2-5-2-24-6-8-3-11-4-10-4-23-11-13-8-15-9-10-7-13-9-10-9-11-8-29-29-12-15v-2l-3-1-13-18-7-10-9-13-8-14-14-28-6-13-7-18-9-28-5-21-6-30-3-27-1-3-1-19v-33l1-20 2-4 2-23 2-4 2-15 3-12 2-10 5-16 11-33 10-21 4-8 3-7 8-14 7-11 16-24 7-10 4-5 5-5 5-8 6-7 22-22 8-7 13-10 12-10 15-10 13-8 15-9 19-10 21-8 8-3 13-4 9-2 15-5 15-2 4-2 25-2 2-2z" fill="#E3D020"/>
<path transform="translate(657,716)" d="m0 0h40l10 1 4 2 19 2 9 3 19 5 20 8 34 17 19 12 14 10 13 12 10 7 7 6 5 6-1 4-12 11-9 6-12 12h-2v2l-8 7-10 8-8 7-13 12-7 6-9 7-17 16-14 11-8 8-16 14-9 7-10 10-8 7-9 8-9 7-7 7-16 14-9 7-7 7-16 14-9 7-7 7-16 14-9 7-7 7-16 14-9 7-10 10-8 7-9 8-9 7-7 7-16 14-9 7-7 7-16 14-9 7-7 7h-2l-2 4-8 8-9 7-6 4h-2l-12-25-9-19-12-36-7-28-3-25-1-2-1-9v-47l1-15 2-8 2-19 7-28 12-37 5-12 8-16 10-19 3-6 8-12 9-11 7-9 9-11 8-10 5-3 7-5 6-7 8-7 9-8 6-4 20-13 31-16 18-8 11-4 10-2 21-6 16-1 5-2z" fill="#FDFDFD"/>
<path transform="translate(920,869)" d="m0 0h4l10 19 6 12 4 9 8 24 4 15 4 16 3 13 2 21 2 7 1 26v22l-1 18-2 3-1 17-3 12-2 12-2 5-3 12-11 33-17 35-8 15-8 12-10 13-7 9-7 7-3 6-5 6-12 9-8 7-4 4h-2v2l-11 9-15 10-17 10-16 9-5 3-15 6-3 2-10 3-6 2-9 2-13 4-10 2-12 1-3 2-15 1h-32l-16-1-2-2-25-2-3-2-10-2-2-2-12-2-9-3-13-5-2-2-9-2-7-6-22-11-6-5-5-2-7-6-6-3-31-31 1-4 13-12 7-7h2l2-4 9-6 10-9 9-9h2l2-4 13-9 15-15h2l2-4 10-7 7-6 15-15 10-7 7-6 15-15h2l2-4 10-7 7-6 15-15 10-7 7-6 15-15 10-7 7-6 15-15 10-7 7-6 15-15 10-7 7-6 15-15h2l2-4 10-7 7-6 11-11h2l2-4 10-7 3-1 1-3 8-7 10-10 13-9 19-19 10-8 9-7 9-9z" fill="#FDFDFD"/>
<path transform="translate(1153,1752)" d="m0 0h19l16 3 15 6 11 7 10 8 5 5 9 10 8 14 5 12 4 17v38l-4 17-7 16-8 13-11 12-9 8-15 9-16 6-9 2h-27l-14-3-15-6-11-7-13-11-10-13-8-14-5-13-4-15-1-9v-19l3-19 5-15 8-16 9-12 10-10 13-9 14-7 15-4z" fill="#FDFDFD"/>
<path transform="translate(129,76)" d="m0 0h19l16 3 15 6 11 7 10 8 5 5 9 10 8 14 5 12 4 17v37l-4 18-7 16-6 10-9 11-9 9-15 10-17 7-13 3h-25l-15-3-12-5-11-6-10-8-10-10-11-16-6-13-6-21-1-8v-22l3-17 5-15 8-16 8-11 12-12 14-9 12-6 14-4z" fill="#FDFDFD"/>
<path transform="translate(1156,1769)" d="m0 0h12l16 3 16 8 16 12-1 4-12 11-11 10-11 9-15 14-8 7-10 9-11 9-15 14-14 12-5 4-4 4-3-1-8-20-3-13-1-8v-11l3-15 4-12 8-15 8-10 10-10 11-7 16-6z" fill="#E3D020"/>
<path transform="translate(132,93)" d="m0 0h12l16 3 16 8 16 12-1 4-12 11-11 10-11 9-15 14-8 7-10 9-8 7-14 12-14 13-9 7-4 4-3-1-8-20-3-14-1-16 3-17 5-14 7-13 8-10 10-10 11-7 16-6z" fill="#E3D020"/>
<path transform="translate(201,134)" d="m0 0 4 1 6 14 3 13 1 6v24l-5 18-7 14-9 12-10 10-10 7-10 5-13 4-5 1h-15l-19-5-12-6-10-8-5-7 5-5 12-11 11-9 15-14 11-9 14-13 11-9 7-7 8-7 10-9z" fill="#E3D020"/>
<path transform="translate(1225,1810)" d="m0 0 4 1 6 14 3 13 1 6v24l-5 18-7 14-9 12-10 10-10 7-13 6-16 4h-13l-17-4-11-5-9-6-6-5-4-6 5-5 10-9 14-12 13-12 8-7 14-12 12-11 8-7 11-10 8-7 11-10z" fill="#E3D020"/>
</svg>
