<?xml version="1.0" encoding="UTF-8"?>
<svg version="1.1" viewBox="0 0 1296 2016" width="324" height="504" xmlns="http://www.w3.org/2000/svg">
<path transform="translate(0)" d="m0 0h1296v2016h-1296z" fill="#FEFFFE"/>
<path transform="translate(0)" d="m0 0h1296v352l-5-5-8-13-15-25-10-14-3-4v-2h-2l-7-8-2-4-4-2-11-10-11-8-18-12-21-12-15-6-12-5-14-5-28-7-20-3-7-2-26-2-5-2-39-1h-17l-7-3h-51l-9 2-32 2-18 3-19 2-10 2-16 2-20 5-44 12-22 8-50 20-17 7-19 10-27 15-21 11-27 18-12 9-19 13-11 8-12 10-6 4-13 12-11 8-5 5h-2v2l-13 10-8 7-8 8-6 5-5 6-7 6-5 6-8 7-4 5-7 6-9 11-8 10-9 10-8 11-10 10-9 11-8 10-9 10-11 16-11 15-12 16-9 13-11 15-9 13-8 13-9 15-7 10-9 14-9 15-9 14-6 10-12 23-7 11-13 25-7 11-56 112-8 18-12 28-16 36-6 14-5 11-7 17-10 25-10 26-9 23-6 16-13 34-10 28-11 30-7 21-7 20-3 3z" fill="#E4D01F"/>
<path transform="translate(1294,768)" d="m0 0h2v1248h-1296v-320l5 5 11 18 16 26 11 13 6 8v2h2l6 7 14 10 10 9 16 9 8 5 25 12 13 5 21 7 16 4 7 1 7 2 21 2 6 2 24 1h15l6 3h52l4-3 60-1 9-1 7-2 21-2 8-2 20-2 2-1 29-3 17-4 18-5 28-6 22-5 19-6 14-5 34-12 13-5 25-9 80-40 10-6 17-11 18-11 30-20 17-12 10-9 11-8 8-8 16-12 9-8 11-8 41-41 5-8 9-10 17-17 6-9 14-15 6-9 10-11 6-9 8-10 22-33 7-11 7-10 10-15 7-11 9-16 14-28 9-15 15-29 11-22 9-20 9-21 10-23 9-20 10-26 13-38 8-21 17-51 5-19 4-14 7-23 5-19 4-14 7-24 2-12 4-16 4-20 3-13 3-11 2-12 4-17 2-7 2-12 2-9 2-15 2-7 2-14 3-12 1-12z" fill="#E4D01F"/>
<path transform="translate(749,704)" d="m0 0h70l1 2v418h94l1 1 1 74-1 1h-95v151l-1 1h-86l-1-1-1-117v-33l-302-1-1-1v-77l6-8 8-11 6-8 8-10 7-10 3-4h2l2-4 6-8 8-10 7-10 8-10 6-9 9-9 5-8 3-4h2l2-4 6-10 7-8 6-9 9-9 6-10 4-2 2-4 6-10 7-8 6-9 3-1 2-4 5-6 6-9 6-7 6-9 6-7 6-9 9-9 6-10 7-8 6-9 6-7 6-9 3-1 2-4 6-8 8-10 7-10 8-10 6-8 10-12 16-22 9-12 7-9z" fill="#E4D01F"/>
<path transform="translate(729,836)" d="m0 0 3 1v287l-1 1-214-1v-4l10-13 14-19 18-24 7-9 10-14 14-18 10-14 14-18 10-14 14-18 10-14 14-18 8-11 9-12 13-17 11-15 12-16 11-15z" fill="#FEFFFE"/>
<path transform="translate(160,80)" d="m0 0h19l2 2 1 123 5 1 24 1 1 1v21l-1 1h-30v46h-25l-1-1v-45h-85l-6-1v-21l6-10 16-21 8-11 16-21 36-48 10-13z" fill="#FEFFFE"/>
<path transform="translate(1188,1756)" d="m0 0h18l3 3v123l30 1 1 5v17l-1 1h-30v46h-25l-1-1v-45h-85l-6-1v-21l6-10 16-21 8-11 16-21 36-48 10-13z" fill="#FEFFFE"/>
<path transform="translate(1181,1797)" d="m0 0 2 1v85h-64l1-4 12-16 26-36 9-12 8-10z" fill="#E4D01F"/>
<path transform="translate(153,121)" d="m0 0h2v86h-64l1-4 12-16 11-15 13-18 11-15 8-10z" fill="#E4D01F"/>
</svg>
