<?xml version="1.0" encoding="UTF-8"?>
<svg version="1.1" viewBox="0 0 1296 2016" width="324" height="504" xmlns="http://www.w3.org/2000/svg">
<path transform="translate(0)" d="m0 0h1296v2016h-1296z" fill="#FEFEFD"/>
<path transform="translate(0)" d="m0 0h1296v352l-5-5-7-10-6-11-6-9-6-11-9-12-9-11-13-13-16-12-14-10-24-14-24-10-19-7-26-6-9-2-14-2-2-1-26-2-6-2-13-1-46-1-7-3h-48l-9 1-10 2-32 2-10 2-19 2-10 2-16 2-20 5-44 12-23 8-60 24-30 15-21 12-23 12-18 12-28 20-13 9-11 8-14 11-8 7-13 11-9 7-11 10-13 10-29 29-6 5-7 8-15 15-8 11-10 11-11 14-15 16-8 11-11 12-11 16-12 16-7 9-11 16-16 22-12 18-12 20-16 24-10 17-10 15-10 18-6 12-6 9-8 16-9 16-3 4-60 120-10 24-13 30-7 15-9 21-11 26-10 25-10 26-7 18-13 34-7 18-10 28-9 25-11 31-7 20-3 3z" fill="#E4D020"/>
<path transform="translate(1294,768)" d="m0 0h2v1248h-1296v-320l5 5 7 11 18 30 11 13 8 11 12 12 9 6 10 9 10 6 7 4 10 6 21 10 20 8 17 5 22 5 8 2 16 1 5 2 6 1 40 1 5 3h53l1-3 58-1 12-1 5-2 23-2 6-2 22-2 9-2 22-2 5-2 12-2 10-3 35-8 25-6 17-5 13-5 29-10 19-7 24-9 27-13 17-9 19-9 19-10 21-13 13-8 20-13 24-16 14-10 9-8 8-6 12-11 11-8 13-11 8-6 12-11 29-29 4-5 3-6h2l2-4 21-21 10-14 10-10 10-14 10-11 6-9 7-9 42-63 13-20 16-32 11-19 10-19 23-46 10-24 11-25 12-27 11-29 10-30 10-26 15-46 8-28 15-53 10-35 2-12 2-6 2-10 2-8 2-12 4-16 2-9 5-24 3-12 2-11 2-10 2-14 2-7 2-13 2-6 2-18z" fill="#E4D020"/>
<path transform="translate(657,688)" d="m0 0h50l1 3 25 1 22 11 7 1 2 2 10 2 6 3 7 2 9 5 8 7 12 12 11 7 10 12 8 10 6 8 10 19 7 20 4 14 2 9 2 7v31l-3 11-2 10-9 26-8 15-6 9-9 11-6 7-4 6-11 11-14 7-6 5-5 2-1 4 9 4 54 27 9 8 7 10 10 17 8 13 7 16 4 13 2 10 2 9 1 12 2 5 1 16v37l-3 9-1 11-5 12-13 26-10 18-7 10-9 13-12 13-9 9-8 7-7 6-6 4-9 7-25 13-16 7-12 2-4 2-13 2-7 2-19 1-9 3h-39l-4-3-29-1-8-3-12-1-20-9-20-8-11-7-10-10-11-8-4-3v-2l-4-2-8-8-11-14-9-12-12-19-11-23-6-20-3-11-2-13-3-10 1-5 24-2 2-2 26-1 11-1 3-2 19-1 3 3 4 12 6 26 4 15 8 16 6 10 5 6 8 7 5 5 6 3 9 9 6 4 8 4 7 1 4 3 20 1 3 3h35l5-2 1-1 15-1 5-3 11-1 21-12 10-8 8-6 7-10 9-10 10-15 9-19 4-12 4-17v-30l-2-9-1-1-1-16-4-11-6-12-8-11-13-16-6-7-11-8-3-2v-2l-5-2-12-7-7-3-12-2-4-2-17-1-6-3h-30l-6 3h-33v-13l2-6 1-7 1-21 2-2 2-18 1-1 18-2 7-2 21-2 4-2 12-2 3-2 10-2 4-2 11-2 18-10 13-13 6-10 3-1 2-5 6-12 7-21 1-6v-15l-3-8-1-23-4-14-6-12-8-11-8-9-13-9-12-6-20-6-5-2-11-1-8-3h-18l-5 3-13 1-16 7-9 3-11 7-5 5-10 6-7 8-10 16-7 19-12 39-2 5h-11l-8-3-20-1-9-3-14-1-6-2-2-1-12-1-2-4 1-10 3-9 1-14 11-24 5-13 10-19 6-9 7-8 9-9 10-7 13-12 7-7 13-8 18-8 9-3 10-3 10-5 34-1z" fill="#E4D020"/>
<path transform="translate(1149,1756)" d="m0 0h28l14 4 12 7 9 9 7 14 2 7v17l-5 13-6 9-4 5-9 6 15 8 8 7 6 10 5 16 1 5v11l-4 14-7 13-7 9-7 7-13 8-13 4-10 1h-12l-14-2-12-5-11-8-10-12-7-15-4-12v-4l16-1 9-1 2 2 2 9 4 10 6 8 9 6 8 3h14l12-3 9-7 8-10 4-10 1-11-3-14-5-9-4-5-9-6-13-3h-19l-1-1 1-17 2-2 20-4 10-5h2l2-4 6-9 1-3v-13l-4-13-7-8-9-4-4-1h-16l-10 5-5 4-5 8-3 9-2 8-4 1-19-4-1-1 1-9 7-17 7-9 11-9 12-5z" fill="#FEFEFD"/>
<path transform="translate(121,76)" d="m0 0h28l12 3 11 6 10 9 6 9 4 10 1 4v17l-5 13-6 9-4 5-9 6 15 8 8 7 6 10 5 16 1 4v12l-5 16-6 11-7 9-8 8-12 7-9 3-14 2h-11l-15-2-12-5-8-6-5-4-9-12-5-10-5-15v-4l17-1 8-1 2 3 4 13 5 10 8 7 8 4 4 1h15l13-4 10-9 7-11 3-11-1-14-5-12-6-8-9-6-13-3h-19l-1-1 1-17 2-2 20-4 10-5h2l2-4 6-9 1-3v-13l-4-13-7-8-9-4-4-1h-16l-10 5-5 4-5 8-3 9-2 8-4 1-19-4-1-1 1-9 6-15 7-10 9-8 14-7z" fill="#FEFEFD"/>
</svg>
