<?xml version="1.0" encoding="UTF-8"?>
<svg version="1.1" viewBox="0 0 1296 2016" width="324" height="504" xmlns="http://www.w3.org/2000/svg">
<path transform="translate(0)" d="m0 0h1296v2016h-1296z" fill="#FEFEFD"/>
<path transform="translate(0)" d="m0 0h1296v352l-5-5-7-11-5-8-5-9-9-14-10-14-12-13-9-9-19-14-15-10-19-11-24-10-15-6-25-6-13-3-17-3-5-1-25-2-2-1-9-1-50-1-7-3h-51l-9 2-31 2-19 3-19 2-9 2-17 2-20 5-21 6-23 6-22 8-60 24-16 8-21 11-18 10-22 12-21 14-15 11-19 13-12 9-13 10-8 7-3 1v2l-14 11-8 7-13 11-8 6-10 10-6 5-6 7-6 5-6 7-6 5-6 7-6 5-9 11-8 10-11 13-8 10-14 15-8 11-8 8-13 18-16 22-9 12-9 13-11 15-10 15-7 11-9 15-10 15-9 14-9 15-8 12-10 18-6 12-6 9-7 14-10 18-3 4-7 14-9 17-11 23-9 17-11 23-9 17-27 63-7 15-13 30-11 26-6 15-5 14-11 28-7 19-13 33-14 39-7 19-10 29-7 20-3 3z" fill="#E4D020"/>
<path transform="translate(1294,768)" d="m0 0h2v1248h-1296v-320l5 5 13 21 10 17 6 8 11 14 8 10 8 7 11 8 8 7 17 10 10 6 23 11 13 5 18 6 20 5 13 3 21 2 6 2 41 1 4 3h52l4-3 59-1 10-1 7-2 21-2 10-2 18-2 2-1 29-3 11-3 22-5 16-4 13-3 22-5 18-5 15-6 29-10 19-7 22-8 33-16 44-22 16-9 20-13 13-8 11-7 24-16 14-10 10-9 11-8 8-8 16-12 9-8 8-6 12-11 31-31 7-11 25-25 6-9 13-14 9-13 8-8 7-11 7-8 7-11 44-66 8-14 12-23 8-15 9-16 15-29 15-31 8-20 12-27 10-22 9-24 15-43 7-18 17-52 22-77 8-29 2-6 2-12 4-17 2-7 2-12 4-17 2-8 3-14 5-22 2-12 2-9 2-14 2-8 2-13 2-6 2-18z" fill="#E4D020"/>
<path transform="translate(639,688)" d="m0 0h78l5 3 12 1 5 3 11 1 5 3 9 3 23 11 10 7 10 8 5 5 1 3 4 2 7 7 7 9 13 25 5 14 3 9 2 10 4 16 1 2 2 20 2 4 1 6v16l-1 11-2 5-1 17-5 18-4 9-7 16-7 13-6 10-9 14-4 6-9 12-8 10-9 11-7 9-11 12-4 6-9 10-6 7-6 5-6 7-6 5-6 7-6 5-6 7-6 5-6 7-6 5-5 6-8 7-8 8-9 6-8 8-6 5-6 7-6 5-6 7-6 5-6 7-6 5-6 7-6 5-6 7-6 5-7 8-6 8-7 11v3l286 1 1 75-1 1-186 1-13 1-6 2h-189l-2-4 4-21 2-14 4-20 6-16 8-16 10-16 6-8 8-11 10-14 7-11 9-13 72-72 12-9 15-14 25-25 12-9 13-12 15-15 6-9 9-10 7-8 6-9 19-19 10-18 9-19 6-16 6-18v-51l-4-13-8-20-6-9-9-10-7-6-8-6-11-7-14-7-12-4h-56l-16 5-18 10-11 8-15 14-7 9-8 15-4 10-2 11-2 5-1 16-2 9-1 2-2 13h-16l-3-1v-2l-31-1-8-3-14-1-3-1v-19l3-9 1-15 6-14 7-21 7-17 7-14 8-12 35-35 13-8 21-10 19-7 4-2 16-1z" fill="#E4D020"/>
<path transform="translate(125,72)" d="m0 0h28l12 3 11 6 9 8 6 10 4 13 1 7v19l-3 12-7 13-13 17-12 13-19 19-8 7-17 17-7 8-2 3h86l2 4v18l-2 2-64 1h-53l-1-1v-8l5-16 8-13 8-11 11-12 10-10 8-7 12-11 7-6 9-11 10-12 7-14 1-4v-17l-4-11-7-8-6-4-6-2h-21l-10 5-5 4-5 8-3 9-1 10-2 3-16-2-5-2v-7l4-14 5-12 9-10 8-7 13-6z" fill="#FEFEFD"/>
<path transform="translate(1153,1752)" d="m0 0h28l14 4 10 6 7 6 6 9 4 11 2 11v19l-3 12-7 13-12 16-14 15-18 18-8 7-17 17-8 10 12 1h73l2 6v17l-2 1-66 1h-51l-1-1v-8l5-16 8-13 8-11 11-12 11-11 8-7 12-11 3-3h2l2-4 11-12 8-11 6-12 1-4v-17l-4-11-7-8-6-4-6-2h-21l-10 5-5 4-5 8-3 9-1 10-2 3-16-2-5-2v-7l4-14 5-12 9-10 8-7 13-6z" fill="#FEFEFD"/>
</svg>
