<?xml version="1.0" encoding="UTF-8"?>
<svg version="1.1" viewBox="0 0 1296 2016" width="324" height="504" xmlns="http://www.w3.org/2000/svg">
<path transform="translate(0)" d="m0 0h1296v2016h-1296z" fill="#FEFEFD"/>
<path transform="translate(0)" d="m0 0h1296v351l-4-2-4-7-9-15-8-13-6-10-12-16-6-7-7-6-5-5-11-9-14-10-11-7-17-10-24-10-19-7-28-7-20-3-7-2-26-2-5-2-60-2-3-2h-53l-9 2-34 2-18 3-17 2-10 2-16 2-30 8-31 8-25 9-35 14-24 10-25 12-21 12-23 12-21 13-15 11-14 10-19 13-11 9-12 9-13 12-11 8-13 12-11 8-8 8-8 7-42 42-9 12-10 11-9 12-11 12-8 9-6 8-11 12-13 19-24 32-10 15-10 13-10 15-5 7-6 12-7 10-10 15-5 7-5 10-10 15-10 17-10 19-9 15-8 16-7 11-10 19-47 94-8 18-12 28-11 25-5 11-24 56-7 19-11 28-9 24-11 28-10 27-6 17-21 60-4 10-2 1z" fill="#E3D01F"/>
<path transform="translate(1295,768)" d="m0 0h1v1248h-1296v-319l5 5 11 17 15 25 12 14 4 6 9 10 8 6 7 5 5 5 10 7 9 5 7 5 23 11 25 10 12 4 10 2 21 5 21 2 4 2 45 2v2h56l2-2 67-2 5-2 27-3 2-1 26-3 2-1 29-3 16-4 17-4 18-5 17-3 18-5 16-4 12-5 30-10 26-10 17-6 17-8 19-10 52-26 15-10 15-9 17-11 24-16 14-10 10-9 10-7 14-13 10-7 10-9 10-7 15-15h2l2-4h2l2-4h2l2-4h2l2-4h2l2-4 9-9 3-6 9-9 3-4h2l2-4 13-13 5-8 7-7 7-8 6-9 5-6 5-5 6-9 8-10 6-9 7-11 32-48 11-17 14-28 10-18 8-14 28-56 10-24 10-23 11-24 13-35 11-32 9-24 14-42 7-25 16-56 8-29 3-11 4-20 3-11 3-15 5-21 6-29 3-13 3-14 2-16 2-7 2-14 3-12 1-12z" fill="#E3D01F"/>
<path transform="translate(488,732)" d="m0 0h422l1 1 1 60-1 3-8 7-10 13-9 10-8 10-36 48-8 12-6 11-16 24-7 11-7 12-6 10-9 14-7 14-11 18-11 22-22 55-10 23-7 18-3 12-7 19-6 16-8 25-5 19-3 9-4 20-3 28-2 16-3 21-2 25-2 9-2 16-1 1h-81l-1-1 1-26 2-6 2-42 2-6 2-29 2-6 2-13 4-17 6-21 8-25 4-15 8-25 5-19 6-17 14-29 8-18 11-24 41-82 8-14 14-20 8-12 9-12 7-10 7-11 8-12 7-10 12-13 8-11 6-7h2l-1-3h-314l-1-4z" fill="#E3D01F"/>
<path transform="translate(68,80)" d="m0 0h147l1 1v17l-4 6-13 15-11 14-7 10-10 15-10 17-12 26-9 24-5 19-5 35-1 1h-28l-1-1v-7l2-16 4-20 8-27 8-19 8-16 11-21 7-11 14-19 9-11 6-7h-107l-3-3v-20z" fill="#FEFEFD"/>
<path transform="translate(1092,1756)" d="m0 0h147l1 1v17l-4 6-13 15-11 14-9 13-10 15-11 20-9 20-9 24-5 19-5 35-1 1h-28l-1-1v-7l3-21 5-23 9-27 11-24 12-22 8-13 14-19 9-11 6-7h-107l-3-2v-21z" fill="#FEFEFD"/>
</svg>
